<svg version="1.1" viewBox="0.0 0.0 621.9238845144357 374.2309711286089" fill="none" stroke="none" stroke-linecap="square" stroke-miterlimit="10" xmlns:xlink="http://www.w3.org/1999/xlink" xmlns="http://www.w3.org/2000/svg"><clipPath id="p.0"><path d="m0 0l621.9239 0l0 374.23096l-621.9239 0l0 -374.23096z" clip-rule="nonzero"/></clipPath><g clip-path="url(#p.0)"><path fill="#000000" fill-opacity="0.0" d="m0 0l621.9239 0l0 374.23096l-621.9239 0z" fill-rule="evenodd"/><path fill="#f3f3f3" d="m0 0l621.92126 0l0 374.2362l-621.92126 0z" fill-rule="evenodd"/><g filter="url(#shadowFilter-p.1)"><use xlink:href="#p.1" transform="matrix(1.0 0.0 0.0 1.0 0.0 2.0)"/></g><defs><filter id="shadowFilter-p.1" filterUnits="userSpaceOnUse"><feGaussianBlur in="SourceAlpha" stdDeviation="2.0" result="blur"/><feComponentTransfer in="blur" color-interpolation-filters="sRGB"><feFuncR type="linear" slope="0" intercept="0.0"/><feFuncG type="linear" slope="0" intercept="0.0"/><feFuncB type="linear" slope="0" intercept="0.0"/><feFuncA type="linear" slope="0.5" intercept="0"/></feComponentTransfer></filter></defs><g id="p.1"><path fill="#fff2cc" d="m146.96588 80.68767l196.06299 0l0 42.015747l-196.06299 0z" fill-rule="evenodd"/><path stroke="#000000" stroke-width="1.0" stroke-linejoin="round" stroke-linecap="butt" d="m146.96588 80.68767l196.06299 0l0 42.015747l-196.06299 0z" fill-rule="evenodd"/><path fill="#000000" d="m174.93878 107.45554l1.484375 0l1.390625 -8.09375l0.09375 -0.484375l0.078125 0.484375l1.375 8.09375l1.484375 0l1.375 -11.375l-1.359375 0l-0.828125 7.828125l-0.046875 0.46875l-0.078125 -0.46875l-1.390625 -7.828125l-1.25 0l-1.375 7.828125l-0.09375 0.46875l-0.046875 -0.453125l-0.8125 -7.84375l-1.375 0l1.375 11.375zm12.7421875 0.15625q1.234375 0 2.078125 -0.5q0.84375 -0.5 1.265625 -1.140625l-0.890625 -0.6875q-0.390625 0.515625 -1.0 0.828125q-0.59375 0.3125 -1.375 0.3125q-0.578125 0 -1.0625 -0.21875q-0.484375 -0.21875 -0.828125 -0.59375q-0.34375 -0.359375 -0.53125 -0.828125q-0.1875 -0.46875 -0.25 -1.09375l0 -0.046875l6.046875 0l0 -0.65625q0 -0.875 -0.234375 -1.625q-0.21875 -0.765625 -0.671875 -1.328125q-0.453125 -0.5625 -1.140625 -0.875q-0.671875 -0.3125 -1.59375 -0.3125q-0.71875 0 -1.421875 0.296875q-0.6875 0.296875 -1.21875 0.84375q-0.546875 0.5625 -0.875 1.375q-0.328125 0.8125 -0.328125 1.828125l0 0.328125q0 0.890625 0.296875 1.640625q0.296875 0.75 0.828125 1.296875q0.53125 0.546875 1.265625 0.859375q0.75 0.296875 1.640625 0.296875zm-0.1875 -7.578125q0.5625 0 0.953125 0.203125q0.40625 0.203125 0.671875 0.53125q0.265625 0.328125 0.40625 0.78125q0.15625 0.4375 0.15625 0.828125l0 0.078125l-4.546875 0q0.09375 -0.59375 0.296875 -1.03125q0.21875 -0.453125 0.53125 -0.765625q0.3125 -0.3125 0.703125 -0.46875q0.390625 -0.15625 0.828125 -0.15625zm13.2265625 3.28125l0 -0.15625q0 -0.671875 -0.109375 -1.265625q-0.109375 -0.59375 -0.328125 -1.09375q-0.203125 -0.4375 -0.46875 -0.78125q-0.265625 -0.359375 -0.59375 -0.609375q-0.375 -0.265625 -0.84375 -0.40625q-0.453125 -0.15625 -1.0 -0.15625q-0.4375 0 -0.8125 0.09375q-0.375 0.078125 -0.6875 0.234375q-0.25 0.140625 -0.46875 0.328125q-0.21875 0.171875 -0.40625 0.40625l0 -4.453125l-1.4375 0l0 12.0l1.328125 0l0.0625 -0.96875q0.140625 0.1875 0.296875 0.34375q0.15625 0.140625 0.328125 0.265625q0.359375 0.25 0.8125 0.375q0.453125 0.140625 1.0 0.140625q0.46875 0 0.875 -0.125q0.421875 -0.109375 0.765625 -0.328125q0.46875 -0.296875 0.8125 -0.765625q0.34375 -0.46875 0.546875 -1.046875q0.15625 -0.453125 0.234375 -0.953125q0.09375 -0.515625 0.09375 -1.078125zm-1.453125 -0.15625l0 0.15625q0 0.375 -0.046875 0.734375q-0.046875 0.359375 -0.140625 0.671875q-0.125 0.421875 -0.34375 0.765625q-0.203125 0.328125 -0.515625 0.546875q-0.234375 0.171875 -0.53125 0.265625q-0.296875 0.078125 -0.65625 0.078125q-0.375 0 -0.6875 -0.09375q-0.3125 -0.09375 -0.5625 -0.28125q-0.25 -0.171875 -0.453125 -0.40625q-0.1875 -0.25 -0.328125 -0.53125l0 -3.6875q0.140625 -0.28125 0.328125 -0.515625q0.1875 -0.25 0.4375 -0.421875q0.25 -0.171875 0.5625 -0.265625q0.3125 -0.109375 0.6875 -0.109375q0.34375 0 0.625 0.078125q0.28125 0.078125 0.5 0.21875q0.328125 0.203125 0.546875 0.546875q0.234375 0.34375 0.375 0.75q0.109375 0.34375 0.15625 0.71875q0.046875 0.375 0.046875 0.78125zm9.8359375 1.421875q0 0.46875 -0.203125 0.8125q-0.203125 0.328125 -0.515625 0.546875q-0.328125 0.234375 -0.734375 0.34375q-0.40625 0.09375 -0.828125 0.09375q-0.53125 0 -0.984375 -0.140625q-0.453125 -0.140625 -0.796875 -0.4375q-0.34375 -0.28125 -0.5625 -0.6875q-0.21875 -0.40625 -0.28125 -0.9375l-1.484375 0q0.03125 0.734375 0.328125 1.328125q0.296875 0.59375 0.8125 1.046875q0.578125 0.515625 1.359375 0.796875q0.796875 0.265625 1.609375 0.265625q0.671875 0 1.34375 -0.1875q0.6875 -0.203125 1.234375 -0.578125q0.53125 -0.375 0.875 -0.9375q0.34375 -0.578125 0.34375 -1.34375q0 -0.765625 -0.328125 -1.34375q-0.3125 -0.578125 -0.828125 -0.96875q-0.515625 -0.4375 -1.15625 -0.703125q-0.625 -0.28125 -1.265625 -0.484375q-0.375 -0.109375 -0.8125 -0.265625q-0.4375 -0.15625 -0.796875 -0.390625q-0.375 -0.234375 -0.625 -0.578125q-0.234375 -0.34375 -0.25 -0.828125q0 -0.453125 0.1875 -0.796875q0.1875 -0.34375 0.5 -0.578125q0.296875 -0.234375 0.6875 -0.34375q0.40625 -0.125 0.8125 -0.125q0.515625 0 0.921875 0.15625q0.421875 0.15625 0.71875 0.453125q0.296875 0.28125 0.46875 0.6875q0.1875 0.40625 0.25 0.890625l1.484375 0q-0.015625 -0.78125 -0.34375 -1.40625q-0.3125 -0.640625 -0.84375 -1.078125q-0.53125 -0.453125 -1.21875 -0.6875q-0.6875 -0.25 -1.4375 -0.25q-0.671875 0 -1.34375 0.203125q-0.65625 0.203125 -1.171875 0.609375q-0.53125 0.390625 -0.859375 0.96875q-0.3125 0.578125 -0.3125 1.3125q0 0.734375 0.3125 1.28125q0.328125 0.546875 0.84375 0.9375q0.515625 0.390625 1.125 0.671875q0.625 0.28125 1.234375 0.46875q0.40625 0.140625 0.859375 0.3125q0.453125 0.15625 0.828125 0.390625q0.375 0.25 0.609375 0.609375q0.234375 0.359375 0.234375 0.890625zm7.2578125 1.859375q-0.6875 0 -1.140625 -0.265625q-0.453125 -0.28125 -0.734375 -0.71875q-0.28125 -0.421875 -0.40625 -0.96875q-0.109375 -0.546875 -0.109375 -1.09375l0 -0.328125q0 -0.546875 0.109375 -1.078125q0.125 -0.546875 0.40625 -0.984375q0.28125 -0.4375 0.734375 -0.703125q0.46875 -0.265625 1.140625 -0.265625q0.4375 0 0.8125 0.15625q0.375 0.140625 0.65625 0.390625q0.265625 0.265625 0.421875 0.609375q0.171875 0.328125 0.171875 0.71875l1.375 0q0 -0.640625 -0.265625 -1.203125q-0.25 -0.5625 -0.703125 -0.984375q-0.46875 -0.40625 -1.09375 -0.640625q-0.625 -0.234375 -1.375 -0.234375q-0.96875 0 -1.6875 0.34375q-0.71875 0.34375 -1.1875 0.921875q-0.484375 0.578125 -0.734375 1.34375q-0.234375 0.765625 -0.234375 1.609375l0 0.328125q0 0.84375 0.234375 1.609375q0.25 0.75 0.734375 1.328125q0.46875 0.59375 1.1875 0.9375q0.71875 0.34375 1.6875 0.34375q0.671875 0 1.28125 -0.234375q0.625 -0.234375 1.09375 -0.625q0.484375 -0.375 0.765625 -0.890625q0.28125 -0.515625 0.296875 -1.078125l-1.375 0q0 0.359375 -0.1875 0.65625q-0.171875 0.296875 -0.453125 0.515625q-0.296875 0.234375 -0.671875 0.359375q-0.359375 0.125 -0.75 0.125zm11.5390625 -7.59375q-0.921875 0 -1.65625 0.40625q-0.71875 0.390625 -1.234375 1.09375l0 -0.21875l-0.0625 -1.125l-1.375 0l0 8.453125l1.453125 0l0 -5.421875q0.140625 -0.390625 0.34375 -0.703125q0.21875 -0.328125 0.515625 -0.546875q0.3125 -0.25 0.734375 -0.375q0.4375 -0.125 0.96875 -0.125q0.421875 0 0.796875 0.046875q0.375 0.03125 0.796875 0.125l0.203125 -1.40625q-0.21875 -0.09375 -0.65625 -0.140625q-0.4375 -0.0625 -0.828125 -0.0625zm4.2890625 0.15625l0 1.25l2.875 0l0 5.953125l-2.875 0l0 1.25l7.078125 0l0 -1.25l-2.765625 0l0 -7.203125l-4.3125 0zm2.6875 -2.21875q0 0.34375 0.203125 0.578125q0.21875 0.234375 0.65625 0.234375q0.4375 0 0.65625 -0.234375q0.21875 -0.234375 0.21875 -0.578125q0 -0.203125 -0.0625 -0.359375q-0.0625 -0.171875 -0.1875 -0.28125q-0.109375 -0.09375 -0.265625 -0.15625q-0.15625 -0.0625 -0.359375 -0.0625q-0.203125 0 -0.359375 0.0625q-0.15625 0.0625 -0.265625 0.15625q-0.125 0.125 -0.1875 0.296875q-0.046875 0.15625 -0.046875 0.34375zm6.6796875 13.921875l1.4375 0l0 -4.0625q0.15625 0.171875 0.328125 0.3125q0.1875 0.140625 0.390625 0.265625q0.34375 0.1875 0.75 0.28125q0.421875 0.109375 0.90625 0.109375q0.796875 0 1.421875 -0.328125q0.625 -0.328125 1.046875 -0.90625q0.421875 -0.578125 0.640625 -1.359375q0.21875 -0.796875 0.21875 -1.703125l0 -0.15625q0 -0.953125 -0.21875 -1.734375q-0.21875 -0.796875 -0.640625 -1.375q-0.421875 -0.5625 -1.046875 -0.875q-0.625 -0.328125 -1.4375 -0.328125q-0.46875 0 -0.875 0.09375q-0.390625 0.09375 -0.71875 0.28125q-0.234375 0.125 -0.4375 0.3125q-0.203125 0.171875 -0.375 0.390625l-0.078125 -0.921875l-1.3125 0l0 11.703125zm5.6875 -7.546875l0 0.15625q0 0.625 -0.140625 1.1875q-0.125 0.5625 -0.40625 0.984375q-0.28125 0.4375 -0.71875 0.6875q-0.4375 0.25 -1.046875 0.25q-0.375 0 -0.6875 -0.09375q-0.296875 -0.09375 -0.546875 -0.25q-0.21875 -0.140625 -0.390625 -0.34375q-0.171875 -0.203125 -0.3125 -0.4375l0 -4.078125q0.15625 -0.265625 0.34375 -0.484375q0.203125 -0.21875 0.453125 -0.359375q0.21875 -0.15625 0.5 -0.234375q0.296875 -0.078125 0.625 -0.078125q0.609375 0 1.046875 0.25q0.4375 0.25 0.734375 0.671875q0.28125 0.4375 0.40625 1.0q0.140625 0.546875 0.140625 1.171875zm7.3359375 -6.203125l-1.453125 0l0 2.046875l-2.21875 0l0 1.109375l2.21875 0l0 4.59375q0 0.78125 0.203125 1.34375q0.21875 0.546875 0.578125 0.890625q0.359375 0.34375 0.84375 0.515625q0.484375 0.15625 1.046875 0.15625q0.34375 0 0.671875 -0.03125q0.34375 -0.03125 0.65625 -0.09375q0.296875 -0.0625 0.546875 -0.140625q0.265625 -0.078125 0.453125 -0.1875l-0.203125 -1.03125q-0.140625 0.03125 -0.34375 0.078125q-0.203125 0.046875 -0.4375 0.078125q-0.25 0.046875 -0.5 0.078125q-0.25 0.015625 -0.484375 0.015625q-0.3125 0 -0.609375 -0.078125q-0.28125 -0.078125 -0.5 -0.265625q-0.21875 -0.1875 -0.34375 -0.5q-0.125 -0.328125 -0.125 -0.828125l0 -4.59375l3.21875 0l0 -1.109375l-3.21875 0l0 -2.046875zm13.5859375 5.46875l0 -1.296875q-0.015625 -0.609375 -0.109375 -1.234375q-0.09375 -0.625 -0.296875 -1.203125q-0.21875 -0.578125 -0.53125 -1.078125q-0.3125 -0.515625 -0.75 -0.890625q-0.4375 -0.375 -1.015625 -0.578125q-0.5625 -0.21875 -1.265625 -0.21875q-0.703125 0 -1.28125 0.21875q-0.5625 0.203125 -1.0 0.578125q-0.4375 0.390625 -0.75 0.890625q-0.3125 0.5 -0.515625 1.078125q-0.21875 0.578125 -0.3125 1.203125q-0.09375 0.625 -0.109375 1.234375l0 1.296875q0.015625 0.609375 0.109375 1.234375q0.109375 0.609375 0.3125 1.1875q0.203125 0.578125 0.515625 1.078125q0.328125 0.5 0.765625 0.875q0.4375 0.375 1.0 0.59375q0.578125 0.21875 1.28125 0.21875q0.703125 0 1.265625 -0.21875q0.5625 -0.21875 1.0 -0.59375q0.4375 -0.375 0.75 -0.875q0.328125 -0.5 0.53125 -1.078125q0.203125 -0.578125 0.296875 -1.1875q0.09375 -0.625 0.109375 -1.234375zm-1.4375 -1.3125l0 1.3125q0 0.40625 -0.046875 0.859375q-0.046875 0.4375 -0.15625 0.859375q-0.109375 0.4375 -0.296875 0.84375q-0.1875 0.390625 -0.453125 0.6875q-0.28125 0.296875 -0.671875 0.484375q-0.390625 0.171875 -0.890625 0.171875q-0.515625 0 -0.90625 -0.171875q-0.375 -0.1875 -0.65625 -0.484375q-0.28125 -0.296875 -0.46875 -0.6875q-0.1875 -0.40625 -0.296875 -0.84375q-0.125 -0.4375 -0.171875 -0.875q-0.046875 -0.453125 -0.0625 -0.84375l0 -1.3125q0.015625 -0.40625 0.0625 -0.84375q0.046875 -0.4375 0.171875 -0.875q0.109375 -0.4375 0.296875 -0.828125q0.1875 -0.390625 0.46875 -0.703125q0.28125 -0.296875 0.65625 -0.46875q0.390625 -0.1875 0.890625 -0.1875q0.5 0 0.875 0.1875q0.390625 0.171875 0.671875 0.46875q0.28125 0.296875 0.46875 0.703125q0.1875 0.390625 0.3125 0.8125q0.109375 0.4375 0.15625 0.890625q0.046875 0.4375 0.046875 0.84375zm10.8046875 2.203125l0 -0.15625q0 -0.671875 -0.109375 -1.265625q-0.109375 -0.59375 -0.328125 -1.09375q-0.203125 -0.4375 -0.46875 -0.78125q-0.265625 -0.359375 -0.59375 -0.609375q-0.375 -0.265625 -0.84375 -0.40625q-0.453125 -0.15625 -1.0 -0.15625q-0.4375 0 -0.8125 0.09375q-0.375 0.078125 -0.6875 0.234375q-0.25 0.140625 -0.46875 0.328125q-0.21875 0.171875 -0.40625 0.40625l0 -4.453125l-1.4375 0l0 12.0l1.328125 0l0.0625 -0.96875q0.140625 0.1875 0.296875 0.34375q0.15625 0.140625 0.328125 0.265625q0.359375 0.25 0.8125 0.375q0.453125 0.140625 1.0 0.140625q0.46875 0 0.875 -0.125q0.421875 -0.109375 0.765625 -0.328125q0.46875 -0.296875 0.8125 -0.765625q0.34375 -0.46875 0.546875 -1.046875q0.15625 -0.453125 0.234375 -0.953125q0.09375 -0.515625 0.09375 -1.078125zm-1.453125 -0.15625l0 0.15625q0 0.375 -0.046875 0.734375q-0.046875 0.359375 -0.140625 0.671875q-0.125 0.421875 -0.34375 0.765625q-0.203125 0.328125 -0.515625 0.546875q-0.234375 0.171875 -0.53125 0.265625q-0.296875 0.078125 -0.65625 0.078125q-0.375 0 -0.6875 -0.09375q-0.3125 -0.09375 -0.5625 -0.28125q-0.25 -0.171875 -0.453125 -0.40625q-0.1875 -0.25 -0.328125 -0.53125l0 -3.6875q0.140625 -0.28125 0.328125 -0.515625q0.1875 -0.25 0.4375 -0.421875q0.25 -0.171875 0.5625 -0.265625q0.3125 -0.109375 0.6875 -0.109375q0.34375 0 0.625 0.078125q0.28125 0.078125 0.5 0.21875q0.328125 0.203125 0.546875 0.546875q0.234375 0.34375 0.375 0.75q0.109375 0.34375 0.15625 0.71875q0.046875 0.375 0.046875 0.78125zm4.8671875 -4.15625l0 1.25l2.8125 0l0 7.265625q0 0.59375 -0.15625 1.0q-0.140625 0.421875 -0.40625 0.671875q-0.265625 0.25 -0.625 0.34375q-0.359375 0.109375 -0.765625 0.109375q-0.109375 0 -0.3125 0q-0.1875 0 -0.390625 -0.015625q-0.203125 -0.015625 -0.40625 -0.03125q-0.203125 -0.015625 -0.34375 -0.046875l-0.09375 1.1875q0.1875 0.03125 0.359375 0.0625q0.1875 0.03125 0.375 0.046875q0.21875 0.015625 0.4375 0.015625q0.234375 0.015625 0.46875 0.015625q0.78125 0 1.390625 -0.234375q0.625 -0.21875 1.046875 -0.640625q0.421875 -0.421875 0.640625 -1.046875q0.234375 -0.625 0.234375 -1.4375l0 -8.515625l-4.265625 0zm2.609375 -2.234375q0 0.359375 0.203125 0.59375q0.21875 0.234375 0.65625 0.234375q0.4375 0 0.65625 -0.234375q0.21875 -0.234375 0.21875 -0.59375q0 -0.34375 -0.21875 -0.59375q-0.21875 -0.25 -0.65625 -0.25q-0.4375 0 -0.65625 0.25q-0.203125 0.25 -0.203125 0.59375zm9.7421875 10.84375q1.234375 0 2.078125 -0.5q0.84375 -0.5 1.265625 -1.140625l-0.890625 -0.6875q-0.390625 0.515625 -1.0 0.828125q-0.59375 0.3125 -1.375 0.3125q-0.578125 0 -1.0625 -0.21875q-0.484375 -0.21875 -0.828125 -0.59375q-0.34375 -0.359375 -0.53125 -0.828125q-0.1875 -0.46875 -0.25 -1.09375l0 -0.046875l6.046875 0l0 -0.65625q0 -0.875 -0.234375 -1.625q-0.21875 -0.765625 -0.671875 -1.328125q-0.453125 -0.5625 -1.140625 -0.875q-0.671875 -0.3125 -1.59375 -0.3125q-0.71875 0 -1.421875 0.296875q-0.6875 0.296875 -1.21875 0.84375q-0.546875 0.5625 -0.875 1.375q-0.328125 0.8125 -0.328125 1.828125l0 0.328125q0 0.890625 0.296875 1.640625q0.296875 0.75 0.828125 1.296875q0.53125 0.546875 1.265625 0.859375q0.75 0.296875 1.640625 0.296875zm-0.1875 -7.578125q0.5625 0 0.953125 0.203125q0.40625 0.203125 0.671875 0.53125q0.265625 0.328125 0.40625 0.78125q0.15625 0.4375 0.15625 0.828125l0 0.078125l-4.546875 0q0.09375 -0.59375 0.296875 -1.03125q0.21875 -0.453125 0.53125 -0.765625q0.3125 -0.3125 0.703125 -0.46875q0.390625 -0.15625 0.828125 -0.15625zm9.6640625 6.40625q-0.6875 0 -1.140625 -0.265625q-0.453125 -0.28125 -0.734375 -0.71875q-0.28125 -0.421875 -0.40625 -0.96875q-0.109375 -0.546875 -0.109375 -1.09375l0 -0.328125q0 -0.546875 0.109375 -1.078125q0.125 -0.546875 0.40625 -0.984375q0.28125 -0.4375 0.734375 -0.703125q0.46875 -0.265625 1.140625 -0.265625q0.4375 0 0.8125 0.15625q0.375 0.140625 0.65625 0.390625q0.265625 0.265625 0.421875 0.609375q0.171875 0.328125 0.171875 0.71875l1.375 0q0 -0.640625 -0.265625 -1.203125q-0.25 -0.5625 -0.703125 -0.984375q-0.46875 -0.40625 -1.09375 -0.640625q-0.625 -0.234375 -1.375 -0.234375q-0.96875 0 -1.6875 0.34375q-0.71875 0.34375 -1.1875 0.921875q-0.484375 0.578125 -0.734375 1.34375q-0.234375 0.765625 -0.234375 1.609375l0 0.328125q0 0.84375 0.234375 1.609375q0.25 0.75 0.734375 1.328125q0.46875 0.59375 1.1875 0.9375q0.71875 0.34375 1.6875 0.34375q0.671875 0 1.28125 -0.234375q0.625 -0.234375 1.09375 -0.625q0.484375 -0.375 0.765625 -0.890625q0.28125 -0.515625 0.296875 -1.078125l-1.375 0q0 0.359375 -0.1875 0.65625q-0.171875 0.296875 -0.453125 0.515625q-0.296875 0.234375 -0.671875 0.359375q-0.359375 0.125 -0.75 0.125zm9.4140625 -9.484375l-1.453125 0l0 2.046875l-2.21875 0l0 1.109375l2.21875 0l0 4.59375q0 0.78125 0.203125 1.34375q0.21875 0.546875 0.578125 0.890625q0.359375 0.34375 0.84375 0.515625q0.484375 0.15625 1.046875 0.15625q0.34375 0 0.671875 -0.03125q0.34375 -0.03125 0.65625 -0.09375q0.296875 -0.0625 0.546875 -0.140625q0.265625 -0.078125 0.453125 -0.1875l-0.203125 -1.03125q-0.140625 0.03125 -0.34375 0.078125q-0.203125 0.046875 -0.4375 0.078125q-0.25 0.046875 -0.5 0.078125q-0.25 0.015625 -0.484375 0.015625q-0.3125 0 -0.609375 -0.078125q-0.28125 -0.078125 -0.5 -0.265625q-0.21875 -0.1875 -0.34375 -0.5q-0.125 -0.328125 -0.125 -0.828125l0 -4.59375l3.21875 0l0 -1.109375l-3.21875 0l0 -2.046875z" fill-rule="nonzero"/></g><g filter="url(#shadowFilter-p.2)"><use xlink:href="#p.2" transform="matrix(1.0 0.0 0.0 1.0 0.0 2.0)"/></g><defs><filter id="shadowFilter-p.2" filterUnits="userSpaceOnUse"><feGaussianBlur in="SourceAlpha" stdDeviation="2.0" result="blur"/><feComponentTransfer in="blur" color-interpolation-filters="sRGB"><feFuncR type="linear" slope="0" intercept="0.0"/><feFuncG type="linear" slope="0" intercept="0.0"/><feFuncB type="linear" slope="0" intercept="0.0"/><feFuncA type="linear" slope="0.5" intercept="0"/></feComponentTransfer></filter></defs><g id="p.2"><path fill="#fff2cc" d="m146.96588 122.703415l196.06299 0l0 42.015747l-196.06299 0z" fill-rule="evenodd"/><path stroke="#000000" stroke-width="1.0" stroke-linejoin="round" stroke-linecap="butt" d="m146.96588 122.703415l196.06299 0l0 42.015747l-196.06299 0z" fill-rule="evenodd"/><path fill="#000000" d="m208.93488 141.01816l0 1.25l2.8125 0l0 7.265625q0 0.59375 -0.15625 1.0q-0.140625 0.421875 -0.40625 0.671875q-0.265625 0.25 -0.625 0.34375q-0.359375 0.109375 -0.765625 0.109375q-0.109375 0 -0.3125 0q-0.1875 0 -0.390625 -0.015625q-0.203125 -0.015625 -0.40625 -0.03125q-0.203125 -0.015625 -0.34375 -0.046875l-0.09375 1.1875q0.1875 0.03125 0.359375 0.0625q0.1875 0.03125 0.375 0.046875q0.21875 0.015625 0.4375 0.015625q0.234375 0.015625 0.46875 0.015625q0.78125 0 1.390625 -0.234375q0.625 -0.21875 1.046875 -0.640625q0.421875 -0.421875 0.640625 -1.046875q0.234375 -0.625 0.234375 -1.4375l0 -8.515625l-4.265625 0zm2.609375 -2.234375q0 0.359375 0.203125 0.59375q0.21875 0.234375 0.65625 0.234375q0.4375 0 0.65625 -0.234375q0.21875 -0.234375 0.21875 -0.59375q0 -0.34375 -0.21875 -0.59375q-0.21875 -0.25 -0.65625 -0.25q-0.4375 0 -0.65625 0.25q-0.203125 0.25 -0.203125 0.59375zm11.6328125 8.4375q0 0.203125 -0.078125 0.390625q-0.078125 0.171875 -0.234375 0.328125q-0.234375 0.234375 -0.671875 0.375q-0.421875 0.140625 -1.0 0.140625q-0.375 0 -0.75 -0.078125q-0.375 -0.078125 -0.671875 -0.265625q-0.3125 -0.1875 -0.53125 -0.484375q-0.203125 -0.3125 -0.234375 -0.765625l-1.4375 0q0 0.546875 0.234375 1.046875q0.25 0.5 0.71875 0.875q0.46875 0.375 1.140625 0.609375q0.671875 0.234375 1.53125 0.234375q0.75 0 1.375 -0.171875q0.640625 -0.1875 1.09375 -0.515625q0.453125 -0.328125 0.703125 -0.78125q0.25 -0.46875 0.25 -1.03125q0 -0.53125 -0.21875 -0.921875q-0.21875 -0.40625 -0.640625 -0.703125q-0.421875 -0.296875 -1.046875 -0.515625q-0.609375 -0.21875 -1.390625 -0.375q-0.59375 -0.125 -0.984375 -0.25q-0.390625 -0.125 -0.609375 -0.28125q-0.234375 -0.15625 -0.328125 -0.34375q-0.09375 -0.203125 -0.09375 -0.453125q0 -0.234375 0.109375 -0.453125q0.125 -0.234375 0.359375 -0.40625q0.21875 -0.171875 0.5625 -0.265625q0.359375 -0.109375 0.8125 -0.109375q0.453125 0 0.796875 0.125q0.359375 0.125 0.609375 0.328125q0.25 0.203125 0.390625 0.46875q0.140625 0.25 0.140625 0.53125l1.453125 0q0 -0.5625 -0.25 -1.03125q-0.234375 -0.484375 -0.671875 -0.84375q-0.4375 -0.359375 -1.0625 -0.5625q-0.625 -0.203125 -1.40625 -0.203125q-0.71875 0 -1.328125 0.203125q-0.609375 0.1875 -1.046875 0.515625q-0.4375 0.34375 -0.6875 0.796875q-0.234375 0.4375 -0.234375 0.953125q0 0.53125 0.234375 0.921875q0.234375 0.390625 0.671875 0.6875q0.421875 0.296875 1.015625 0.515625q0.59375 0.203125 1.328125 0.34375q0.59375 0.125 0.984375 0.265625q0.40625 0.140625 0.640625 0.3125q0.25 0.171875 0.34375 0.390625q0.109375 0.203125 0.109375 0.453125zm11.3828125 -2.78125l0 -1.296875q-0.015625 -0.609375 -0.109375 -1.234375q-0.09375 -0.625 -0.296875 -1.203125q-0.21875 -0.578125 -0.53125 -1.078125q-0.3125 -0.515625 -0.75 -0.890625q-0.4375 -0.375 -1.015625 -0.578125q-0.5625 -0.21875 -1.265625 -0.21875q-0.703125 0 -1.28125 0.21875q-0.5625 0.203125 -1.0 0.578125q-0.4375 0.390625 -0.75 0.890625q-0.3125 0.5 -0.515625 1.078125q-0.21875 0.578125 -0.3125 1.203125q-0.09375 0.625 -0.109375 1.234375l0 1.296875q0.015625 0.609375 0.109375 1.234375q0.109375 0.609375 0.3125 1.1875q0.203125 0.578125 0.515625 1.078125q0.328125 0.5 0.765625 0.875q0.4375 0.375 1.0 0.59375q0.578125 0.21875 1.28125 0.21875q0.703125 0 1.265625 -0.21875q0.5625 -0.21875 1.0 -0.59375q0.4375 -0.375 0.75 -0.875q0.328125 -0.5 0.53125 -1.078125q0.203125 -0.578125 0.296875 -1.1875q0.09375 -0.625 0.109375 -1.234375zm-1.4375 -1.3125l0 1.3125q0 0.40625 -0.046875 0.859375q-0.046875 0.4375 -0.15625 0.859375q-0.109375 0.4375 -0.296875 0.84375q-0.1875 0.390625 -0.453125 0.6875q-0.28125 0.296875 -0.671875 0.484375q-0.390625 0.171875 -0.890625 0.171875q-0.515625 0 -0.90625 -0.171875q-0.375 -0.1875 -0.65625 -0.484375q-0.28125 -0.296875 -0.46875 -0.6875q-0.1875 -0.40625 -0.296875 -0.84375q-0.125 -0.4375 -0.171875 -0.875q-0.046875 -0.453125 -0.0625 -0.84375l0 -1.3125q0.015625 -0.40625 0.0625 -0.84375q0.046875 -0.4375 0.171875 -0.875q0.109375 -0.4375 0.296875 -0.828125q0.1875 -0.390625 0.46875 -0.703125q0.28125 -0.296875 0.65625 -0.46875q0.390625 -0.1875 0.890625 -0.1875q0.5 0 0.875 0.1875q0.390625 0.171875 0.671875 0.46875q0.28125 0.296875 0.46875 0.703125q0.1875 0.390625 0.3125 0.8125q0.109375 0.4375 0.15625 0.890625q0.046875 0.4375 0.046875 0.84375zm10.8046875 2.203125l0 -0.15625q0 -0.671875 -0.109375 -1.265625q-0.109375 -0.59375 -0.328125 -1.09375q-0.203125 -0.4375 -0.46875 -0.78125q-0.265625 -0.359375 -0.59375 -0.609375q-0.375 -0.265625 -0.84375 -0.40625q-0.453125 -0.15625 -1.0 -0.15625q-0.4375 0 -0.8125 0.09375q-0.375 0.078125 -0.6875 0.234375q-0.25 0.140625 -0.46875 0.328125q-0.21875 0.171875 -0.40625 0.40625l0 -4.453125l-1.4375 0l0 12.0l1.328125 0l0.0625 -0.96875q0.140625 0.1875 0.296875 0.34375q0.15625 0.140625 0.328125 0.265625q0.359375 0.25 0.8125 0.375q0.453125 0.140625 1.0 0.140625q0.46875 0 0.875 -0.125q0.421875 -0.109375 0.765625 -0.328125q0.46875 -0.296875 0.8125 -0.765625q0.34375 -0.46875 0.546875 -1.046875q0.15625 -0.453125 0.234375 -0.953125q0.09375 -0.515625 0.09375 -1.078125zm-1.453125 -0.15625l0 0.15625q0 0.375 -0.046875 0.734375q-0.046875 0.359375 -0.140625 0.671875q-0.125 0.421875 -0.34375 0.765625q-0.203125 0.328125 -0.515625 0.546875q-0.234375 0.171875 -0.53125 0.265625q-0.296875 0.078125 -0.65625 0.078125q-0.375 0 -0.6875 -0.09375q-0.3125 -0.09375 -0.5625 -0.28125q-0.25 -0.171875 -0.453125 -0.40625q-0.1875 -0.25 -0.328125 -0.53125l0 -3.6875q0.140625 -0.28125 0.328125 -0.515625q0.1875 -0.25 0.4375 -0.421875q0.25 -0.171875 0.5625 -0.265625q0.3125 -0.109375 0.6875 -0.109375q0.34375 0 0.625 0.078125q0.28125 0.078125 0.5 0.21875q0.328125 0.203125 0.546875 0.546875q0.234375 0.34375 0.375 0.75q0.109375 0.34375 0.15625 0.71875q0.046875 0.375 0.046875 0.78125zm4.8671875 -4.15625l0 1.25l2.8125 0l0 7.265625q0 0.59375 -0.15625 1.0q-0.140625 0.421875 -0.40625 0.671875q-0.265625 0.25 -0.625 0.34375q-0.359375 0.109375 -0.765625 0.109375q-0.109375 0 -0.3125 0q-0.1875 0 -0.390625 -0.015625q-0.203125 -0.015625 -0.40625 -0.03125q-0.203125 -0.015625 -0.34375 -0.046875l-0.09375 1.1875q0.1875 0.03125 0.359375 0.0625q0.1875 0.03125 0.375 0.046875q0.21875 0.015625 0.4375 0.015625q0.234375 0.015625 0.46875 0.015625q0.78125 0 1.390625 -0.234375q0.625 -0.21875 1.046875 -0.640625q0.421875 -0.421875 0.640625 -1.046875q0.234375 -0.625 0.234375 -1.4375l0 -8.515625l-4.265625 0zm2.609375 -2.234375q0 0.359375 0.203125 0.59375q0.21875 0.234375 0.65625 0.234375q0.4375 0 0.65625 -0.234375q0.21875 -0.234375 0.21875 -0.59375q0 -0.34375 -0.21875 -0.59375q-0.21875 -0.25 -0.65625 -0.25q-0.4375 0 -0.65625 0.25q-0.203125 0.25 -0.203125 0.59375zm9.7421875 10.84375q1.234375 0 2.078125 -0.5q0.84375 -0.5 1.265625 -1.140625l-0.890625 -0.6875q-0.390625 0.515625 -1.0 0.828125q-0.59375 0.3125 -1.375 0.3125q-0.578125 0 -1.0625 -0.21875q-0.484375 -0.21875 -0.828125 -0.59375q-0.34375 -0.359375 -0.53125 -0.828125q-0.1875 -0.46875 -0.25 -1.09375l0 -0.046875l6.046875 0l0 -0.65625q0 -0.875 -0.234375 -1.625q-0.21875 -0.765625 -0.671875 -1.328125q-0.453125 -0.5625 -1.140625 -0.875q-0.671875 -0.3125 -1.59375 -0.3125q-0.71875 0 -1.421875 0.296875q-0.6875 0.296875 -1.21875 0.84375q-0.546875 0.5625 -0.875 1.375q-0.328125 0.8125 -0.328125 1.828125l0 0.328125q0 0.890625 0.296875 1.640625q0.296875 0.75 0.828125 1.296875q0.53125 0.546875 1.265625 0.859375q0.75 0.296875 1.640625 0.296875zm-0.1875 -7.578125q0.5625 0 0.953125 0.203125q0.40625 0.203125 0.671875 0.53125q0.265625 0.328125 0.40625 0.78125q0.15625 0.4375 0.15625 0.828125l0 0.078125l-4.546875 0q0.09375 -0.59375 0.296875 -1.03125q0.21875 -0.453125 0.53125 -0.765625q0.3125 -0.3125 0.703125 -0.46875q0.390625 -0.15625 0.828125 -0.15625zm9.6640625 6.40625q-0.6875 0 -1.140625 -0.265625q-0.453125 -0.28125 -0.734375 -0.71875q-0.28125 -0.421875 -0.40625 -0.96875q-0.109375 -0.546875 -0.109375 -1.09375l0 -0.328125q0 -0.546875 0.109375 -1.078125q0.125 -0.546875 0.40625 -0.984375q0.28125 -0.4375 0.734375 -0.703125q0.46875 -0.265625 1.140625 -0.265625q0.4375 0 0.8125 0.15625q0.375 0.140625 0.65625 0.390625q0.265625 0.265625 0.421875 0.609375q0.171875 0.328125 0.171875 0.71875l1.375 0q0 -0.640625 -0.265625 -1.203125q-0.25 -0.5625 -0.703125 -0.984375q-0.46875 -0.40625 -1.09375 -0.640625q-0.625 -0.234375 -1.375 -0.234375q-0.96875 0 -1.6875 0.34375q-0.71875 0.34375 -1.1875 0.921875q-0.484375 0.578125 -0.734375 1.34375q-0.234375 0.765625 -0.234375 1.609375l0 0.328125q0 0.84375 0.234375 1.609375q0.25 0.75 0.734375 1.328125q0.46875 0.59375 1.1875 0.9375q0.71875 0.34375 1.6875 0.34375q0.671875 0 1.28125 -0.234375q0.625 -0.234375 1.09375 -0.625q0.484375 -0.375 0.765625 -0.890625q0.28125 -0.515625 0.296875 -1.078125l-1.375 0q0 0.359375 -0.1875 0.65625q-0.171875 0.296875 -0.453125 0.515625q-0.296875 0.234375 -0.671875 0.359375q-0.359375 0.125 -0.75 0.125zm9.4140625 -9.484375l-1.453125 0l0 2.046875l-2.21875 0l0 1.109375l2.21875 0l0 4.59375q0 0.78125 0.203125 1.34375q0.21875 0.546875 0.578125 0.890625q0.359375 0.34375 0.84375 0.515625q0.484375 0.15625 1.046875 0.15625q0.34375 0 0.671875 -0.03125q0.34375 -0.03125 0.65625 -0.09375q0.296875 -0.0625 0.546875 -0.140625q0.265625 -0.078125 0.453125 -0.1875l-0.203125 -1.03125q-0.140625 0.03125 -0.34375 0.078125q-0.203125 0.046875 -0.4375 0.078125q-0.25 0.046875 -0.5 0.078125q-0.25 0.015625 -0.484375 0.015625q-0.3125 0 -0.609375 -0.078125q-0.28125 -0.078125 -0.5 -0.265625q-0.21875 -0.1875 -0.34375 -0.5q-0.125 -0.328125 -0.125 -0.828125l0 -4.59375l3.21875 0l0 -1.109375l-3.21875 0l0 -2.046875z" fill-rule="nonzero"/></g><path fill="#000000" fill-opacity="0.0" d="m11.149607 9.506561l208.50394 0l0 42.015747l-208.50394 0z" fill-rule="evenodd"/><path fill="#000000" d="m31.108606 36.274437l1.4999981 0l0 -0.125q-0.140625 -0.359375 -0.21875 -0.828125q-0.078125 -0.46875 -0.078125 -0.890625l0 -3.9375q0 -0.703125 -0.265625 -1.234375q-0.2499981 -0.53125 -0.6874981 -0.890625q-0.453125 -0.359375 -1.078125 -0.53125q-0.609375 -0.171875 -1.328125 -0.171875q-0.796875 0 -1.421875 0.21875q-0.609375 0.21875 -1.046875 0.5625q-0.4375 0.359375 -0.671875 0.8125q-0.21875 0.4375 -0.234375 0.90625l1.453125 0q0 -0.265625 0.125 -0.515625q0.140625 -0.25 0.375 -0.421875q0.234375 -0.1875 0.5625 -0.296875q0.34375 -0.109375 0.78125 -0.109375q0.453125 0 0.828125 0.125q0.375 0.109375 0.625 0.328125q0.265625 0.21875 0.40625 0.53125q0.140625 0.296875 0.140625 0.671875l0 0.671875l-1.578125 0q-0.890625 0 -1.609375 0.171875q-0.703125 0.171875 -1.21875 0.515625q-0.5 0.34375 -0.78125 0.875q-0.28125 0.515625 -0.28125 1.21875q0 0.53125 0.203125 0.984375q0.21875 0.453125 0.59375 0.78125q0.375 0.34375 0.921875 0.546875q0.546875 0.1875 1.21875 0.1875q0.40625 0 0.765625 -0.09375q0.375 -0.078125 0.703125 -0.234375q0.328125 -0.140625 0.59375 -0.328125q0.265625 -0.203125 0.484375 -0.421875q0.03125 0.265625 0.078125 0.515625q0.046875 0.234375 0.140625 0.40625zm-2.5625 -1.109375q-0.421875 0 -0.75 -0.109375q-0.3125 -0.109375 -0.515625 -0.296875q-0.21875 -0.1875 -0.328125 -0.453125q-0.09375 -0.265625 -0.09375 -0.578125q0 -0.328125 0.109375 -0.578125q0.125 -0.265625 0.359375 -0.453125q0.328125 -0.265625 0.890625 -0.390625q0.5625 -0.140625 1.3125 -0.140625l1.34375 0l0 1.71875q-0.125 0.25 -0.34375 0.484375q-0.21875 0.21875 -0.515625 0.40625q-0.3125 0.171875 -0.6875 0.28125q-0.359375 0.109375 -0.78125 0.109375zm6.3359356 -3.1875l0 0.15625q0 0.90625 0.234375 1.703125q0.25 0.78125 0.6875 1.359375q0.4375 0.578125 1.046875 0.90625q0.625 0.328125 1.390625 0.328125q0.78125 0 1.359375 -0.265625q0.59375 -0.265625 1.015625 -0.78125l0.0625 0.890625l1.328125 0l0 -12.0l-1.4375 0l0 4.375q-0.421875 -0.484375 -0.984375 -0.734375q-0.5625 -0.25 -1.328125 -0.25q-0.765625 0 -1.390625 0.328125q-0.625 0.3125 -1.0625 0.875q-0.453125 0.578125 -0.6875 1.375q-0.234375 0.78125 -0.234375 1.734375zm1.4375 0.15625l0 -0.15625q0 -0.625 0.125 -1.171875q0.140625 -0.5625 0.421875 -1.0q0.28125 -0.421875 0.703125 -0.671875q0.4375 -0.25 1.046875 -0.25q0.71875 0 1.1875 0.34375q0.484375 0.328125 0.765625 0.84375l0 3.921875q-0.28125 0.546875 -0.765625 0.875q-0.46875 0.328125 -1.203125 0.328125q-0.59375 0 -1.03125 -0.234375q-0.421875 -0.25 -0.703125 -0.671875q-0.28125 -0.421875 -0.421875 -0.96875q-0.125 -0.5625 -0.125 -1.1875zm8.1640625 -0.15625l0 0.15625q0 0.90625 0.234375 1.703125q0.25 0.78125 0.6875 1.359375q0.4375 0.578125 1.046875 0.90625q0.625 0.328125 1.390625 0.328125q0.78125 0 1.359375 -0.265625q0.59375 -0.265625 1.015625 -0.78125l0.0625 0.890625l1.328125 0l0 -12.0l-1.4375 0l0 4.375q-0.421875 -0.484375 -0.984375 -0.734375q-0.5625 -0.25 -1.328125 -0.25q-0.765625 0 -1.390625 0.328125q-0.625 0.3125 -1.0625 0.875q-0.453125 0.578125 -0.6875 1.375q-0.234375 0.78125 -0.234375 1.734375zm1.4375 0.15625l0 -0.15625q0 -0.625 0.125 -1.171875q0.140625 -0.5625 0.421875 -1.0q0.28125 -0.421875 0.703125 -0.671875q0.4375 -0.25 1.046875 -0.25q0.71875 0 1.1875 0.34375q0.484375 0.328125 0.765625 0.84375l0 3.921875q-0.28125 0.546875 -0.765625 0.875q-0.46875 0.328125 -1.203125 0.328125q-0.59375 0 -1.03125 -0.234375q-0.421875 -0.25 -0.703125 -0.671875q-0.28125 -0.421875 -0.421875 -0.96875q-0.125 -0.5625 -0.125 -1.1875zm13.9765625 -4.46875q-0.921875 0 -1.65625 0.40625q-0.71875 0.390625 -1.234375 1.09375l0 -0.21875l-0.0625 -1.125l-1.375 0l0 8.453125l1.453125 0l0 -5.421875q0.140625 -0.390625 0.34375 -0.703125q0.21875 -0.328125 0.515625 -0.546875q0.3125 -0.25 0.734375 -0.375q0.4375 -0.125 0.96875 -0.125q0.421875 0 0.796875 0.046875q0.375 0.03125 0.796875 0.125l0.203125 -1.40625q-0.21875 -0.09375 -0.65625 -0.140625q-0.4375 -0.0625 -0.828125 -0.0625zm3.6484375 4.296875l0 0.171875q0 0.921875 0.265625 1.703125q0.265625 0.78125 0.765625 1.359375q0.5 0.578125 1.203125 0.90625q0.71875 0.328125 1.625 0.328125q0.890625 0 1.59375 -0.328125q0.71875 -0.328125 1.21875 -0.90625q0.484375 -0.578125 0.75 -1.359375q0.265625 -0.78125 0.265625 -1.703125l0 -0.171875q0 -0.90625 -0.265625 -1.6875q-0.265625 -0.796875 -0.75 -1.375q-0.5 -0.578125 -1.21875 -0.90625q-0.71875 -0.328125 -1.609375 -0.328125q-0.890625 0 -1.609375 0.328125q-0.703125 0.328125 -1.203125 0.90625q-0.5 0.578125 -0.765625 1.375q-0.265625 0.78125 -0.265625 1.6875zm1.453125 0.171875l0 -0.171875q0 -0.609375 0.140625 -1.171875q0.15625 -0.578125 0.453125 -1.0q0.296875 -0.4375 0.734375 -0.6875q0.453125 -0.25 1.0625 -0.25q0.59375 0 1.046875 0.25q0.453125 0.25 0.75 0.6875q0.296875 0.421875 0.453125 1.0q0.15625 0.5625 0.15625 1.171875l0 0.171875q0 0.625 -0.15625 1.203125q-0.140625 0.5625 -0.4375 0.984375q-0.3125 0.4375 -0.765625 0.6875q-0.4375 0.25 -1.03125 0.25q-0.609375 0 -1.0625 -0.25q-0.453125 -0.25 -0.75 -0.6875q-0.296875 -0.421875 -0.453125 -0.984375q-0.140625 -0.578125 -0.140625 -1.203125zm10.7109375 4.140625l1.453125 0l0 -7.34375l3.265625 0l0 -1.109375l-3.265625 0l0 -0.59375q0 -0.53125 0.140625 -0.921875q0.140625 -0.40625 0.40625 -0.65625q0.25 -0.25 0.625 -0.359375q0.375 -0.125 0.875 -0.125q0.484375 0 0.90625 0.078125q0.421875 0.078125 0.75 0.1875l0.171875 -1.1875q-0.203125 -0.0625 -0.40625 -0.09375q-0.1875 -0.046875 -0.390625 -0.09375q-0.296875 -0.046875 -0.609375 -0.078125q-0.296875 -0.046875 -0.609375 -0.046875q-0.75 0 -1.359375 0.21875q-0.609375 0.203125 -1.03125 0.625q-0.4375 0.40625 -0.6875 1.03125q-0.234375 0.609375 -0.234375 1.421875l0 0.59375l-2.328125 0l0 1.109375l2.328125 0l0 7.34375zm8.8828125 -4.625l0 0.078125q0 1.125 0.171875 2.109375q0.171875 0.984375 0.46875 1.8125q0.296875 0.859375 0.671875 1.546875q0.390625 0.6875 0.828125 1.234375q0.421875 0.546875 0.84375 0.921875q0.4375 0.375 0.828125 0.59375l0.3125 -0.875q-0.328125 -0.265625 -0.640625 -0.625q-0.3125 -0.359375 -0.609375 -0.828125q-0.296875 -0.5 -0.5625 -1.125q-0.265625 -0.625 -0.46875 -1.34375q-0.1875 -0.71875 -0.296875 -1.5625q-0.109375 -0.859375 -0.109375 -1.84375l0 -0.109375q0 -1.015625 0.109375 -1.890625q0.125 -0.890625 0.34375 -1.625q0.21875 -0.8125 0.546875 -1.484375q0.328125 -0.6875 0.6875 -1.203125q0.234375 -0.328125 0.484375 -0.59375q0.265625 -0.265625 0.515625 -0.453125l-0.3125 -0.953125q-0.390625 0.21875 -0.828125 0.609375q-0.421875 0.375 -0.84375 0.921875q-0.421875 0.53125 -0.8125 1.234375q-0.390625 0.6875 -0.6875 1.53125q-0.296875 0.84375 -0.46875 1.828125q-0.171875 0.984375 -0.171875 2.09375zm13.7265625 4.625l1.5 0l0 -0.125q-0.140625 -0.359375 -0.21875 -0.828125q-0.078125 -0.46875 -0.078125 -0.890625l0 -3.9375q0 -0.703125 -0.265625 -1.234375q-0.25 -0.53125 -0.6875 -0.890625q-0.453125 -0.359375 -1.078125 -0.53125q-0.609375 -0.171875 -1.328125 -0.171875q-0.796875 0 -1.421875 0.21875q-0.609375 0.21875 -1.046875 0.5625q-0.4375 0.359375 -0.671875 0.8125q-0.21875 0.4375 -0.234375 0.90625l1.453125 0q0 -0.265625 0.125 -0.515625q0.140625 -0.25 0.375 -0.421875q0.234375 -0.1875 0.5625 -0.296875q0.34375 -0.109375 0.78125 -0.109375q0.453125 0 0.828125 0.125q0.375 0.109375 0.625 0.328125q0.265625 0.21875 0.40625 0.53125q0.140625 0.296875 0.140625 0.671875l0 0.671875l-1.578125 0q-0.890625 0 -1.609375 0.171875q-0.703125 0.171875 -1.21875 0.515625q-0.5 0.34375 -0.78125 0.875q-0.28125 0.515625 -0.28125 1.21875q0 0.53125 0.203125 0.984375q0.21875 0.453125 0.59375 0.78125q0.375 0.34375 0.921875 0.546875q0.546875 0.1875 1.21875 0.1875q0.40625 0 0.765625 -0.09375q0.375 -0.078125 0.703125 -0.234375q0.328125 -0.140625 0.59375 -0.328125q0.265625 -0.203125 0.484375 -0.421875q0.03125 0.265625 0.078125 0.515625q0.046875 0.234375 0.140625 0.40625zm-2.5625 -1.109375q-0.421875 0 -0.75 -0.109375q-0.3125 -0.109375 -0.515625 -0.296875q-0.21875 -0.1875 -0.328125 -0.453125q-0.09375 -0.265625 -0.09375 -0.578125q0 -0.328125 0.109375 -0.578125q0.125 -0.265625 0.359375 -0.453125q0.328125 -0.265625 0.890625 -0.390625q0.5625 -0.140625 1.3125 -0.140625l1.34375 0l0 1.71875q-0.125 0.25 -0.34375 0.484375q-0.21875 0.21875 -0.515625 0.40625q-0.3125 0.171875 -0.6875 0.28125q-0.359375 0.109375 -0.78125 0.109375zm12.1484375 -7.5q-0.921875 0 -1.65625 0.40625q-0.71875 0.390625 -1.234375 1.09375l0 -0.21875l-0.0625 -1.125l-1.375 0l0 8.453125l1.453125 0l0 -5.421875q0.140625 -0.390625 0.34375 -0.703125q0.21875 -0.328125 0.515625 -0.546875q0.3125 -0.25 0.734375 -0.375q0.4375 -0.125 0.96875 -0.125q0.421875 0 0.796875 0.046875q0.375 0.03125 0.796875 0.125l0.203125 -1.40625q-0.21875 -0.09375 -0.65625 -0.140625q-0.4375 -0.0625 -0.828125 -0.0625zm9.6015625 0q-0.921875 0 -1.65625 0.40625q-0.71875 0.390625 -1.234375 1.09375l0 -0.21875l-0.0625 -1.125l-1.375 0l0 8.453125l1.453125 0l0 -5.421875q0.140625 -0.390625 0.34375 -0.703125q0.21875 -0.328125 0.515625 -0.546875q0.3125 -0.25 0.734375 -0.375q0.4375 -0.125 0.96875 -0.125q0.421875 0 0.796875 0.046875q0.375 0.03125 0.796875 0.125l0.203125 -1.40625q-0.21875 -0.09375 -0.65625 -0.140625q-0.4375 -0.0625 -0.828125 -0.0625zm9.6171875 8.609375l1.5000076 0l0 -0.125q-0.140625 -0.359375 -0.21875 -0.828125q-0.078125 -0.46875 -0.078125 -0.890625l0 -3.9375q0 -0.703125 -0.265625 -1.234375q-0.25000763 -0.53125 -0.6875076 -0.890625q-0.453125 -0.359375 -1.078125 -0.53125q-0.609375 -0.171875 -1.328125 -0.171875q-0.796875 0 -1.421875 0.21875q-0.609375 0.21875 -1.046875 0.5625q-0.4375 0.359375 -0.671875 0.8125q-0.21875 0.4375 -0.234375 0.90625l1.453125 0q0 -0.265625 0.125 -0.515625q0.140625 -0.25 0.375 -0.421875q0.234375 -0.1875 0.5625 -0.296875q0.34375 -0.109375 0.78125 -0.109375q0.453125 0 0.828125 0.125q0.375 0.109375 0.625 0.328125q0.265625 0.21875 0.40625 0.53125q0.140625 0.296875 0.140625 0.671875l0 0.671875l-1.578125 0q-0.890625 0 -1.609375 0.171875q-0.703125 0.171875 -1.21875 0.515625q-0.5 0.34375 -0.78125 0.875q-0.28125 0.515625 -0.28125 1.21875q0 0.53125 0.203125 0.984375q0.21875 0.453125 0.59375 0.78125q0.375 0.34375 0.921875 0.546875q0.546875 0.1875 1.21875 0.1875q0.40625 0 0.765625 -0.09375q0.375 -0.078125 0.703125 -0.234375q0.328125 -0.140625 0.59375 -0.328125q0.265625 -0.203125 0.484375 -0.421875q0.03125 0.265625 0.078125 0.515625q0.046875 0.234375 0.140625 0.40625zm-2.5625 -1.109375q-0.421875 0 -0.75 -0.109375q-0.3125 -0.109375 -0.515625 -0.296875q-0.21875 -0.1875 -0.328125 -0.453125q-0.09375 -0.265625 -0.09375 -0.578125q0 -0.328125 0.109375 -0.578125q0.125 -0.265625 0.359375 -0.453125q0.328125 -0.265625 0.890625 -0.390625q0.5625 -0.140625 1.3125 -0.140625l1.34375 0l0 1.71875q-0.125 0.25 -0.34375 0.484375q-0.21875 0.21875 -0.515625 0.40625q-0.3125 0.171875 -0.6875 0.28125q-0.359375 0.109375 -0.78125 0.109375zm7.28907 4.53125q0.5625 0 1.0 -0.21875q0.4375 -0.203125 0.765625 -0.515625q0.328125 -0.3125 0.5625 -0.6875q0.234375 -0.359375 0.375 -0.6875l4.296875 -9.765625l-1.625 0l-2.171875 5.484375l-0.40625 0.984375l-0.375 -1.015625l-2.3125 -5.453125l-1.625 0l3.640625 8.046875l-0.578125 1.140625q-0.078125 0.15625 -0.21875 0.390625q-0.125 0.25 -0.3125 0.46875q-0.203125 0.234375 -0.453125 0.390625q-0.234375 0.171875 -0.53125 0.171875q-0.109375 0 -0.3125 -0.015625q-0.1875 -0.015625 -0.375 -0.03125l-0.234375 1.1875q0.140625 0.03125 0.40625 0.078125q0.28125 0.046875 0.484375 0.046875zm8.8984375 -3.421875l3.640625 0q0.734375 -0.015625 1.40625 -0.234375q0.6875 -0.21875 1.21875 -0.625q0.515625 -0.40625 0.828125 -1.015625q0.3125 -0.609375 0.3125 -1.40625q0 -0.515625 -0.15625 -0.953125q-0.15625 -0.4375 -0.421875 -0.78125q-0.265625 -0.328125 -0.671875 -0.59375q-0.390625 -0.265625 -0.8125 -0.359375l0 -0.03125q0.40625 -0.171875 0.703125 -0.375q0.296875 -0.203125 0.53125 -0.5q0.234375 -0.296875 0.375 -0.65625q0.140625 -0.375 0.140625 -0.8125q0.015625 -0.796875 -0.296875 -1.359375q-0.3125 -0.578125 -0.84375 -0.953125q-0.515625 -0.359375 -1.1875 -0.53125q-0.671875 -0.1875 -1.375 -0.1875l-3.390625 0l0 11.375zm1.453125 -5.328125l2.3125 0q0.453125 0.015625 0.84375 0.15625q0.40625 0.140625 0.703125 0.40625q0.296875 0.265625 0.46875 0.640625q0.171875 0.375 0.15625 0.859375q0 0.46875 -0.1875 0.84375q-0.171875 0.375 -0.484375 0.640625q-0.3125 0.25 -0.71875 0.40625q-0.40625 0.140625 -0.859375 0.140625l-2.234375 0l0 -4.09375zm0 -1.203125l0 -3.609375l1.984375 0q0.421875 0 0.8125 0.109375q0.40625 0.09375 0.71875 0.3125q0.3125 0.21875 0.484375 0.5625q0.1875 0.328125 0.1875 0.796875q0 0.453125 -0.1875 0.796875q-0.1875 0.328125 -0.484375 0.546875q-0.3125 0.234375 -0.703125 0.359375q-0.390625 0.125 -0.796875 0.125l-2.015625 0zm13.7421875 6.53125l1.3125 0l0 -8.453125l-1.453125 0l0 6.0625q-0.125 0.265625 -0.296875 0.5q-0.171875 0.234375 -0.40625 0.390625q-0.28125 0.203125 -0.671875 0.328125q-0.375 0.109375 -0.859375 0.109375q-0.421875 0 -0.734375 -0.109375q-0.3125 -0.109375 -0.53125 -0.390625q-0.21875 -0.265625 -0.328125 -0.71875q-0.109375 -0.453125 -0.109375 -1.140625l0 -5.03125l-1.453125 0l0 5.015625q0 0.953125 0.203125 1.625q0.21875 0.671875 0.59375 1.109375q0.390625 0.4375 0.921875 0.65625q0.546875 0.203125 1.203125 0.203125q0.828125 0 1.453125 -0.34375q0.640625 -0.359375 1.0625 -0.984375l0.09375 1.171875zm6.1796875 0l1.453125 0l0 -7.34375l3.265625 0l0 -1.109375l-3.265625 0l0 -0.59375q0 -0.53125 0.140625 -0.921875q0.140625 -0.40625 0.40625 -0.65625q0.25 -0.25 0.625 -0.359375q0.375 -0.125 0.875 -0.125q0.484375 0 0.90625 0.078125q0.421875 0.078125 0.75 0.1875l0.171875 -1.1875q-0.203125 -0.0625 -0.40625 -0.09375q-0.1875 -0.046875 -0.390625 -0.09375q-0.296875 -0.046875 -0.609375 -0.078125q-0.296875 -0.046875 -0.609375 -0.046875q-0.75 0 -1.359375 0.21875q-0.609375 0.203125 -1.03125 0.625q-0.4375 0.40625 -0.6875 1.03125q-0.234375 0.609375 -0.234375 1.421875l0 0.59375l-2.328125 0l0 1.109375l2.328125 0l0 7.34375zm9.6015625 0l1.453125 0l0 -7.34375l3.265625 0l0 -1.109375l-3.265625 0l0 -0.59375q0 -0.53125 0.140625 -0.921875q0.140625 -0.40625 0.40625 -0.65625q0.25 -0.25 0.625 -0.359375q0.375 -0.125 0.875 -0.125q0.484375 0 0.90625 0.078125q0.421875 0.078125 0.75 0.1875l0.171875 -1.1875q-0.203125 -0.0625 -0.40625 -0.09375q-0.1875 -0.046875 -0.390625 -0.09375q-0.296875 -0.046875 -0.609375 -0.078125q-0.296875 -0.046875 -0.609375 -0.046875q-0.75 0 -1.359375 0.21875q-0.609375 0.203125 -1.03125 0.625q-0.4375 0.40625 -0.6875 1.03125q-0.234375 0.609375 -0.234375 1.421875l0 0.59375l-2.328125 0l0 1.109375l2.328125 0l0 7.34375zm11.1796875 0.15625q1.234375 0 2.078125 -0.5q0.84375 -0.5 1.265625 -1.140625l-0.890625 -0.6875q-0.390625 0.515625 -1.0 0.828125q-0.59375 0.3125 -1.375 0.3125q-0.578125 0 -1.0625 -0.21875q-0.484375 -0.21875 -0.828125 -0.59375q-0.34375 -0.359375 -0.53125 -0.828125q-0.1875 -0.46875 -0.25 -1.09375l0 -0.046875l6.046875 0l0 -0.65625q0 -0.875 -0.234375 -1.625q-0.21875 -0.765625 -0.671875 -1.328125q-0.453125 -0.5625 -1.140625 -0.875q-0.671875 -0.3125 -1.59375 -0.3125q-0.71875 0 -1.421875 0.296875q-0.6875 0.296875 -1.21875 0.84375q-0.546875 0.5625 -0.875 1.375q-0.328125 0.8125 -0.328125 1.828125l0 0.328125q0 0.890625 0.296875 1.640625q0.296875 0.75 0.828125 1.296875q0.53125 0.546875 1.265625 0.859375q0.75 0.296875 1.640625 0.296875zm-0.1875 -7.578125q0.5625 0 0.953125 0.203125q0.40625 0.203125 0.671875 0.53125q0.265625 0.328125 0.40625 0.78125q0.15625 0.4375 0.15625 0.828125l0 0.078125l-4.546875 0q0.09375 -0.59375 0.296875 -1.03125q0.21875 -0.453125 0.53125 -0.765625q0.3125 -0.3125 0.703125 -0.46875q0.390625 -0.15625 0.828125 -0.15625zm11.6015625 -1.1875q-0.921875 0 -1.65625 0.40625q-0.71875 0.390625 -1.234375 1.09375l0 -0.21875l-0.0625 -1.125l-1.375 0l0 8.453125l1.453125 0l0 -5.421875q0.140625 -0.390625 0.34375 -0.703125q0.21875 -0.328125 0.515625 -0.546875q0.3125 -0.25 0.734375 -0.375q0.4375 -0.125 0.96875 -0.125q0.421875 0 0.796875 0.046875q0.375 0.03125 0.796875 0.125l0.203125 -1.40625q-0.21875 -0.09375 -0.65625 -0.140625q-0.4375 -0.0625 -0.828125 -0.0625zm9.3359375 4.0625l0 -0.078125q0 -1.1875 -0.1875 -2.140625q-0.1875 -0.96875 -0.46875 -1.78125q-0.28125 -0.859375 -0.671875 -1.53125q-0.375 -0.6875 -0.8125 -1.234375q-0.421875 -0.546875 -0.859375 -0.921875q-0.4375 -0.390625 -0.828125 -0.609375l-0.3125 0.890625q0.265625 0.203125 0.53125 0.515625q0.28125 0.296875 0.53125 0.6875q0.34375 0.515625 0.65625 1.203125q0.328125 0.671875 0.546875 1.53125q0.15625 0.609375 0.28125 1.46875q0.140625 0.859375 0.140625 1.90625l0 0.109375q0 0.9375 -0.109375 1.75q-0.09375 0.8125 -0.265625 1.515625q-0.171875 0.765625 -0.453125 1.40625q-0.265625 0.640625 -0.546875 1.140625q-0.3125 0.5 -0.65625 0.875q-0.328125 0.390625 -0.65625 0.640625l0.3125 0.875q0.390625 -0.21875 0.8125 -0.59375q0.4375 -0.375 0.875 -0.921875q0.421875 -0.546875 0.796875 -1.234375q0.390625 -0.6875 0.6875 -1.546875q0.296875 -0.828125 0.46875 -1.8125q0.1875 -0.984375 0.1875 -2.109375z" fill-rule="nonzero"/><g filter="url(#shadowFilter-p.3)"><use xlink:href="#p.3" transform="matrix(1.0 0.0 0.0 1.0 0.0 2.0)"/></g><defs><filter id="shadowFilter-p.3" filterUnits="userSpaceOnUse"><feGaussianBlur in="SourceAlpha" stdDeviation="2.0" result="blur"/><feComponentTransfer in="blur" color-interpolation-filters="sRGB"><feFuncR type="linear" slope="0" intercept="0.0"/><feFuncG type="linear" slope="0" intercept="0.0"/><feFuncB type="linear" slope="0" intercept="0.0"/><feFuncA type="linear" slope="0.5" intercept="0"/></feComponentTransfer></filter></defs><g id="p.3"><path fill="#fff2cc" d="m281.29398 198.95276l196.06299 0l0 42.015747l-196.06299 0z" fill-rule="evenodd"/><path stroke="#000000" stroke-width="1.0" stroke-linejoin="round" stroke-linecap="butt" d="m281.29398 198.95276l196.06299 0l0 42.015747l-196.06299 0z" fill-rule="evenodd"/><path fill="#000000" d="m337.4778 214.34563l0 1.25l2.671875 0l0 8.875l-2.671875 0l0 1.25l6.875 0l0 -1.25l-2.71875 0l0 -8.875l2.71875 0l0 -1.25l-6.875 0zm9.6015625 11.375l1.453125 0l0 -6.0625q0.140625 -0.28125 0.34375 -0.5q0.203125 -0.234375 0.4375 -0.40625q0.28125 -0.1875 0.625 -0.296875q0.34375 -0.125 0.75 -0.125q0.453125 0 0.8125 0.109375q0.359375 0.109375 0.609375 0.359375q0.234375 0.234375 0.359375 0.625q0.125 0.390625 0.125 0.953125l0 5.34375l1.453125 0l0 -5.375q0 -0.84375 -0.21875 -1.453125q-0.203125 -0.609375 -0.578125 -1.015625q-0.390625 -0.390625 -0.9375 -0.578125q-0.53125 -0.1875 -1.203125 -0.1875q-0.484375 0 -0.9375 0.140625q-0.4375 0.140625 -0.8125 0.390625q-0.25 0.15625 -0.46875 0.390625q-0.21875 0.21875 -0.40625 0.484375l-0.109375 -1.25l-1.296875 0l0 8.453125zm13.0234375 -10.5l-1.453125 0l0 2.046875l-2.21875 0l0 1.109375l2.21875 0l0 4.59375q0 0.78125 0.203125 1.34375q0.21875 0.546875 0.578125 0.890625q0.359375 0.34375 0.84375 0.515625q0.484375 0.15625 1.046875 0.15625q0.34375 0 0.671875 -0.03125q0.34375 -0.03125 0.65625 -0.09375q0.296875 -0.0625 0.546875 -0.140625q0.265625 -0.078125 0.453125 -0.1875l-0.203125 -1.03125q-0.140625 0.03125 -0.34375 0.078125q-0.203125 0.046875 -0.4375 0.078125q-0.25 0.046875 -0.5 0.078125q-0.25 0.015625 -0.484375 0.015625q-0.3125 0 -0.609375 -0.078125q-0.28125 -0.078125 -0.5 -0.265625q-0.21875 -0.1875 -0.34375 -0.5q-0.125 -0.328125 -0.125 -0.828125l0 -4.59375l3.21875 0l0 -1.109375l-3.21875 0l0 -2.046875zm13.1796875 2.09375q0 -0.75 -0.265625 -1.328125q-0.25 -0.578125 -0.703125 -0.984375q-0.453125 -0.390625 -1.078125 -0.59375q-0.609375 -0.21875 -1.328125 -0.21875q-0.71875 0 -1.34375 0.21875q-0.609375 0.203125 -1.046875 0.59375q-0.4375 0.40625 -0.6875 0.984375q-0.25 0.578125 -0.25 1.328125q0 0.421875 0.109375 0.8125q0.125 0.375 0.328125 0.6875q0.21875 0.328125 0.515625 0.59375q0.3125 0.265625 0.6875 0.453125q-0.4375 0.1875 -0.796875 0.46875q-0.34375 0.28125 -0.59375 0.625q-0.25 0.359375 -0.390625 0.796875q-0.125 0.421875 -0.125 0.890625q0 0.78125 0.28125 1.390625q0.28125 0.59375 0.765625 1.0q0.484375 0.421875 1.140625 0.640625q0.671875 0.203125 1.4375 0.203125q0.75 0 1.40625 -0.21875q0.65625 -0.21875 1.140625 -0.625q0.484375 -0.40625 0.765625 -1.0q0.296875 -0.609375 0.296875 -1.390625q0 -0.46875 -0.140625 -0.890625q-0.140625 -0.421875 -0.390625 -0.78125q-0.25 -0.359375 -0.609375 -0.640625q-0.359375 -0.28125 -0.796875 -0.46875q0.25 -0.125 0.46875 -0.28125q0.21875 -0.15625 0.40625 -0.328125q0.375 -0.375 0.578125 -0.875q0.21875 -0.5 0.21875 -1.0625zm-1.1875 5.296875q0 0.5 -0.15625 0.890625q-0.15625 0.375 -0.4375 0.640625q-0.296875 0.265625 -0.703125 0.40625q-0.390625 0.140625 -0.859375 0.140625q-0.5 0 -0.90625 -0.140625q-0.40625 -0.140625 -0.6875 -0.40625q-0.28125 -0.265625 -0.4375 -0.640625q-0.140625 -0.390625 -0.140625 -0.890625q0 -0.46875 0.140625 -0.859375q0.15625 -0.40625 0.4375 -0.703125q0.28125 -0.28125 0.671875 -0.4375q0.40625 -0.15625 0.90625 -0.15625q0.46875 0 0.875 0.15625q0.40625 0.15625 0.6875 0.4375q0.296875 0.296875 0.453125 0.703125q0.15625 0.390625 0.15625 0.859375zm-0.265625 -5.28125q0 0.4375 -0.140625 0.796875q-0.140625 0.359375 -0.390625 0.609375q-0.25 0.265625 -0.609375 0.40625q-0.34375 0.125 -0.765625 0.125q-0.421875 0 -0.765625 -0.125q-0.34375 -0.140625 -0.59375 -0.40625q-0.265625 -0.25 -0.40625 -0.59375q-0.125 -0.359375 -0.125 -0.8125q0 -0.4375 0.125 -0.796875q0.140625 -0.375 0.390625 -0.625q0.25 -0.265625 0.59375 -0.390625q0.34375 -0.140625 0.765625 -0.140625q0.421875 0 0.765625 0.140625q0.359375 0.140625 0.625 0.40625q0.25 0.265625 0.390625 0.625q0.140625 0.359375 0.140625 0.78125zm9.4921875 5.4375l0.890625 2.953125l1.4375 0l-3.609375 -11.375l-1.203125 0l-3.671875 11.375l1.4375 0l0.921875 -2.953125l3.796875 0zm-3.40625 -1.25l1.515625 -4.9375l1.5 4.9375l-3.015625 0zm13.1171875 -4.40625q-0.921875 0 -1.65625 0.40625q-0.71875 0.390625 -1.234375 1.09375l0 -0.21875l-0.0625 -1.125l-1.375 0l0 8.453125l1.453125 0l0 -5.421875q0.140625 -0.390625 0.34375 -0.703125q0.21875 -0.328125 0.515625 -0.546875q0.3125 -0.25 0.734375 -0.375q0.4375 -0.125 0.96875 -0.125q0.421875 0 0.796875 0.046875q0.375 0.03125 0.796875 0.125l0.203125 -1.40625q-0.21875 -0.09375 -0.65625 -0.140625q-0.4375 -0.0625 -0.828125 -0.0625zm9.6015625 0q-0.921875 0 -1.65625 0.40625q-0.71875 0.390625 -1.234375 1.09375l0 -0.21875l-0.0625 -1.125l-1.375 0l0 8.453125l1.453125 0l0 -5.421875q0.140625 -0.390625 0.34375 -0.703125q0.21875 -0.328125 0.515625 -0.546875q0.3125 -0.25 0.734375 -0.375q0.4375 -0.125 0.96875 -0.125q0.421875 0 0.796875 0.046875q0.375 0.03125 0.796875 0.125l0.203125 -1.40625q-0.21875 -0.09375 -0.65625 -0.140625q-0.4375 -0.0625 -0.828125 -0.0625zm9.6171875 8.609375l1.5 0l0 -0.125q-0.140625 -0.359375 -0.21875 -0.828125q-0.078125 -0.46875 -0.078125 -0.890625l0 -3.9375q0 -0.703125 -0.265625 -1.234375q-0.25 -0.53125 -0.6875 -0.890625q-0.453125 -0.359375 -1.078125 -0.53125q-0.609375 -0.171875 -1.328125 -0.171875q-0.796875 0 -1.421875 0.21875q-0.609375 0.21875 -1.046875 0.5625q-0.4375 0.359375 -0.671875 0.8125q-0.21875 0.4375 -0.234375 0.90625l1.453125 0q0 -0.265625 0.125 -0.515625q0.140625 -0.25 0.375 -0.421875q0.234375 -0.1875 0.5625 -0.296875q0.34375 -0.109375 0.78125 -0.109375q0.453125 0 0.828125 0.125q0.375 0.109375 0.625 0.328125q0.265625 0.21875 0.40625 0.53125q0.140625 0.296875 0.140625 0.671875l0 0.671875l-1.578125 0q-0.890625 0 -1.609375 0.171875q-0.703125 0.171875 -1.21875 0.515625q-0.5 0.34375 -0.78125 0.875q-0.28125 0.515625 -0.28125 1.21875q0 0.53125 0.203125 0.984375q0.21875 0.453125 0.59375 0.78125q0.375 0.34375 0.921875 0.546875q0.546875 0.1875 1.21875 0.1875q0.40625 0 0.765625 -0.09375q0.375 -0.078125 0.703125 -0.234375q0.328125 -0.140625 0.59375 -0.328125q0.265625 -0.203125 0.484375 -0.421875q0.03125 0.265625 0.078125 0.515625q0.046875 0.234375 0.140625 0.40625zm-2.5625 -1.109375q-0.421875 0 -0.75 -0.109375q-0.3125 -0.109375 -0.515625 -0.296875q-0.21875 -0.1875 -0.328125 -0.453125q-0.09375 -0.265625 -0.09375 -0.578125q0 -0.328125 0.109375 -0.578125q0.125 -0.265625 0.359375 -0.453125q0.328125 -0.265625 0.890625 -0.390625q0.5625 -0.140625 1.3125 -0.140625l1.34375 0l0 1.71875q-0.125 0.25 -0.34375 0.484375q-0.21875 0.21875 -0.515625 0.40625q-0.3125 0.171875 -0.6875 0.28125q-0.359375 0.109375 -0.78125 0.109375zm7.2890625 4.53125q0.5625 0 1.0 -0.21875q0.4375 -0.203125 0.765625 -0.515625q0.328125 -0.3125 0.5625 -0.6875q0.234375 -0.359375 0.375 -0.6875l4.296875 -9.765625l-1.625 0l-2.171875 5.484375l-0.40625 0.984375l-0.375 -1.015625l-2.3125 -5.453125l-1.625 0l3.640625 8.046875l-0.578125 1.140625q-0.078125 0.15625 -0.21875 0.390625q-0.125 0.25 -0.3125 0.46875q-0.203125 0.234375 -0.453125 0.390625q-0.234375 0.171875 -0.53125 0.171875q-0.109375 0 -0.3125 -0.015625q-0.1875 -0.015625 -0.375 -0.03125l-0.234375 1.1875q0.140625 0.03125 0.40625 0.078125q0.28125 0.046875 0.484375 0.046875z" fill-rule="nonzero"/></g><path fill="#000000" fill-opacity="0.0" d="m244.99738 164.71916c0 27.62204 18.141724 55.244095 36.283478 55.244095" fill-rule="evenodd"/><path stroke="#000000" stroke-width="1.0" stroke-linejoin="round" stroke-linecap="butt" d="m244.99738 164.71916c0 13.81102 4.535431 27.62204 11.338593 37.980316c3.4015503 5.179138 7.370056 9.495071 11.62204 12.516235c2.1259766 1.5105896 4.3228455 2.697464 6.5551147 3.5067139c0.55807495 0.20230103 1.1183472 0.3809967 1.6802979 0.53526306c0.28097534 0.07713318 0.5623474 0.14814758 0.8441162 0.21296692c0.14086914 0.03239441 0.28179932 0.06323242 0.42285156 0.09251404l0.4083252 0.08018494" fill-rule="evenodd"/><path fill="#000000" stroke="#000000" stroke-width="1.0" stroke-linecap="butt" d="m277.8687 219.64336l-1.2246399 1.0147095l3.181244 -0.8312683l-2.9713135 -1.408081z" fill-rule="evenodd"/><g filter="url(#shadowFilter-p.4)"><use xlink:href="#p.4" transform="matrix(1.0 0.0 0.0 1.0 0.0 2.0)"/></g><defs><filter id="shadowFilter-p.4" filterUnits="userSpaceOnUse"><feGaussianBlur in="SourceAlpha" stdDeviation="2.0" result="blur"/><feComponentTransfer in="blur" color-interpolation-filters="sRGB"><feFuncR type="linear" slope="0" intercept="0.0"/><feFuncG type="linear" slope="0" intercept="0.0"/><feFuncB type="linear" slope="0" intercept="0.0"/><feFuncA type="linear" slope="0.5" intercept="0"/></feComponentTransfer></filter></defs><g id="p.4"><path fill="#fff2cc" d="m281.29398 240.95801l196.06299 0l0 42.015747l-196.06299 0z" fill-rule="evenodd"/><path stroke="#000000" stroke-width="1.0" stroke-linejoin="round" stroke-linecap="butt" d="m281.29398 240.95801l196.06299 0l0 42.015747l-196.06299 0z" fill-rule="evenodd"/><path fill="#000000" d="m340.2747 267.7259l1.25 0l3.59375 -11.375l-1.546875 0l-2.515625 8.46875l-0.171875 0.578125l-0.15625 -0.5625l-2.5 -8.484375l-1.546875 0l3.59375 11.375zm10.5390625 0.15625q1.234375 0 2.078125 -0.5q0.84375 -0.5 1.265625 -1.140625l-0.890625 -0.6875q-0.390625 0.515625 -1.0 0.828125q-0.59375 0.3125 -1.375 0.3125q-0.578125 0 -1.0625 -0.21875q-0.484375 -0.21875 -0.828125 -0.59375q-0.34375 -0.359375 -0.53125 -0.828125q-0.1875 -0.46875 -0.25 -1.09375l0 -0.046875l6.046875 0l0 -0.65625q0 -0.875 -0.234375 -1.625q-0.21875 -0.765625 -0.671875 -1.328125q-0.453125 -0.5625 -1.140625 -0.875q-0.671875 -0.3125 -1.59375 -0.3125q-0.71875 0 -1.421875 0.296875q-0.6875 0.296875 -1.21875 0.84375q-0.546875 0.5625 -0.875 1.375q-0.328125 0.8125 -0.328125 1.828125l0 0.328125q0 0.890625 0.296875 1.640625q0.296875 0.75 0.828125 1.296875q0.53125 0.546875 1.265625 0.859375q0.75 0.296875 1.640625 0.296875zm-0.1875 -7.578125q0.5625 0 0.953125 0.203125q0.40625 0.203125 0.671875 0.53125q0.265625 0.328125 0.40625 0.78125q0.15625 0.4375 0.15625 0.828125l0 0.078125l-4.546875 0q0.09375 -0.59375 0.296875 -1.03125q0.21875 -0.453125 0.53125 -0.765625q0.3125 -0.3125 0.703125 -0.46875q0.390625 -0.15625 0.828125 -0.15625zm9.6640625 6.40625q-0.6875 0 -1.140625 -0.265625q-0.453125 -0.28125 -0.734375 -0.71875q-0.28125 -0.421875 -0.40625 -0.96875q-0.109375 -0.546875 -0.109375 -1.09375l0 -0.328125q0 -0.546875 0.109375 -1.078125q0.125 -0.546875 0.40625 -0.984375q0.28125 -0.4375 0.734375 -0.703125q0.46875 -0.265625 1.140625 -0.265625q0.4375 0 0.8125 0.15625q0.375 0.140625 0.65625 0.390625q0.265625 0.265625 0.421875 0.609375q0.171875 0.328125 0.171875 0.71875l1.375 0q0 -0.640625 -0.265625 -1.203125q-0.25 -0.5625 -0.703125 -0.984375q-0.46875 -0.40625 -1.09375 -0.640625q-0.625 -0.234375 -1.375 -0.234375q-0.96875 0 -1.6875 0.34375q-0.71875 0.34375 -1.1875 0.921875q-0.484375 0.578125 -0.734375 1.34375q-0.234375 0.765625 -0.234375 1.609375l0 0.328125q0 0.84375 0.234375 1.609375q0.25 0.75 0.734375 1.328125q0.46875 0.59375 1.1875 0.9375q0.71875 0.34375 1.6875 0.34375q0.671875 0 1.28125 -0.234375q0.625 -0.234375 1.09375 -0.625q0.484375 -0.375 0.765625 -0.890625q0.28125 -0.515625 0.296875 -1.078125l-1.375 0q0 0.359375 -0.1875 0.65625q-0.171875 0.296875 -0.453125 0.515625q-0.296875 0.234375 -0.671875 0.359375q-0.359375 0.125 -0.75 0.125zm9.4140625 -9.484375l-1.453125 0l0 2.046875l-2.21875 0l0 1.109375l2.21875 0l0 4.59375q0 0.78125 0.203125 1.34375q0.21875 0.546875 0.578125 0.890625q0.359375 0.34375 0.84375 0.515625q0.484375 0.15625 1.046875 0.15625q0.34375 0 0.671875 -0.03125q0.34375 -0.03125 0.65625 -0.09375q0.296875 -0.0625 0.546875 -0.140625q0.265625 -0.078125 0.453125 -0.1875l-0.203125 -1.03125q-0.140625 0.03125 -0.34375 0.078125q-0.203125 0.046875 -0.4375 0.078125q-0.25 0.046875 -0.5 0.078125q-0.25 0.015625 -0.484375 0.015625q-0.3125 0 -0.609375 -0.078125q-0.28125 -0.078125 -0.5 -0.265625q-0.21875 -0.1875 -0.34375 -0.5q-0.125 -0.328125 -0.125 -0.828125l0 -4.59375l3.21875 0l0 -1.109375l-3.21875 0l0 -2.046875zm5.7734375 6.1875l0 0.171875q0 0.921875 0.265625 1.703125q0.265625 0.78125 0.765625 1.359375q0.5 0.578125 1.203125 0.90625q0.71875 0.328125 1.625 0.328125q0.890625 0 1.59375 -0.328125q0.71875 -0.328125 1.21875 -0.90625q0.484375 -0.578125 0.75 -1.359375q0.265625 -0.78125 0.265625 -1.703125l0 -0.171875q0 -0.90625 -0.265625 -1.6875q-0.265625 -0.796875 -0.75 -1.375q-0.5 -0.578125 -1.21875 -0.90625q-0.71875 -0.328125 -1.609375 -0.328125q-0.890625 0 -1.609375 0.328125q-0.703125 0.328125 -1.203125 0.90625q-0.5 0.578125 -0.765625 1.375q-0.265625 0.78125 -0.265625 1.6875zm1.453125 0.171875l0 -0.171875q0 -0.609375 0.140625 -1.171875q0.15625 -0.578125 0.453125 -1.0q0.296875 -0.4375 0.734375 -0.6875q0.453125 -0.25 1.0625 -0.25q0.59375 0 1.046875 0.25q0.453125 0.25 0.75 0.6875q0.296875 0.421875 0.453125 1.0q0.15625 0.5625 0.15625 1.171875l0 0.171875q0 0.625 -0.15625 1.203125q-0.140625 0.5625 -0.4375 0.984375q-0.3125 0.4375 -0.765625 0.6875q-0.4375 0.25 -1.03125 0.25q-0.609375 0 -1.0625 -0.25q-0.453125 -0.25 -0.75 -0.6875q-0.296875 -0.421875 -0.453125 -0.984375q-0.140625 -0.578125 -0.140625 -1.203125zm14.1015625 -4.46875q-0.921875 0 -1.65625 0.40625q-0.71875 0.390625 -1.234375 1.09375l0 -0.21875l-0.0625 -1.125l-1.375 0l0 8.453125l1.453125 0l0 -5.421875q0.140625 -0.390625 0.34375 -0.703125q0.21875 -0.328125 0.515625 -0.546875q0.3125 -0.25 0.734375 -0.375q0.4375 -0.125 0.96875 -0.125q0.421875 0 0.796875 0.046875q0.375 0.03125 0.796875 0.125l0.203125 -1.40625q-0.21875 -0.09375 -0.65625 -0.140625q-0.4375 -0.0625 -0.828125 -0.0625zm5.6328125 4.046875l2.25 0q0.765625 -0.015625 1.4375 -0.234375q0.6875 -0.234375 1.203125 -0.65625q0.515625 -0.4375 0.8125 -1.0625q0.3125 -0.625 0.3125 -1.453125q0 -0.8125 -0.3125 -1.4375q-0.296875 -0.640625 -0.8125 -1.078125q-0.515625 -0.421875 -1.203125 -0.640625q-0.671875 -0.234375 -1.4375 -0.25l-3.6875 0l0 11.375l1.4375 0l0 -4.5625zm0 -1.1875l0 -4.4375l2.25 0q0.5 0 0.921875 0.15625q0.421875 0.15625 0.734375 0.453125q0.3125 0.28125 0.484375 0.703125q0.171875 0.40625 0.171875 0.921875q0 0.515625 -0.171875 0.921875q-0.171875 0.40625 -0.484375 0.6875q-0.3125 0.28125 -0.734375 0.4375q-0.421875 0.140625 -0.921875 0.15625l-2.25 0zm11.4453125 -4.75l-1.453125 0l0 2.046875l-2.21875 0l0 1.109375l2.21875 0l0 4.59375q0 0.78125 0.203125 1.34375q0.21875 0.546875 0.578125 0.890625q0.359375 0.34375 0.84375 0.515625q0.484375 0.15625 1.046875 0.15625q0.34375 0 0.671875 -0.03125q0.34375 -0.03125 0.65625 -0.09375q0.296875 -0.0625 0.546875 -0.140625q0.265625 -0.078125 0.453125 -0.1875l-0.203125 -1.03125q-0.140625 0.03125 -0.34375 0.078125q-0.203125 0.046875 -0.4375 0.078125q-0.25 0.046875 -0.5 0.078125q-0.25 0.015625 -0.484375 0.015625q-0.3125 0 -0.609375 -0.078125q-0.28125 -0.078125 -0.5 -0.265625q-0.21875 -0.1875 -0.34375 -0.5q-0.125 -0.328125 -0.125 -0.828125l0 -4.59375l3.21875 0l0 -1.109375l-3.21875 0l0 -2.046875zm11.7265625 1.890625q-0.921875 0 -1.65625 0.40625q-0.71875 0.390625 -1.234375 1.09375l0 -0.21875l-0.0625 -1.125l-1.375 0l0 8.453125l1.453125 0l0 -5.421875q0.140625 -0.390625 0.34375 -0.703125q0.21875 -0.328125 0.515625 -0.546875q0.3125 -0.25 0.734375 -0.375q0.4375 -0.125 0.96875 -0.125q0.421875 0 0.796875 0.046875q0.375 0.03125 0.796875 0.125l0.203125 -1.40625q-0.21875 -0.09375 -0.65625 -0.140625q-0.4375 -0.0625 -0.828125 -0.0625z" fill-rule="nonzero"/></g><path fill="#000000" fill-opacity="0.0" d="m115.40157 51.52231c0 25.086617 15.779533 50.173233 31.55906 50.173233" fill-rule="evenodd"/><path stroke="#000000" stroke-width="1.0" stroke-linejoin="round" stroke-linecap="butt" d="m115.40157 51.52231c0 12.543312 3.9448853 25.086617 9.8622055 34.494095c2.958664 4.703743 6.410431 8.623528 10.108765 11.367371c0.9245758 0.6859665 1.864563 1.298439 2.8161163 1.8312759c0.47576904 0.2664261 0.95443726 0.51293945 1.4355164 0.7387848c0.24052429 0.1129303 0.4816742 0.22068787 0.7233429 0.32317352c0.12083435 0.051246643 0.24182129 0.10118103 0.3629303 0.14978027l0.35743713 0.13937378" fill-rule="evenodd"/><path fill="#000000" stroke="#000000" stroke-width="1.0" stroke-linecap="butt" d="m140.75697 102.18837l4.7678833 -0.7680054l-4.1460724 -2.47641z" fill-rule="evenodd"/><path fill="#000000" fill-opacity="0.0" d="m415.35696 317.98425l208.50394 0l0 42.015747l-208.50394 0z" fill-rule="evenodd"/><path fill="#000000" d="m440.93314 340.18964l2.25 0q0.765625 -0.015625 1.4375 -0.234375q0.6875 -0.234375 1.203125 -0.65625q0.515625 -0.4375 0.8125 -1.0625q0.3125 -0.625 0.3125 -1.453125q0 -0.8125 -0.3125 -1.4375q-0.296875 -0.640625 -0.8125 -1.078125q-0.515625 -0.421875 -1.203125 -0.640625q-0.671875 -0.234375 -1.4375 -0.25l-3.6875 0l0 11.375l1.4375 0l0 -4.5625zm0 -1.1875l0 -4.4375l2.25 0q0.5 0 0.921875 0.15625q0.421875 0.15625 0.734375 0.453125q0.3125 0.28125 0.484375 0.703125q0.171875 0.40625 0.171875 0.921875q0 0.515625 -0.171875 0.921875q-0.171875 0.40625 -0.484375 0.6875q-0.3125 0.28125 -0.734375 0.4375q-0.421875 0.140625 -0.921875 0.15625l-2.25 0zm13.4609375 2.796875l0.890625 2.953125l1.4375 0l-3.609375 -11.375l-1.203125 0l-3.671875 11.375l1.4375 0l0.921875 -2.953125l3.796875 0zm-3.40625 -1.25l1.515625 -4.9375l1.5 4.9375l-3.015625 0zm14.9453125 0.78125l-1.453125 0q-0.0625 0.515625 -0.234375 0.953125q-0.171875 0.4375 -0.46875 0.765625q-0.28125 0.328125 -0.703125 0.515625q-0.421875 0.171875 -0.984375 0.171875q-0.53125 0 -0.921875 -0.171875q-0.390625 -0.171875 -0.671875 -0.46875q-0.296875 -0.28125 -0.484375 -0.65625q-0.1875 -0.390625 -0.296875 -0.828125q-0.125 -0.4375 -0.171875 -0.875q-0.046875 -0.453125 -0.046875 -0.875l0 -1.609375q0 -0.421875 0.046875 -0.859375q0.046875 -0.453125 0.171875 -0.890625q0.109375 -0.421875 0.296875 -0.796875q0.203125 -0.390625 0.484375 -0.6875q0.28125 -0.28125 0.671875 -0.453125q0.40625 -0.171875 0.921875 -0.171875q0.5625 0 0.984375 0.203125q0.421875 0.1875 0.703125 0.515625q0.296875 0.34375 0.46875 0.796875q0.171875 0.4375 0.234375 0.953125l1.453125 0q-0.09375 -0.8125 -0.390625 -1.484375q-0.296875 -0.671875 -0.78125 -1.15625q-0.484375 -0.484375 -1.15625 -0.734375q-0.671875 -0.265625 -1.515625 -0.265625q-0.71875 0 -1.296875 0.203125q-0.5625 0.1875 -1.0 0.546875q-0.453125 0.34375 -0.78125 0.828125q-0.328125 0.484375 -0.53125 1.046875q-0.21875 0.5625 -0.328125 1.1875q-0.109375 0.609375 -0.109375 1.234375l0 1.59375q0 0.625 0.109375 1.25q0.109375 0.609375 0.328125 1.171875q0.203125 0.5625 0.53125 1.046875q0.328125 0.46875 0.78125 0.828125q0.4375 0.34375 1.015625 0.546875q0.578125 0.203125 1.28125 0.203125q0.8125 0 1.484375 -0.265625q0.671875 -0.265625 1.15625 -0.734375q0.484375 -0.46875 0.78125 -1.125q0.3125 -0.671875 0.421875 -1.453125zm8.5546875 -0.96875l0 -1.1875l-5.984375 0l0 1.1875l5.984375 0zm10.6484375 0.96875l-1.453125 0q-0.0625 0.515625 -0.234375 0.953125q-0.171875 0.4375 -0.46875 0.765625q-0.28125 0.328125 -0.703125 0.515625q-0.421875 0.171875 -0.984375 0.171875q-0.53125 0 -0.921875 -0.171875q-0.390625 -0.171875 -0.671875 -0.46875q-0.296875 -0.28125 -0.484375 -0.65625q-0.1875 -0.390625 -0.296875 -0.828125q-0.125 -0.4375 -0.171875 -0.875q-0.046875 -0.453125 -0.046875 -0.875l0 -1.609375q0 -0.421875 0.046875 -0.859375q0.046875 -0.453125 0.171875 -0.890625q0.109375 -0.421875 0.296875 -0.796875q0.203125 -0.390625 0.484375 -0.6875q0.28125 -0.28125 0.671875 -0.453125q0.40625 -0.171875 0.921875 -0.171875q0.5625 0 0.984375 0.203125q0.421875 0.1875 0.703125 0.515625q0.296875 0.34375 0.46875 0.796875q0.171875 0.4375 0.234375 0.953125l1.453125 0q-0.09375 -0.8125 -0.390625 -1.484375q-0.296875 -0.671875 -0.78125 -1.15625q-0.484375 -0.484375 -1.15625 -0.734375q-0.671875 -0.265625 -1.515625 -0.265625q-0.71875 0 -1.296875 0.203125q-0.5625 0.1875 -1.0 0.546875q-0.453125 0.34375 -0.78125 0.828125q-0.328125 0.484375 -0.53125 1.046875q-0.21875 0.5625 -0.328125 1.1875q-0.109375 0.609375 -0.109375 1.234375l0 1.59375q0 0.625 0.109375 1.25q0.109375 0.609375 0.328125 1.171875q0.203125 0.5625 0.53125 1.046875q0.328125 0.46875 0.78125 0.828125q0.4375 0.34375 1.015625 0.546875q0.578125 0.203125 1.28125 0.203125q0.8125 0 1.484375 -0.265625q0.671875 -0.265625 1.15625 -0.734375q0.484375 -0.46875 0.78125 -1.125q0.3125 -0.671875 0.421875 -1.453125zm7.7890625 3.421875l1.5 0l0 -0.125q-0.140625 -0.359375 -0.21875 -0.828125q-0.078125 -0.46875 -0.078125 -0.890625l0 -3.9375q0 -0.703125 -0.265625 -1.234375q-0.25 -0.53125 -0.6875 -0.890625q-0.453125 -0.359375 -1.078125 -0.53125q-0.609375 -0.171875 -1.328125 -0.171875q-0.796875 0 -1.421875 0.21875q-0.609375 0.21875 -1.046875 0.5625q-0.4375 0.359375 -0.671875 0.8125q-0.21875 0.4375 -0.234375 0.90625l1.453125 0q0 -0.265625 0.125 -0.515625q0.140625 -0.25 0.375 -0.421875q0.234375 -0.1875 0.5625 -0.296875q0.34375 -0.109375 0.78125 -0.109375q0.453125 0 0.828125 0.125q0.375 0.109375 0.625 0.328125q0.265625 0.21875 0.40625 0.53125q0.140625 0.296875 0.140625 0.671875l0 0.671875l-1.578125 0q-0.890625 0 -1.609375 0.171875q-0.703125 0.171875 -1.21875 0.515625q-0.5 0.34375 -0.78125 0.875q-0.28125 0.515625 -0.28125 1.21875q0 0.53125 0.203125 0.984375q0.21875 0.453125 0.59375 0.78125q0.375 0.34375 0.921875 0.546875q0.546875 0.1875 1.21875 0.1875q0.40625 0 0.765625 -0.09375q0.375 -0.078125 0.703125 -0.234375q0.328125 -0.140625 0.59375 -0.328125q0.265625 -0.203125 0.484375 -0.421875q0.03125 0.265625 0.078125 0.515625q0.046875 0.234375 0.140625 0.40625zm-2.5625 -1.109375q-0.421875 0 -0.75 -0.109375q-0.3125 -0.109375 -0.515625 -0.296875q-0.21875 -0.1875 -0.328125 -0.453125q-0.09375 -0.265625 -0.09375 -0.578125q0 -0.328125 0.109375 -0.578125q0.125 -0.265625 0.359375 -0.453125q0.328125 -0.265625 0.890625 -0.390625q0.5625 -0.140625 1.3125 -0.140625l1.34375 0l0 1.71875q-0.125 0.25 -0.34375 0.484375q-0.21875 0.21875 -0.515625 0.40625q-0.3125 0.171875 -0.6875 0.28125q-0.359375 0.109375 -0.78125 0.109375zm6.3359375 -3.1875l0 0.15625q0 0.90625 0.234375 1.703125q0.234375 0.78125 0.671875 1.359375q0.4375 0.578125 1.0625 0.90625q0.625 0.328125 1.390625 0.328125q0.46875 0 0.859375 -0.109375q0.40625 -0.09375 0.734375 -0.265625q0.203125 -0.125 0.390625 -0.28125q0.1875 -0.15625 0.34375 -0.34375l0 0.734375q0 0.546875 -0.15625 0.96875q-0.15625 0.421875 -0.4375 0.703125q-0.296875 0.296875 -0.71875 0.4375q-0.40625 0.15625 -0.921875 0.15625q-0.296875 0 -0.59375 -0.0625q-0.28125 -0.0625 -0.5625 -0.1875q-0.296875 -0.140625 -0.578125 -0.359375q-0.28125 -0.21875 -0.546875 -0.546875l-0.75 0.875q0.296875 0.40625 0.6875 0.6875q0.40625 0.28125 0.84375 0.453125q0.4375 0.171875 0.859375 0.234375q0.421875 0.078125 0.75 0.078125q0.796875 0 1.453125 -0.234375q0.65625 -0.234375 1.125 -0.6875q0.46875 -0.453125 0.734375 -1.109375q0.265625 -0.640625 0.265625 -1.484375l0 -8.265625l-1.3125 0l-0.078125 0.921875q-0.140625 -0.1875 -0.3125 -0.34375q-0.171875 -0.15625 -0.359375 -0.28125q-0.34375 -0.21875 -0.765625 -0.328125q-0.421875 -0.125 -0.9375 -0.125q-0.78125 0 -1.40625 0.328125q-0.625 0.3125 -1.0625 0.875q-0.4375 0.578125 -0.671875 1.375q-0.234375 0.78125 -0.234375 1.734375zm1.453125 0.15625l0 -0.15625q0 -0.625 0.125 -1.171875q0.125 -0.5625 0.40625 -1.0q0.28125 -0.421875 0.703125 -0.671875q0.4375 -0.25 1.046875 -0.25q0.359375 0 0.65625 0.09375q0.296875 0.09375 0.546875 0.25q0.234375 0.15625 0.421875 0.375q0.1875 0.21875 0.328125 0.484375l0 3.875q-0.140625 0.28125 -0.328125 0.515625q-0.1875 0.21875 -0.421875 0.375q-0.234375 0.171875 -0.546875 0.265625q-0.296875 0.078125 -0.671875 0.078125q-0.59375 0 -1.03125 -0.234375q-0.421875 -0.25 -0.703125 -0.671875q-0.28125 -0.421875 -0.40625 -0.96875q-0.125 -0.5625 -0.125 -1.1875zm12.1484375 4.296875q1.234375 0 2.0781555 -0.5q0.84375 -0.5 1.265625 -1.140625l-0.890625 -0.6875q-0.390625 0.515625 -1.0000305 0.828125q-0.59375 0.3125 -1.375 0.3125q-0.578125 0 -1.0625 -0.21875q-0.484375 -0.21875 -0.828125 -0.59375q-0.34375 -0.359375 -0.53125 -0.828125q-0.1875 -0.46875 -0.25 -1.09375l0 -0.046875l6.0469055 0l0 -0.65625q0 -0.875 -0.234375 -1.625q-0.21875 -0.765625 -0.671875 -1.328125q-0.453125 -0.5625 -1.1406555 -0.875q-0.671875 -0.3125 -1.59375 -0.3125q-0.71875 0 -1.421875 0.296875q-0.6875 0.296875 -1.21875 0.84375q-0.546875 0.5625 -0.875 1.375q-0.328125 0.8125 -0.328125 1.828125l0 0.328125q0 0.890625 0.296875 1.640625q0.296875 0.75 0.828125 1.296875q0.53125 0.546875 1.265625 0.859375q0.75 0.296875 1.640625 0.296875zm-0.1875 -7.578125q0.5625 0 0.953125 0.203125q0.40625 0.203125 0.671875 0.53125q0.26565552 0.328125 0.40628052 0.78125q0.15625 0.4375 0.15625 0.828125l0 0.078125l-4.5469055 0q0.09375 -0.59375 0.296875 -1.03125q0.21875 -0.453125 0.53125 -0.765625q0.3125 -0.3125 0.703125 -0.46875q0.390625 -0.15625 0.828125 -0.15625zm5.789093 3.125l0 0.15625q0 0.90625 0.234375 1.703125q0.25 0.78125 0.6875 1.359375q0.4375 0.578125 1.046875 0.90625q0.625 0.328125 1.390625 0.328125q0.78125 0 1.359375 -0.265625q0.59375 -0.265625 1.015625 -0.78125l0.0625 0.890625l1.328125 0l0 -12.0l-1.4375 0l0 4.375q-0.421875 -0.484375 -0.984375 -0.734375q-0.5625 -0.25 -1.328125 -0.25q-0.765625 0 -1.390625 0.328125q-0.625 0.3125 -1.0625 0.875q-0.453125 0.578125 -0.6875 1.375q-0.234375 0.78125 -0.234375 1.734375zm1.4375 0.15625l0 -0.15625q0 -0.625 0.125 -1.171875q0.140625 -0.5625 0.421875 -1.0q0.28125 -0.421875 0.703125 -0.671875q0.4375 -0.25 1.046875 -0.25q0.71875 0 1.1875 0.34375q0.484375 0.328125 0.765625 0.84375l0 3.921875q-0.28125 0.546875 -0.765625 0.875q-0.46875 0.328125 -1.203125 0.328125q-0.59375 0 -1.03125 -0.234375q-0.421875 -0.25 -0.703125 -0.671875q-0.28125 -0.421875 -0.421875 -0.96875q-0.125 -0.5625 -0.125 -1.1875zm18.03125 7.390625l1.4375 0l0 -4.0625q0.15625 0.171875 0.328125 0.3125q0.1875 0.140625 0.390625 0.265625q0.34375 0.1875 0.75 0.28125q0.421875 0.109375 0.90625 0.109375q0.796875 0 1.421875 -0.328125q0.625 -0.328125 1.046875 -0.90625q0.421875 -0.578125 0.640625 -1.359375q0.21875 -0.796875 0.21875 -1.703125l0 -0.15625q0 -0.953125 -0.21875 -1.734375q-0.21875 -0.796875 -0.640625 -1.375q-0.421875 -0.5625 -1.046875 -0.875q-0.625 -0.328125 -1.4375 -0.328125q-0.46875 0 -0.875 0.09375q-0.390625 0.09375 -0.71875 0.28125q-0.234375 0.125 -0.4375 0.3125q-0.203125 0.171875 -0.375 0.390625l-0.078125 -0.921875l-1.3125 0l0 11.703125zm5.6875 -7.546875l0 0.15625q0 0.625 -0.140625 1.1875q-0.125 0.5625 -0.40625 0.984375q-0.28125 0.4375 -0.71875 0.6875q-0.4375 0.25 -1.046875 0.25q-0.375 0 -0.6875 -0.09375q-0.296875 -0.09375 -0.546875 -0.25q-0.21875 -0.140625 -0.390625 -0.34375q-0.171875 -0.203125 -0.3125 -0.4375l0 -4.078125q0.15625 -0.265625 0.34375 -0.484375q0.203125 -0.21875 0.453125 -0.359375q0.21875 -0.15625 0.5 -0.234375q0.296875 -0.078125 0.625 -0.078125q0.609375 0 1.046875 0.25q0.4375 0.25 0.734375 0.671875q0.28125 0.4375 0.40625 1.0q0.140625 0.546875 0.140625 1.171875zm3.5078125 -0.015625l0 0.171875q0 0.921875 0.265625 1.703125q0.265625 0.78125 0.765625 1.359375q0.5 0.578125 1.203125 0.90625q0.71875 0.328125 1.625 0.328125q0.890625 0 1.59375 -0.328125q0.71875 -0.328125 1.21875 -0.90625q0.484375 -0.578125 0.75 -1.359375q0.265625 -0.78125 0.265625 -1.703125l0 -0.171875q0 -0.90625 -0.265625 -1.6875q-0.265625 -0.796875 -0.75 -1.375q-0.5 -0.578125 -1.21875 -0.90625q-0.71875 -0.328125 -1.609375 -0.328125q-0.890625 0 -1.609375 0.328125q-0.703125 0.328125 -1.203125 0.90625q-0.5 0.578125 -0.765625 1.375q-0.265625 0.78125 -0.265625 1.6875zm1.453125 0.171875l0 -0.171875q0 -0.609375 0.140625 -1.171875q0.15625 -0.578125 0.453125 -1.0q0.296875 -0.4375 0.734375 -0.6875q0.453125 -0.25 1.0625 -0.25q0.59375 0 1.046875 0.25q0.453125 0.25 0.75 0.6875q0.296875 0.421875 0.453125 1.0q0.15625 0.5625 0.15625 1.171875l0 0.171875q0 0.625 -0.15625 1.203125q-0.140625 0.5625 -0.4375 0.984375q-0.3125 0.4375 -0.765625 0.6875q-0.4375 0.25 -1.03125 0.25q-0.609375 0 -1.0625 -0.25q-0.453125 -0.25 -0.75 -0.6875q-0.296875 -0.421875 -0.453125 -0.984375q-0.140625 -0.578125 -0.140625 -1.203125zm8.7890625 -4.3125l0 1.25l2.875 0l0 5.953125l-2.875 0l0 1.25l7.078125 0l0 -1.25l-2.765625 0l0 -7.203125l-4.3125 0zm2.6875 -2.21875q0 0.34375 0.203125 0.578125q0.21875 0.234375 0.65625 0.234375q0.4375 0 0.65625 -0.234375q0.21875 -0.234375 0.21875 -0.578125q0 -0.203125 -0.0625 -0.359375q-0.0625 -0.171875 -0.1875 -0.28125q-0.109375 -0.09375 -0.265625 -0.15625q-0.15625 -0.0625 -0.359375 -0.0625q-0.203125 0 -0.359375 0.0625q-0.15625 0.0625 -0.265625 0.15625q-0.125 0.125 -0.1875 0.296875q-0.046875 0.15625 -0.046875 0.34375zm6.6796875 10.671875l1.453125 0l0 -6.0625q0.140625 -0.28125 0.34375 -0.5q0.203125 -0.234375 0.4375 -0.40625q0.28125 -0.1875 0.625 -0.296875q0.34375 -0.125 0.75 -0.125q0.453125 0 0.8125 0.109375q0.359375 0.109375 0.609375 0.359375q0.234375 0.234375 0.359375 0.625q0.125 0.390625 0.125 0.953125l0 5.34375l1.453125 0l0 -5.375q0 -0.84375 -0.21875 -1.453125q-0.203125 -0.609375 -0.578125 -1.015625q-0.390625 -0.390625 -0.9375 -0.578125q-0.53125 -0.1875 -1.203125 -0.1875q-0.484375 0 -0.9375 0.140625q-0.4375 0.140625 -0.8125 0.390625q-0.25 0.15625 -0.46875 0.390625q-0.21875 0.21875 -0.40625 0.484375l-0.109375 -1.25l-1.296875 0l0 8.453125zm13.0234375 -10.5l-1.453125 0l0 2.046875l-2.21875 0l0 1.109375l2.21875 0l0 4.59375q0 0.78125 0.203125 1.34375q0.21875 0.546875 0.578125 0.890625q0.359375 0.34375 0.84375 0.515625q0.484375 0.15625 1.046875 0.15625q0.34375 0 0.671875 -0.03125q0.34375 -0.03125 0.65625 -0.09375q0.296875 -0.0625 0.546875 -0.140625q0.265625 -0.078125 0.453125 -0.1875l-0.203125 -1.03125q-0.140625 0.03125 -0.34375 0.078125q-0.203125 0.046875 -0.4375 0.078125q-0.25 0.046875 -0.5 0.078125q-0.25 0.015625 -0.484375 0.015625q-0.3125 0 -0.609375 -0.078125q-0.28125 -0.078125 -0.5 -0.265625q-0.21875 -0.1875 -0.34375 -0.5q-0.125 -0.328125 -0.125 -0.828125l0 -4.59375l3.21875 0l0 -1.109375l-3.21875 0l0 -2.046875zm9.9140625 10.65625q1.234375 0 2.078125 -0.5q0.84375 -0.5 1.265625 -1.140625l-0.890625 -0.6875q-0.390625 0.515625 -1.0 0.828125q-0.59375 0.3125 -1.375 0.3125q-0.578125 0 -1.0625 -0.21875q-0.484375 -0.21875 -0.828125 -0.59375q-0.34375 -0.359375 -0.53125 -0.828125q-0.1875 -0.46875 -0.25 -1.09375l0 -0.046875l6.046875 0l0 -0.65625q0 -0.875 -0.234375 -1.625q-0.21875 -0.765625 -0.671875 -1.328125q-0.453125 -0.5625 -1.140625 -0.875q-0.671875 -0.3125 -1.59375 -0.3125q-0.71875 0 -1.421875 0.296875q-0.6875 0.296875 -1.21875 0.84375q-0.546875 0.5625 -0.875 1.375q-0.328125 0.8125 -0.328125 1.828125l0 0.328125q0 0.890625 0.296875 1.640625q0.296875 0.75 0.828125 1.296875q0.53125 0.546875 1.265625 0.859375q0.75 0.296875 1.640625 0.296875zm-0.1875 -7.578125q0.5625 0 0.953125 0.203125q0.40625 0.203125 0.671875 0.53125q0.265625 0.328125 0.40625 0.78125q0.15625 0.4375 0.15625 0.828125l0 0.078125l-4.546875 0q0.09375 -0.59375 0.296875 -1.03125q0.21875 -0.453125 0.53125 -0.765625q0.3125 -0.3125 0.703125 -0.46875q0.390625 -0.15625 0.828125 -0.15625zm11.6015625 -1.1875q-0.921875 0 -1.65625 0.40625q-0.71875 0.390625 -1.234375 1.09375l0 -0.21875l-0.0625 -1.125l-1.375 0l0 8.453125l1.453125 0l0 -5.421875q0.140625 -0.390625 0.34375 -0.703125q0.21875 -0.328125 0.515625 -0.546875q0.3125 -0.25 0.734375 -0.375q0.4375 -0.125 0.96875 -0.125q0.421875 0 0.796875 0.046875q0.375 0.03125 0.796875 0.125l0.203125 -1.40625q-0.21875 -0.09375 -0.65625 -0.140625q-0.4375 -0.0625 -0.828125 -0.0625z" fill-rule="nonzero"/><path fill="#000000" fill-opacity="0.0" d="m379.32547 282.97375c0 28.015747 18.015747 56.031494 36.031494 56.031494" fill-rule="evenodd"/><path stroke="#000000" stroke-width="1.0" stroke-linejoin="round" stroke-linecap="butt" d="m379.32547 282.97375c0 14.007874 4.503937 28.015747 11.259827 38.521637c3.3779602 5.25296 7.3189087 9.630432 11.541351 12.694641c2.111206 1.532135 4.292816 2.7359314 6.5095825 3.5566711c0.1385498 0.051330566 0.2772522 0.101135254 0.41604614 0.14941406l0.38519287 0.12966919" fill-rule="evenodd"/><path fill="#000000" stroke="#000000" stroke-width="1.0" stroke-linecap="butt" d="m409.16782 339.65536l4.7468567 -0.8887634l-4.207611 -2.3703918z" fill-rule="evenodd"/></g></svg>