<?xml version="1.0" encoding="utf-8"?>
<!-- Generator: Adobe Illustrator 24.0.2, SVG Export Plug-In . SVG Version: 6.00 Build 0)  -->
<svg version="1.1" id="Layer_1" xmlns="http://www.w3.org/2000/svg" xmlns:xlink="http://www.w3.org/1999/xlink" x="0px" y="0px"
	 viewBox="0 0 774.5 365" style="enable-background:new 0 0 774.5 365;" xml:space="preserve">
<style type="text/css">
	.st0{clip-path:url(#SVGID_2_);}
	.st1{fill-rule:evenodd;clip-rule:evenodd;fill:#FFFFFF;}
	.st2{fill-rule:evenodd;clip-rule:evenodd;fill-opacity:0;}
	.st3{fill:#FF0000;}
	.st4{fill:none;stroke:#595959;stroke-linejoin:round;stroke-miterlimit:10;}
	.st5{fill-rule:evenodd;clip-rule:evenodd;fill:#595959;stroke:#595959;stroke-miterlimit:10;}
	.st6{fill:#FF9900;}
	.st7{fill-rule:evenodd;clip-rule:evenodd;fill:#F4CCCC;}
</style>
<g>
	<defs>
		<rect id="SVGID_1_" x="-145.3" y="-112.4" width="960" height="540"/>
	</defs>
	<clipPath id="SVGID_2_">
		<use xlink:href="#SVGID_1_"  style="overflow:visible;"/>
	</clipPath>
	<g class="st0">
		<path class="st1" d="M-145.3-112.4h960v540h-960V-112.4z"/>
		<path class="st2" d="M64.5,91.5h231.9v27.1H64.5V91.5z"/>
		<path d="M126.7,112v-9.7h1.5v1.4c0.3-0.5,0.7-0.9,1.2-1.1c0.5-0.3,1.1-0.4,1.7-0.4c0.7,0,1.3,0.2,1.8,0.5c0.5,0.3,0.8,0.7,1,1.2
			c0.8-1.1,1.8-1.7,3-1.7c1,0,1.7,0.3,2.2,0.8c0.5,0.5,0.8,1.3,0.8,2.5v6.6h-1.6v-6.1c0-0.7-0.1-1.1-0.2-1.4
			c-0.1-0.3-0.3-0.5-0.6-0.7c-0.3-0.2-0.6-0.3-1-0.3c-0.7,0-1.2,0.2-1.7,0.7c-0.4,0.4-0.7,1.2-0.7,2.2v5.6h-1.6v-6.3
			c0-0.7-0.1-1.3-0.4-1.6c-0.3-0.4-0.7-0.5-1.3-0.5c-0.5,0-0.9,0.1-1.3,0.4c-0.4,0.2-0.7,0.6-0.9,1.1c-0.2,0.5-0.3,1.1-0.3,2v5
			H126.7z M141.6,107.1c0-1.8,0.5-3.1,1.5-4c0.8-0.7,1.8-1.1,3-1.1c1.3,0,2.4,0.4,3.3,1.3c0.8,0.9,1.3,2.1,1.3,3.6
			c0,1.2-0.2,2.2-0.6,2.9c-0.4,0.7-0.9,1.3-1.6,1.7c-0.7,0.4-1.5,0.6-2.3,0.6c-1.4,0-2.4-0.4-3.3-1.3
			C142,110,141.6,108.7,141.6,107.1z M143.3,107.1c0,1.2,0.3,2.2,0.8,2.8c0.5,0.6,1.2,0.9,2,0.9c0.8,0,1.5-0.3,2-0.9
			c0.5-0.6,0.8-1.6,0.8-2.8c0-1.2-0.3-2.1-0.8-2.7c-0.5-0.6-1.2-0.9-2-0.9c-0.8,0-1.5,0.3-2,0.9
			C143.6,104.9,143.3,105.9,143.3,107.1z M154.1,112h-1.5V98.6h1.6v4.8c0.7-0.9,1.6-1.3,2.7-1.3c0.6,0,1.2,0.1,1.7,0.4
			c0.5,0.2,1,0.6,1.3,1c0.3,0.4,0.6,0.9,0.8,1.6c0.2,0.6,0.3,1.3,0.3,2c0,1.7-0.4,2.9-1.2,3.8c-0.8,0.9-1.8,1.4-3,1.4
			c-1.1,0-2-0.5-2.7-1.4V112z M154.1,107c0,1.2,0.2,2,0.5,2.5c0.5,0.8,1.2,1.3,2.1,1.3c0.7,0,1.3-0.3,1.9-0.9s0.8-1.6,0.8-2.8
			c0-1.3-0.3-2.2-0.8-2.8c-0.5-0.6-1.1-0.9-1.8-0.9c-0.7,0-1.3,0.3-1.9,0.9C154.4,105,154.1,105.9,154.1,107z M163,100.5v-1.9h1.6
			v1.9H163z M163,112v-9.7h1.6v9.7H163z M167.1,112V98.6h1.6V112H167.1z M177.9,108.8l1.7,0.2c-0.3,1-0.8,1.8-1.5,2.3
			c-0.7,0.5-1.6,0.8-2.8,0.8c-1.4,0-2.5-0.4-3.4-1.3c-0.8-0.9-1.2-2.1-1.2-3.7c0-1.6,0.4-2.9,1.3-3.8c0.8-0.9,1.9-1.3,3.3-1.3
			c1.3,0,2.3,0.4,3.2,1.3c0.8,0.9,1.2,2.1,1.2,3.7c0,0.1,0,0.3,0,0.4h-7.2c0.1,1.1,0.4,1.9,0.9,2.5c0.5,0.6,1.2,0.8,2,0.8
			c0.6,0,1.1-0.2,1.5-0.5C177.3,110,177.7,109.5,177.9,108.8z M172.5,106.2h5.4c-0.1-0.8-0.3-1.4-0.6-1.8c-0.5-0.6-1.2-1-2-1
			c-0.8,0-1.4,0.3-1.9,0.8C172.8,104.7,172.6,105.3,172.5,106.2z M188,110.8c-0.6,0.5-1.2,0.9-1.8,1.1c-0.6,0.2-1.2,0.3-1.8,0.3
			c-1.1,0-1.9-0.3-2.5-0.8c-0.6-0.5-0.9-1.2-0.9-2c0-0.5,0.1-0.9,0.3-1.3c0.2-0.4,0.5-0.7,0.8-0.9c0.4-0.2,0.8-0.4,1.2-0.5
			c0.3-0.1,0.8-0.2,1.5-0.3c1.3-0.2,2.3-0.3,2.9-0.6c0-0.2,0-0.4,0-0.4c0-0.7-0.2-1.1-0.5-1.4c-0.4-0.4-1-0.5-1.9-0.5
			c-0.8,0-1.3,0.1-1.7,0.4c-0.4,0.3-0.6,0.7-0.8,1.4l-1.6-0.2c0.1-0.7,0.4-1.2,0.7-1.6c0.3-0.4,0.8-0.8,1.5-1
			c0.6-0.2,1.4-0.3,2.2-0.3c0.8,0,1.5,0.1,2,0.3c0.5,0.2,0.9,0.4,1.1,0.7c0.3,0.3,0.4,0.7,0.5,1.1c0.1,0.3,0.1,0.8,0.1,1.5v2.2
			c0,1.5,0,2.5,0.1,2.9c0.1,0.4,0.2,0.8,0.4,1.2h-1.7C188.1,111.6,188,111.2,188,110.8z M187.8,107.1c-0.6,0.3-1.5,0.5-2.7,0.6
			c-0.7,0.1-1.2,0.2-1.4,0.3s-0.5,0.3-0.7,0.5c-0.1,0.2-0.2,0.5-0.2,0.8c0,0.4,0.2,0.8,0.5,1.1c0.3,0.3,0.8,0.4,1.5,0.4
			c0.6,0,1.2-0.1,1.7-0.4c0.5-0.3,0.9-0.7,1.1-1.1c0.2-0.4,0.3-0.9,0.3-1.6V107.1z M191.4,109.1l1.6-0.3c0.1,0.6,0.3,1.1,0.8,1.5
			c0.4,0.3,1,0.5,1.8,0.5c0.8,0,1.3-0.2,1.7-0.5c0.4-0.3,0.5-0.7,0.5-1.1c0-0.4-0.2-0.7-0.5-0.9c-0.2-0.1-0.8-0.3-1.7-0.5
			c-1.2-0.3-2-0.6-2.5-0.8c-0.5-0.2-0.8-0.5-1-0.9c-0.2-0.4-0.4-0.8-0.4-1.3c0-0.4,0.1-0.8,0.3-1.2c0.2-0.4,0.5-0.7,0.8-0.9
			c0.3-0.2,0.6-0.3,1-0.5c0.4-0.1,0.9-0.2,1.4-0.2c0.8,0,1.4,0.1,2,0.3c0.6,0.2,1,0.5,1.3,0.9c0.3,0.4,0.5,0.9,0.6,1.5l-1.6,0.2
			c-0.1-0.5-0.3-0.9-0.6-1.2c-0.3-0.3-0.8-0.4-1.5-0.4c-0.8,0-1.3,0.1-1.6,0.4c-0.3,0.3-0.5,0.5-0.5,0.9c0,0.2,0.1,0.4,0.2,0.6
			c0.1,0.2,0.3,0.3,0.6,0.4c0.2,0.1,0.6,0.2,1.4,0.4c1.2,0.3,2,0.6,2.4,0.8c0.5,0.2,0.8,0.5,1.1,0.9c0.3,0.4,0.4,0.8,0.4,1.4
			c0,0.6-0.2,1.1-0.5,1.5c-0.3,0.5-0.8,0.9-1.4,1.1c-0.6,0.3-1.3,0.4-2,0.4c-1.3,0-2.2-0.3-2.9-0.8
			C192,110.9,191.6,110.1,191.4,109.1z M200.7,109.1l1.6-0.3c0.1,0.6,0.3,1.1,0.8,1.5c0.4,0.3,1,0.5,1.8,0.5c0.8,0,1.3-0.2,1.7-0.5
			c0.4-0.3,0.5-0.7,0.5-1.1c0-0.4-0.2-0.7-0.5-0.9c-0.2-0.1-0.8-0.3-1.7-0.5c-1.2-0.3-2-0.6-2.5-0.8c-0.5-0.2-0.8-0.5-1-0.9
			c-0.2-0.4-0.4-0.8-0.4-1.3c0-0.4,0.1-0.8,0.3-1.2c0.2-0.4,0.5-0.7,0.8-0.9c0.3-0.2,0.6-0.3,1-0.5c0.4-0.1,0.9-0.2,1.4-0.2
			c0.8,0,1.4,0.1,2,0.3c0.6,0.2,1,0.5,1.3,0.9c0.3,0.4,0.5,0.9,0.6,1.5l-1.6,0.2c-0.1-0.5-0.3-0.9-0.6-1.2c-0.3-0.3-0.8-0.4-1.5-0.4
			c-0.8,0-1.3,0.1-1.6,0.4c-0.3,0.3-0.5,0.5-0.5,0.9c0,0.2,0.1,0.4,0.2,0.6c0.1,0.2,0.3,0.3,0.6,0.4c0.2,0.1,0.6,0.2,1.4,0.4
			c1.2,0.3,2,0.6,2.4,0.8c0.5,0.2,0.8,0.5,1.1,0.9c0.3,0.4,0.4,0.8,0.4,1.4c0,0.6-0.2,1.1-0.5,1.5c-0.3,0.5-0.8,0.9-1.4,1.1
			c-0.6,0.3-1.3,0.4-2,0.4c-1.2,0-2.2-0.3-2.9-0.8C201.3,110.9,200.9,110.1,200.7,109.1z M217.3,108.8l1.7,0.2
			c-0.3,1-0.8,1.8-1.5,2.3c-0.7,0.5-1.6,0.8-2.8,0.8c-1.4,0-2.5-0.4-3.4-1.3c-0.8-0.9-1.2-2.1-1.2-3.7c0-1.6,0.4-2.9,1.3-3.8
			c0.8-0.9,1.9-1.3,3.3-1.3c1.3,0,2.3,0.4,3.2,1.3c0.8,0.9,1.2,2.1,1.2,3.7c0,0.1,0,0.3,0,0.4h-7.2c0.1,1.1,0.4,1.9,0.9,2.5
			c0.5,0.6,1.2,0.8,2,0.8c0.6,0,1.1-0.2,1.5-0.5C216.7,110,217.1,109.5,217.3,108.8z M211.9,106.2h5.4c-0.1-0.8-0.3-1.4-0.6-1.8
			c-0.5-0.6-1.2-1-2-1c-0.7,0-1.4,0.3-1.9,0.8C212.3,104.7,212,105.3,211.9,106.2z M224.6,110.5l0.2,1.5c-0.5,0.1-0.9,0.1-1.2,0.1
			c-0.6,0-1.1-0.1-1.4-0.3c-0.3-0.2-0.6-0.4-0.7-0.7c-0.1-0.3-0.2-1-0.2-1.9v-5.6h-1.2v-1.3h1.2v-2.4l1.6-1v3.4h1.7v1.3H223v5.7
			c0,0.5,0,0.8,0.1,0.9c0.1,0.1,0.2,0.2,0.3,0.3c0.1,0.1,0.3,0.1,0.6,0.1C224.1,110.5,224.3,110.5,224.6,110.5z M232.5,112v-1.2
			c-0.6,1-1.5,1.4-2.7,1.4c-0.8,0-1.5-0.2-2.1-0.6c-0.6-0.4-1.1-1-1.5-1.8c-0.4-0.8-0.5-1.6-0.5-2.6c0-1,0.2-1.8,0.5-2.6
			c0.3-0.8,0.8-1.4,1.4-1.8c0.6-0.4,1.4-0.6,2.2-0.6c0.6,0,1.1,0.1,1.5,0.4c0.5,0.2,0.8,0.6,1.1,1v-4.8h1.6V112H232.5z M227.3,107.1
			c0,1.2,0.3,2.2,0.8,2.8c0.5,0.6,1.1,0.9,1.8,0.9c0.7,0,1.3-0.3,1.8-0.9c0.5-0.6,0.8-1.5,0.8-2.7c0-1.3-0.3-2.3-0.8-2.9
			c-0.5-0.6-1.1-0.9-1.9-0.9c-0.7,0-1.3,0.3-1.8,0.9S227.3,105.8,227.3,107.1z"/>
		<path class="st2" d="M11.3,187.5h193.3V231H11.3V187.5z"/>
		<path class="st3" d="M33.9,200.5l1.8,0.5c-0.4,1.4-1,2.6-2,3.3c-1,0.8-2.1,1.1-3.5,1.1c-1.4,0-2.6-0.3-3.5-0.9
			c-0.9-0.6-1.6-1.4-2.1-2.5c-0.5-1.1-0.7-2.3-0.7-3.6c0-1.4,0.3-2.6,0.8-3.6c0.5-1,1.3-1.8,2.3-2.4c1-0.5,2.1-0.8,3.3-0.8
			c1.3,0,2.5,0.3,3.4,1c0.9,0.7,1.6,1.6,1.9,2.9l-1.7,0.4c-0.3-1-0.8-1.7-1.4-2.1c-0.6-0.4-1.3-0.7-2.2-0.7c-1,0-1.9,0.2-2.6,0.7
			s-1.2,1.2-1.5,2c-0.3,0.8-0.4,1.7-0.4,2.6c0,1.1,0.2,2.1,0.5,3s0.8,1.5,1.5,1.9c0.7,0.4,1.5,0.6,2.3,0.6c1,0,1.8-0.3,2.5-0.9
			C33.2,202.4,33.7,201.6,33.9,200.5z M37,200.3c0-1.8,0.5-3.1,1.5-4c0.8-0.7,1.8-1.1,3-1.1c1.3,0,2.4,0.4,3.3,1.3
			c0.8,0.9,1.3,2.1,1.3,3.6c0,1.2-0.2,2.2-0.6,2.9c-0.4,0.7-0.9,1.3-1.6,1.7c-0.7,0.4-1.5,0.6-2.3,0.6c-1.4,0-2.4-0.4-3.3-1.3
			C37.4,203.2,37,202,37,200.3z M38.7,200.3c0,1.2,0.3,2.2,0.8,2.8c0.5,0.6,1.2,0.9,2,0.9c0.8,0,1.5-0.3,2-0.9
			c0.5-0.6,0.8-1.6,0.8-2.8c0-1.2-0.3-2.1-0.8-2.7c-0.5-0.6-1.2-0.9-2-0.9c-0.8,0-1.5,0.3-2,0.9C39,198.2,38.7,199.1,38.7,200.3z
			 M48,205.2v-9.7h1.5v1.4c0.3-0.5,0.7-0.9,1.2-1.1c0.5-0.3,1.1-0.4,1.7-0.4c0.7,0,1.3,0.2,1.8,0.5c0.5,0.3,0.8,0.7,1,1.2
			c0.8-1.1,1.8-1.7,3-1.7c1,0,1.7,0.3,2.2,0.8c0.5,0.5,0.8,1.3,0.8,2.5v6.6h-1.6v-6.1c0-0.7-0.1-1.1-0.2-1.4
			c-0.1-0.3-0.3-0.5-0.6-0.7c-0.3-0.2-0.6-0.3-1-0.3c-0.7,0-1.2,0.2-1.7,0.7c-0.4,0.4-0.7,1.2-0.7,2.2v5.6h-1.6v-6.3
			c0-0.7-0.1-1.3-0.4-1.6c-0.3-0.4-0.7-0.5-1.3-0.5c-0.5,0-0.9,0.1-1.3,0.4c-0.4,0.2-0.7,0.6-0.9,1.1c-0.2,0.5-0.3,1.1-0.3,2v5H48z
			 M63.6,208.9v-13.4H65v1.3c0.4-0.5,0.8-0.9,1.2-1.1c0.4-0.3,1-0.4,1.6-0.4c0.8,0,1.5,0.2,2.2,0.6c0.6,0.4,1.1,1,1.4,1.8
			c0.3,0.8,0.5,1.6,0.5,2.5c0,1-0.2,1.9-0.5,2.7s-0.9,1.4-1.5,1.8c-0.7,0.4-1.4,0.6-2.1,0.6c-0.5,0-1-0.1-1.5-0.3s-0.8-0.5-1.1-0.9
			v4.7H63.6z M65,200.4c0,1.2,0.3,2.2,0.8,2.8c0.5,0.6,1.1,0.9,1.8,0.9c0.7,0,1.4-0.3,1.9-0.9c0.5-0.6,0.8-1.6,0.8-2.9
			c0-1.2-0.3-2.2-0.8-2.8c-0.5-0.6-1.1-0.9-1.8-0.9c-0.7,0-1.3,0.3-1.9,1C65.3,198.2,65,199.1,65,200.4z M73.9,205.2v-9.7h1.5v1.5
			c0.4-0.7,0.7-1.1,1-1.4c0.3-0.2,0.7-0.3,1.1-0.3c0.6,0,1.1,0.2,1.7,0.5l-0.6,1.5c-0.4-0.2-0.8-0.4-1.2-0.4c-0.4,0-0.7,0.1-1,0.3
			s-0.5,0.5-0.6,0.9c-0.2,0.6-0.3,1.2-0.3,1.9v5.1H73.9z M79.5,200.3c0-1.8,0.5-3.1,1.5-4c0.8-0.7,1.8-1.1,3-1.1
			c1.3,0,2.4,0.4,3.3,1.3c0.8,0.9,1.3,2.1,1.3,3.6c0,1.2-0.2,2.2-0.6,2.9c-0.4,0.7-0.9,1.3-1.6,1.7c-0.7,0.4-1.5,0.6-2.3,0.6
			c-1.4,0-2.4-0.4-3.3-1.3C80,203.2,79.5,202,79.5,200.3z M81.2,200.3c0,1.2,0.3,2.2,0.8,2.8c0.5,0.6,1.2,0.9,2,0.9
			c0.8,0,1.5-0.3,2-0.9c0.5-0.6,0.8-1.6,0.8-2.8c0-1.2-0.3-2.1-0.8-2.7c-0.5-0.6-1.2-0.9-2-0.9c-0.8,0-1.5,0.3-2,0.9
			C81.5,198.2,81.2,199.1,81.2,200.3z M90.5,205.2v-9.7H92v1.4c0.3-0.5,0.7-0.9,1.2-1.1c0.5-0.3,1.1-0.4,1.7-0.4
			c0.7,0,1.3,0.2,1.8,0.5c0.5,0.3,0.8,0.7,1,1.2c0.8-1.1,1.8-1.7,3-1.7c1,0,1.7,0.3,2.2,0.8c0.5,0.5,0.8,1.3,0.8,2.5v6.6H102v-6.1
			c0-0.7-0.1-1.1-0.2-1.4c-0.1-0.3-0.3-0.5-0.6-0.7s-0.6-0.3-1-0.3c-0.7,0-1.2,0.2-1.7,0.7c-0.4,0.4-0.7,1.2-0.7,2.2v5.6h-1.6v-6.3
			c0-0.7-0.1-1.3-0.4-1.6s-0.7-0.5-1.3-0.5c-0.5,0-0.9,0.1-1.3,0.4s-0.7,0.6-0.9,1.1c-0.2,0.5-0.3,1.1-0.3,2v5H90.5z M106.1,193.7
			v-1.9h1.6v1.9H106.1z M106.1,205.2v-9.7h1.6v9.7H106.1z M109.5,202.3l1.6-0.3c0.1,0.6,0.3,1.1,0.8,1.5c0.4,0.3,1,0.5,1.8,0.5
			s1.3-0.2,1.7-0.5c0.4-0.3,0.5-0.7,0.5-1.1c0-0.4-0.2-0.7-0.5-0.9c-0.2-0.1-0.8-0.3-1.7-0.5c-1.2-0.3-2-0.6-2.5-0.8
			c-0.5-0.2-0.8-0.5-1-0.9c-0.2-0.4-0.4-0.8-0.4-1.3c0-0.4,0.1-0.8,0.3-1.2c0.2-0.4,0.5-0.7,0.8-0.9c0.3-0.2,0.6-0.3,1-0.5
			c0.4-0.1,0.9-0.2,1.4-0.2c0.8,0,1.4,0.1,2,0.3c0.6,0.2,1,0.5,1.3,0.9c0.3,0.4,0.5,0.9,0.6,1.5l-1.6,0.2c-0.1-0.5-0.3-0.9-0.6-1.2
			c-0.3-0.3-0.8-0.4-1.5-0.4c-0.8,0-1.3,0.1-1.6,0.4c-0.3,0.3-0.5,0.5-0.5,0.9c0,0.2,0.1,0.4,0.2,0.6c0.1,0.2,0.3,0.3,0.6,0.4
			c0.2,0.1,0.6,0.2,1.4,0.4c1.2,0.3,2,0.6,2.4,0.8c0.5,0.2,0.8,0.5,1.1,0.9c0.3,0.4,0.4,0.8,0.4,1.4c0,0.6-0.2,1.1-0.5,1.5
			c-0.3,0.5-0.8,0.9-1.4,1.1c-0.6,0.3-1.3,0.4-2,0.4c-1.3,0-2.2-0.3-2.9-0.8C110.1,204.1,109.7,203.3,109.5,202.3z M126.2,202.1
			l1.7,0.2c-0.3,1-0.8,1.8-1.5,2.3c-0.7,0.5-1.6,0.8-2.8,0.8c-1.4,0-2.5-0.4-3.4-1.3c-0.8-0.9-1.2-2.1-1.2-3.7
			c0-1.6,0.4-2.9,1.3-3.8c0.8-0.9,1.9-1.3,3.3-1.3c1.3,0,2.3,0.4,3.2,1.3c0.8,0.9,1.2,2.1,1.2,3.7c0,0.1,0,0.3,0,0.4h-7.2
			c0.1,1.1,0.4,1.9,0.9,2.5c0.5,0.6,1.2,0.8,2,0.8c0.6,0,1.1-0.2,1.5-0.5C125.6,203.2,125.9,202.7,126.2,202.1z M120.8,199.4h5.4
			c-0.1-0.8-0.3-1.4-0.6-1.8c-0.5-0.6-1.2-1-2-1c-0.8,0-1.4,0.3-1.9,0.8C121.1,197.9,120.8,198.6,120.8,199.4z M136.2,205.2v-1.2
			c-0.6,1-1.5,1.4-2.7,1.4c-0.8,0-1.5-0.2-2.1-0.6s-1.1-1-1.5-1.8s-0.5-1.6-0.5-2.6c0-1,0.2-1.8,0.5-2.6c0.3-0.8,0.8-1.4,1.4-1.8
			c0.6-0.4,1.4-0.6,2.2-0.6c0.6,0,1.1,0.1,1.5,0.4c0.5,0.2,0.8,0.6,1.1,1v-4.8h1.6v13.4H136.2z M131,200.3c0,1.2,0.3,2.2,0.8,2.8
			s1.1,0.9,1.8,0.9c0.7,0,1.3-0.3,1.8-0.9c0.5-0.6,0.8-1.5,0.8-2.7c0-1.3-0.3-2.3-0.8-2.9c-0.5-0.6-1.1-0.9-1.9-0.9
			c-0.7,0-1.3,0.3-1.8,0.9S131,199.1,131,200.3z M145.1,200.9l1.7-0.1c0.1,0.7,0.3,1.2,0.5,1.6c0.3,0.4,0.7,0.8,1.3,1
			c0.6,0.3,1.3,0.4,2.1,0.4c0.7,0,1.3-0.1,1.8-0.3s0.9-0.5,1.2-0.8c0.3-0.4,0.4-0.7,0.4-1.2s-0.1-0.8-0.4-1.1
			c-0.2-0.3-0.6-0.6-1.2-0.8c-0.4-0.1-1.2-0.3-2.4-0.6c-1.2-0.3-2.1-0.6-2.6-0.8c-0.6-0.3-1.1-0.7-1.4-1.2c-0.3-0.5-0.5-1.1-0.5-1.7
			c0-0.7,0.2-1.3,0.6-1.9c0.4-0.6,0.9-1,1.7-1.3c0.7-0.3,1.6-0.5,2.5-0.5c1,0,1.9,0.2,2.6,0.5c0.8,0.3,1.3,0.8,1.8,1.4
			c0.4,0.6,0.6,1.3,0.7,2.1l-1.7,0.1c-0.1-0.8-0.4-1.5-0.9-1.9c-0.5-0.4-1.3-0.7-2.3-0.7c-1.1,0-1.9,0.2-2.3,0.6s-0.7,0.9-0.7,1.4
			c0,0.5,0.2,0.9,0.5,1.2c0.3,0.3,1.2,0.6,2.7,1c1.4,0.3,2.4,0.6,3,0.8c0.8,0.4,1.4,0.8,1.7,1.4c0.4,0.6,0.6,1.2,0.6,1.9
			c0,0.7-0.2,1.4-0.6,2c-0.4,0.6-1,1.1-1.8,1.5c-0.8,0.3-1.6,0.5-2.6,0.5c-1.2,0-2.2-0.2-3-0.5c-0.8-0.4-1.5-0.9-1.9-1.6
			C145.3,202.6,145.1,201.8,145.1,200.9z M164.2,204c-0.6,0.5-1.2,0.9-1.8,1.1c-0.6,0.2-1.2,0.3-1.8,0.3c-1.1,0-1.9-0.3-2.5-0.8
			c-0.6-0.5-0.9-1.2-0.9-2c0-0.5,0.1-0.9,0.3-1.3c0.2-0.4,0.5-0.7,0.8-0.9c0.4-0.2,0.8-0.4,1.2-0.5c0.3-0.1,0.8-0.2,1.5-0.3
			c1.3-0.2,2.3-0.3,2.9-0.6c0-0.2,0-0.4,0-0.4c0-0.7-0.2-1.1-0.5-1.4c-0.4-0.4-1-0.5-1.9-0.5c-0.8,0-1.3,0.1-1.7,0.4
			c-0.4,0.3-0.6,0.7-0.8,1.4l-1.6-0.2c0.1-0.7,0.4-1.2,0.7-1.6c0.3-0.4,0.8-0.8,1.5-1c0.6-0.2,1.4-0.3,2.2-0.3c0.8,0,1.5,0.1,2,0.3
			c0.5,0.2,0.9,0.4,1.1,0.7c0.3,0.3,0.4,0.7,0.5,1.1c0.1,0.3,0.1,0.8,0.1,1.5v2.2c0,1.5,0,2.5,0.1,2.9c0.1,0.4,0.2,0.8,0.4,1.2h-1.7
			C164.4,204.8,164.3,204.4,164.2,204z M164.1,200.3c-0.6,0.3-1.5,0.5-2.7,0.6c-0.7,0.1-1.2,0.2-1.4,0.3s-0.5,0.3-0.7,0.5
			c-0.1,0.2-0.2,0.5-0.2,0.8c0,0.4,0.2,0.8,0.5,1.1c0.3,0.3,0.8,0.4,1.5,0.4c0.6,0,1.2-0.1,1.7-0.4c0.5-0.3,0.9-0.7,1.1-1.1
			c0.2-0.4,0.3-0.9,0.3-1.6V200.3z M168.7,205.2v-8.4h-1.5v-1.3h1.5v-1c0-0.6,0.1-1.1,0.2-1.5c0.2-0.4,0.4-0.8,0.8-1s1-0.4,1.7-0.4
			c0.5,0,1,0.1,1.5,0.2l-0.3,1.4c-0.3-0.1-0.7-0.1-1-0.1c-0.5,0-0.9,0.1-1.1,0.3c-0.2,0.2-0.3,0.6-0.3,1.2v0.9h1.9v1.3h-1.9v8.4
			H168.7z M179.8,204c-0.6,0.5-1.2,0.9-1.8,1.1c-0.6,0.2-1.2,0.3-1.8,0.3c-1.1,0-1.9-0.3-2.5-0.8c-0.6-0.5-0.9-1.2-0.9-2
			c0-0.5,0.1-0.9,0.3-1.3c0.2-0.4,0.5-0.7,0.8-0.9c0.4-0.2,0.8-0.4,1.2-0.5c0.3-0.1,0.8-0.2,1.5-0.3c1.3-0.2,2.3-0.3,2.9-0.6
			c0-0.2,0-0.4,0-0.4c0-0.7-0.2-1.1-0.5-1.4c-0.4-0.4-1-0.5-1.9-0.5c-0.8,0-1.3,0.1-1.7,0.4c-0.4,0.3-0.6,0.7-0.8,1.4l-1.6-0.2
			c0.1-0.7,0.4-1.2,0.7-1.6c0.3-0.4,0.8-0.8,1.5-1c0.6-0.2,1.4-0.3,2.2-0.3c0.8,0,1.5,0.1,2,0.3c0.5,0.2,0.9,0.4,1.1,0.7
			c0.3,0.3,0.4,0.7,0.5,1.1c0.1,0.3,0.1,0.8,0.1,1.5v2.2c0,1.5,0,2.5,0.1,2.9c0.1,0.4,0.2,0.8,0.4,1.2h-1.7
			C179.9,204.8,179.8,204.4,179.8,204z M179.6,200.3c-0.6,0.3-1.5,0.5-2.7,0.6c-0.7,0.1-1.2,0.2-1.4,0.3s-0.5,0.3-0.7,0.5
			c-0.1,0.2-0.2,0.5-0.2,0.8c0,0.4,0.2,0.8,0.5,1.1c0.3,0.3,0.8,0.4,1.5,0.4c0.6,0,1.2-0.1,1.7-0.4c0.5-0.3,0.9-0.7,1.1-1.1
			c0.2-0.4,0.3-0.9,0.3-1.6V200.3z M183.8,205.2v-9.7h1.5v1.5c0.4-0.7,0.7-1.1,1-1.4c0.3-0.2,0.7-0.3,1.1-0.3c0.6,0,1.1,0.2,1.7,0.5
			l-0.6,1.5c-0.4-0.2-0.8-0.4-1.2-0.4c-0.4,0-0.7,0.1-1,0.3s-0.5,0.5-0.6,0.9c-0.2,0.6-0.3,1.2-0.3,1.9v5.1H183.8z M190.1,193.7
			v-1.9h1.6v1.9H190.1z M190.1,205.2v-9.7h1.6v9.7H190.1z"/>
		<path class="st3" d="M70.5,227.2v-13.4h5.9c1.2,0,2.1,0.1,2.7,0.4c0.6,0.2,1.1,0.7,1.5,1.3c0.4,0.6,0.6,1.3,0.6,2
			c0,0.9-0.3,1.7-0.9,2.4c-0.6,0.6-1.6,1.1-2.8,1.2c0.5,0.2,0.8,0.5,1.1,0.7c0.5,0.5,1,1.1,1.5,1.8l2.3,3.6h-2.2l-1.8-2.8
			c-0.5-0.8-0.9-1.4-1.3-1.8c-0.3-0.4-0.6-0.7-0.9-0.9c-0.3-0.2-0.5-0.3-0.8-0.4c-0.2-0.1-0.5-0.1-1-0.1h-2v5.9H70.5z M72.3,219.7
			h3.8c0.8,0,1.4-0.1,1.9-0.3c0.5-0.2,0.8-0.4,1-0.8s0.4-0.8,0.4-1.2c0-0.6-0.2-1.2-0.7-1.6s-1.2-0.6-2.2-0.6h-4.2V219.7z
			 M90.4,224.1l1.7,0.2c-0.3,1-0.8,1.8-1.5,2.3c-0.7,0.5-1.6,0.8-2.8,0.8c-1.4,0-2.5-0.4-3.4-1.3c-0.8-0.9-1.2-2.1-1.2-3.7
			c0-1.6,0.4-2.9,1.3-3.8c0.8-0.9,1.9-1.3,3.3-1.3c1.3,0,2.3,0.4,3.2,1.3c0.8,0.9,1.2,2.1,1.2,3.7c0,0.1,0,0.3,0,0.4h-7.2
			c0.1,1.1,0.4,1.9,0.9,2.5c0.5,0.6,1.2,0.8,2,0.8c0.6,0,1.1-0.2,1.5-0.5C89.8,225.2,90.1,224.7,90.4,224.1z M85,221.4h5.4
			c-0.1-0.8-0.3-1.4-0.6-1.8c-0.5-0.6-1.2-1-2-1c-0.8,0-1.4,0.3-1.9,0.8C85.3,219.9,85.1,220.6,85,221.4z M94.1,227.2v-9.7h1.5v1.4
			c0.7-1.1,1.7-1.6,3.1-1.6c0.6,0,1.1,0.1,1.6,0.3c0.5,0.2,0.9,0.5,1.1,0.8c0.2,0.3,0.4,0.7,0.5,1.2c0.1,0.3,0.1,0.8,0.1,1.6v6h-1.6
			v-5.9c0-0.7-0.1-1.2-0.2-1.5c-0.1-0.3-0.3-0.6-0.7-0.8c-0.3-0.2-0.7-0.3-1.1-0.3c-0.7,0-1.3,0.2-1.8,0.7c-0.5,0.4-0.8,1.3-0.8,2.5
			v5.3H94.1z M110.8,227.2v-1.2c-0.6,1-1.5,1.4-2.7,1.4c-0.8,0-1.5-0.2-2.1-0.6c-0.6-0.4-1.1-1-1.5-1.8c-0.4-0.8-0.5-1.6-0.5-2.6
			c0-1,0.2-1.8,0.5-2.6c0.3-0.8,0.8-1.4,1.4-1.8c0.6-0.4,1.4-0.6,2.2-0.6c0.6,0,1.1,0.1,1.5,0.4c0.5,0.2,0.8,0.6,1.1,1v-4.8h1.6
			v13.4H110.8z M105.6,222.3c0,1.2,0.3,2.2,0.8,2.8c0.5,0.6,1.1,0.9,1.8,0.9c0.7,0,1.3-0.3,1.8-0.9c0.5-0.6,0.8-1.5,0.8-2.7
			c0-1.3-0.3-2.3-0.8-2.9c-0.5-0.6-1.1-0.9-1.9-0.9c-0.7,0-1.3,0.3-1.8,0.9C105.9,220.1,105.6,221.1,105.6,222.3z M121.5,224.1
			l1.7,0.2c-0.3,1-0.8,1.8-1.5,2.3c-0.7,0.5-1.6,0.8-2.8,0.8c-1.4,0-2.5-0.4-3.4-1.3c-0.8-0.9-1.2-2.1-1.2-3.7
			c0-1.6,0.4-2.9,1.3-3.8c0.8-0.9,1.9-1.3,3.3-1.3c1.3,0,2.3,0.4,3.2,1.3c0.8,0.9,1.2,2.1,1.2,3.7c0,0.1,0,0.3,0,0.4H116
			c0.1,1.1,0.4,1.9,0.9,2.5c0.5,0.6,1.2,0.8,2,0.8c0.6,0,1.1-0.2,1.5-0.5C120.9,225.2,121.3,224.7,121.5,224.1z M116.1,221.4h5.4
			c-0.1-0.8-0.3-1.4-0.6-1.8c-0.5-0.6-1.2-1-2-1c-0.8,0-1.4,0.3-1.9,0.8C116.5,219.9,116.2,220.6,116.1,221.4z M125.3,227.2v-9.7
			h1.5v1.5c0.4-0.7,0.7-1.1,1-1.4c0.3-0.2,0.7-0.3,1.1-0.3c0.6,0,1.1,0.2,1.7,0.5l-0.6,1.5c-0.4-0.2-0.8-0.4-1.2-0.4
			c-0.4,0-0.7,0.1-1,0.3c-0.3,0.2-0.5,0.5-0.6,0.9c-0.2,0.6-0.3,1.2-0.3,1.9v5.1H125.3z M138.1,224.1l1.7,0.2
			c-0.3,1-0.8,1.8-1.5,2.3c-0.7,0.5-1.6,0.8-2.8,0.8c-1.4,0-2.5-0.4-3.4-1.3c-0.8-0.9-1.2-2.1-1.2-3.7c0-1.6,0.4-2.9,1.3-3.8
			c0.8-0.9,1.9-1.3,3.3-1.3c1.3,0,2.3,0.4,3.2,1.3c0.8,0.9,1.2,2.1,1.2,3.7c0,0.1,0,0.3,0,0.4h-7.2c0.1,1.1,0.4,1.9,0.9,2.5
			c0.5,0.6,1.2,0.8,2,0.8c0.6,0,1.1-0.2,1.5-0.5C137.5,225.2,137.9,224.7,138.1,224.1z M132.7,221.4h5.4c-0.1-0.8-0.3-1.4-0.6-1.8
			c-0.5-0.6-1.2-1-2-1c-0.8,0-1.4,0.3-1.9,0.8C133.1,219.9,132.8,220.6,132.7,221.4z M141.8,227.2v-9.7h1.5v1.5
			c0.4-0.7,0.7-1.1,1-1.4c0.3-0.2,0.7-0.3,1.1-0.3c0.6,0,1.1,0.2,1.7,0.5l-0.6,1.5c-0.4-0.2-0.8-0.4-1.2-0.4c-0.4,0-0.7,0.1-1,0.3
			s-0.5,0.5-0.6,0.9c-0.2,0.6-0.3,1.2-0.3,1.9v5.1H141.8z"/>
		<path class="st2" d="M107.9,187.5c0-17.2,18.1-25.8,36.2-34.5c18.1-8.6,36.2-17.2,36.2-34.5"/>
		<path class="st4" d="M107.9,187.5c0-17.2,18.1-25.8,36.2-34.5c9.1-4.3,18.1-8.6,24.9-14c3.4-2.7,6.2-5.7,8.2-9
			c1-1.7,1.8-3.5,2.3-5.4c0.1-0.5,0.2-1,0.4-1.4c0.1-0.2,0.1-0.5,0.1-0.7c0-0.1,0-0.2,0.1-0.4l0-0.1"/>
		<path class="st5" d="M180.2,122l1,1.2l-0.9-3.2l-1.3,3L180.2,122z"/>
		<path class="st2" d="M197.3,12.9h231.9v27.1H197.3V12.9z"/>
		<path class="st6" d="M259.2,32.1c-0.6,0.5-1.2,0.9-1.8,1.1c-0.6,0.2-1.2,0.3-1.8,0.3c-1.1,0-1.9-0.3-2.5-0.8
			c-0.6-0.5-0.9-1.2-0.9-2c0-0.5,0.1-0.9,0.3-1.3c0.2-0.4,0.5-0.7,0.8-0.9c0.4-0.2,0.8-0.4,1.2-0.5c0.3-0.1,0.8-0.2,1.5-0.3
			c1.3-0.2,2.3-0.3,2.9-0.6c0-0.2,0-0.4,0-0.4c0-0.7-0.2-1.1-0.5-1.4c-0.4-0.4-1-0.5-1.9-0.5c-0.8,0-1.3,0.1-1.7,0.4
			c-0.4,0.3-0.6,0.7-0.8,1.4l-1.6-0.2c0.1-0.7,0.4-1.2,0.7-1.6c0.3-0.4,0.8-0.8,1.5-1c0.6-0.2,1.4-0.3,2.2-0.3c0.8,0,1.5,0.1,2,0.3
			c0.5,0.2,0.9,0.4,1.1,0.7c0.3,0.3,0.4,0.7,0.5,1.1c0.1,0.3,0.1,0.8,0.1,1.5v2.2c0,1.5,0,2.5,0.1,2.9c0.1,0.4,0.2,0.8,0.4,1.2h-1.7
			C259.3,33,259.2,32.6,259.2,32.1z M259,28.4c-0.6,0.3-1.5,0.5-2.7,0.6c-0.7,0.1-1.2,0.2-1.4,0.3s-0.5,0.3-0.7,0.5
			c-0.1,0.2-0.2,0.5-0.2,0.8c0,0.4,0.2,0.8,0.5,1.1c0.3,0.3,0.8,0.4,1.5,0.4c0.6,0,1.2-0.1,1.7-0.4c0.5-0.3,0.9-0.7,1.1-1.1
			c0.2-0.4,0.3-0.9,0.3-1.6V28.4z M266.8,31.8l0.2,1.5c-0.5,0.1-0.9,0.1-1.2,0.1c-0.6,0-1.1-0.1-1.4-0.3c-0.3-0.2-0.6-0.4-0.7-0.7
			c-0.1-0.3-0.2-1-0.2-1.9v-5.6h-1.2v-1.3h1.2v-2.4l1.6-1v3.4h1.7v1.3h-1.7v5.7c0,0.5,0,0.8,0.1,0.9c0.1,0.1,0.2,0.2,0.3,0.3
			c0.1,0.1,0.3,0.1,0.6,0.1C266.3,31.9,266.5,31.9,266.8,31.8z M272,31.8l0.2,1.5c-0.5,0.1-0.9,0.1-1.2,0.1c-0.6,0-1.1-0.1-1.4-0.3
			c-0.3-0.2-0.6-0.4-0.7-0.7c-0.1-0.3-0.2-1-0.2-1.9v-5.6h-1.2v-1.3h1.2v-2.4l1.6-1v3.4h1.7v1.3h-1.7v5.7c0,0.5,0,0.8,0.1,0.9
			c0.1,0.1,0.2,0.2,0.3,0.3c0.1,0.1,0.3,0.1,0.6,0.1C271.5,31.9,271.7,31.9,272,31.8z M279.9,32.1c-0.6,0.5-1.2,0.9-1.8,1.1
			c-0.6,0.2-1.2,0.3-1.8,0.3c-1.1,0-1.9-0.3-2.5-0.8c-0.6-0.5-0.9-1.2-0.9-2c0-0.5,0.1-0.9,0.3-1.3c0.2-0.4,0.5-0.7,0.8-0.9
			c0.4-0.2,0.8-0.4,1.2-0.5c0.3-0.1,0.8-0.2,1.5-0.3c1.3-0.2,2.3-0.3,2.9-0.6c0-0.2,0-0.4,0-0.4c0-0.7-0.2-1.1-0.5-1.4
			c-0.4-0.4-1-0.5-1.9-0.5c-0.8,0-1.3,0.1-1.7,0.4c-0.4,0.3-0.6,0.7-0.8,1.4l-1.6-0.2c0.1-0.7,0.4-1.2,0.7-1.6
			c0.3-0.4,0.8-0.8,1.5-1c0.6-0.2,1.4-0.3,2.2-0.3c0.8,0,1.5,0.1,2,0.3c0.5,0.2,0.9,0.4,1.1,0.7c0.3,0.3,0.4,0.7,0.5,1.1
			c0.1,0.3,0.1,0.8,0.1,1.5v2.2c0,1.5,0,2.5,0.1,2.9c0.1,0.4,0.2,0.8,0.4,1.2h-1.7C280.1,33,280,32.6,279.9,32.1z M279.8,28.4
			c-0.6,0.3-1.5,0.5-2.7,0.6c-0.7,0.1-1.2,0.2-1.4,0.3c-0.3,0.1-0.5,0.3-0.7,0.5c-0.1,0.2-0.2,0.5-0.2,0.8c0,0.4,0.2,0.8,0.5,1.1
			c0.3,0.3,0.8,0.4,1.5,0.4c0.6,0,1.2-0.1,1.7-0.4c0.5-0.3,0.9-0.7,1.1-1.1c0.2-0.4,0.3-0.9,0.3-1.6V28.4z M290.3,29.8l1.6,0.2
			c-0.2,1.1-0.6,2-1.4,2.6c-0.7,0.6-1.6,0.9-2.7,0.9c-1.3,0-2.4-0.4-3.2-1.3c-0.8-0.9-1.2-2.1-1.2-3.7c0-1.1,0.2-2,0.5-2.8
			s0.9-1.4,1.6-1.8c0.7-0.4,1.5-0.6,2.3-0.6c1.1,0,1.9,0.3,2.6,0.8c0.7,0.5,1.1,1.3,1.3,2.3l-1.6,0.2c-0.2-0.6-0.4-1.1-0.8-1.5
			c-0.4-0.3-0.8-0.5-1.4-0.5c-0.8,0-1.5,0.3-2,0.9c-0.5,0.6-0.8,1.5-0.8,2.8c0,1.3,0.3,2.3,0.8,2.8c0.5,0.6,1.2,0.9,2,0.9
			c0.6,0,1.2-0.2,1.6-0.6C289.9,31.2,290.2,30.6,290.3,29.8z M293.3,33.3V19.9h1.6v7.6l3.9-3.9h2.1l-3.7,3.6l4.1,6.1h-2l-3.2-5
			l-1.2,1.1v3.8H293.3z M309.3,30.2l1.7,0.2c-0.3,1-0.8,1.8-1.5,2.3c-0.7,0.5-1.6,0.8-2.8,0.8c-1.4,0-2.5-0.4-3.4-1.3
			c-0.8-0.9-1.2-2.1-1.2-3.7c0-1.6,0.4-2.9,1.3-3.8c0.8-0.9,1.9-1.3,3.3-1.3c1.3,0,2.3,0.4,3.2,1.3c0.8,0.9,1.2,2.1,1.2,3.7
			c0,0.1,0,0.3,0,0.4h-7.2c0.1,1.1,0.4,1.9,0.9,2.5c0.5,0.6,1.2,0.8,2,0.8c0.6,0,1.1-0.2,1.5-0.5C308.7,31.4,309,30.9,309.3,30.2z
			 M303.9,27.5h5.4c-0.1-0.8-0.3-1.4-0.6-1.8c-0.5-0.6-1.2-1-2-1c-0.8,0-1.4,0.3-1.9,0.8C304.2,26,303.9,26.7,303.9,27.5z M313,33.3
			v-9.7h1.5v1.5c0.4-0.7,0.7-1.1,1-1.4c0.3-0.2,0.7-0.3,1.1-0.3c0.6,0,1.1,0.2,1.7,0.5l-0.6,1.5c-0.4-0.2-0.8-0.4-1.2-0.4
			c-0.4,0-0.7,0.1-1,0.3s-0.5,0.5-0.6,0.9c-0.2,0.6-0.3,1.2-0.3,1.9v5.1H313z M323.7,30.4l1.6-0.3c0.1,0.6,0.3,1.1,0.8,1.5
			c0.4,0.3,1,0.5,1.8,0.5s1.3-0.2,1.7-0.5c0.4-0.3,0.5-0.7,0.5-1.1c0-0.4-0.2-0.7-0.5-0.9c-0.2-0.1-0.8-0.3-1.7-0.5
			c-1.2-0.3-2-0.6-2.5-0.8c-0.5-0.2-0.8-0.5-1-0.9c-0.2-0.4-0.4-0.8-0.4-1.3c0-0.4,0.1-0.8,0.3-1.2c0.2-0.4,0.5-0.7,0.8-0.9
			c0.3-0.2,0.6-0.3,1-0.5c0.4-0.1,0.9-0.2,1.4-0.2c0.8,0,1.4,0.1,2,0.3s1,0.5,1.3,0.9c0.3,0.4,0.5,0.9,0.6,1.5l-1.6,0.2
			c-0.1-0.5-0.3-0.9-0.6-1.2c-0.3-0.3-0.8-0.4-1.5-0.4c-0.8,0-1.3,0.1-1.6,0.4c-0.3,0.3-0.5,0.5-0.5,0.9c0,0.2,0.1,0.4,0.2,0.6
			c0.1,0.2,0.3,0.3,0.6,0.4c0.2,0.1,0.6,0.2,1.4,0.4c1.2,0.3,2,0.6,2.4,0.8s0.8,0.5,1.1,0.9s0.4,0.8,0.4,1.4c0,0.6-0.2,1.1-0.5,1.5
			c-0.3,0.5-0.8,0.9-1.4,1.1c-0.6,0.3-1.3,0.4-2,0.4c-1.3,0-2.2-0.3-2.9-0.8C324.3,32.2,323.9,31.4,323.7,30.4z M340.4,30.2l1.7,0.2
			c-0.3,1-0.8,1.8-1.5,2.3c-0.7,0.5-1.6,0.8-2.8,0.8c-1.4,0-2.5-0.4-3.4-1.3c-0.8-0.9-1.2-2.1-1.2-3.7c0-1.6,0.4-2.9,1.3-3.8
			c0.8-0.9,1.9-1.3,3.3-1.3c1.3,0,2.3,0.4,3.2,1.3c0.8,0.9,1.2,2.1,1.2,3.7c0,0.1,0,0.3,0,0.4h-7.2c0.1,1.1,0.4,1.9,0.9,2.5
			c0.5,0.6,1.2,0.8,2,0.8c0.6,0,1.1-0.2,1.5-0.5C339.8,31.4,340.1,30.9,340.4,30.2z M335,27.5h5.4c-0.1-0.8-0.3-1.4-0.6-1.8
			c-0.5-0.6-1.2-1-2-1c-0.8,0-1.4,0.3-1.9,0.8C335.3,26,335,26.7,335,27.5z M344.1,33.3v-9.7h1.5v1.5c0.4-0.7,0.7-1.1,1-1.4
			c0.3-0.2,0.7-0.3,1.1-0.3c0.6,0,1.1,0.2,1.7,0.5l-0.6,1.5c-0.4-0.2-0.8-0.4-1.2-0.4c-0.4,0-0.7,0.1-1,0.3s-0.5,0.5-0.6,0.9
			c-0.2,0.6-0.3,1.2-0.3,1.9v5.1H344.1z M353,33.3l-3.7-9.7h1.7l2.1,5.8c0.2,0.6,0.4,1.3,0.6,1.9c0.1-0.5,0.3-1.1,0.6-1.8l2.1-5.9
			h1.7l-3.7,9.7H353z M366.3,30.2l1.7,0.2c-0.3,1-0.8,1.8-1.5,2.3c-0.7,0.5-1.6,0.8-2.8,0.8c-1.4,0-2.5-0.4-3.4-1.3
			c-0.8-0.9-1.2-2.1-1.2-3.7c0-1.6,0.4-2.9,1.3-3.8c0.8-0.9,1.9-1.3,3.3-1.3c1.3,0,2.3,0.4,3.2,1.3c0.8,0.9,1.2,2.1,1.2,3.7
			c0,0.1,0,0.3,0,0.4h-7.2c0.1,1.1,0.4,1.9,0.9,2.5c0.5,0.6,1.2,0.8,2,0.8c0.6,0,1.1-0.2,1.5-0.5C365.7,31.4,366,30.9,366.3,30.2z
			 M360.9,27.5h5.4c-0.1-0.8-0.3-1.4-0.6-1.8c-0.5-0.6-1.2-1-2-1c-0.8,0-1.4,0.3-1.9,0.8C361.2,26,360.9,26.7,360.9,27.5z M370,33.3
			v-9.7h1.5v1.5c0.4-0.7,0.7-1.1,1-1.4c0.3-0.2,0.7-0.3,1.1-0.3c0.6,0,1.1,0.2,1.7,0.5l-0.6,1.5c-0.4-0.2-0.8-0.4-1.2-0.4
			c-0.4,0-0.7,0.1-1,0.3s-0.5,0.5-0.6,0.9c-0.2,0.6-0.3,1.2-0.3,1.9v5.1H370z"/>
		<path class="st2" d="M180.4,91.5c0-12.9,33.2-19.3,66.4-25.8s66.4-12.9,66.4-25.8"/>
		<path class="st4" d="M180.4,91.5c0-12.9,33.2-19.3,66.4-25.8c16.6-3.2,33.2-6.4,45.7-10.5c6.2-2,11.4-4.2,15.1-6.8
			c1.8-1.3,3.2-2.6,4.2-4c0.2-0.4,0.5-0.7,0.6-1.1l0.1-0.1"/>
		<path class="st5" d="M312.5,43.2l0.8,1.4l-0.4-3.3l-1.8,2.7L312.5,43.2z"/>
		<path class="st2" d="M247.3,132.6h163.5v27.1H247.3V132.6z"/>
		<path d="M267,153v-1.2c-0.6,1-1.5,1.4-2.7,1.4c-0.8,0-1.5-0.2-2.1-0.6c-0.6-0.4-1.1-1-1.5-1.8c-0.4-0.8-0.5-1.6-0.5-2.6
			c0-1,0.2-1.8,0.5-2.6c0.3-0.8,0.8-1.4,1.4-1.8c0.6-0.4,1.4-0.6,2.2-0.6c0.6,0,1.1,0.1,1.5,0.4c0.5,0.2,0.8,0.6,1.1,1v-4.8h1.6V153
			H267z M261.9,148.2c0,1.2,0.3,2.2,0.8,2.8c0.5,0.6,1.1,0.9,1.8,0.9c0.7,0,1.3-0.3,1.8-0.9c0.5-0.6,0.8-1.5,0.8-2.7
			c0-1.3-0.3-2.3-0.8-2.9c-0.5-0.6-1.1-0.9-1.9-0.9c-0.7,0-1.3,0.3-1.8,0.9S261.9,146.9,261.9,148.2z M271.2,141.6v-1.9h1.6v1.9
			H271.2z M271.2,153v-9.7h1.6v9.7H271.2z M281.6,149.5l1.6,0.2c-0.2,1.1-0.6,2-1.4,2.6c-0.7,0.6-1.6,0.9-2.7,0.9
			c-1.3,0-2.4-0.4-3.2-1.3c-0.8-0.9-1.2-2.1-1.2-3.7c0-1.1,0.2-2,0.5-2.8s0.9-1.4,1.6-1.8c0.7-0.4,1.5-0.6,2.3-0.6
			c1.1,0,1.9,0.3,2.6,0.8c0.7,0.5,1.1,1.3,1.3,2.3l-1.6,0.2c-0.2-0.6-0.4-1.1-0.8-1.5c-0.4-0.3-0.8-0.5-1.4-0.5
			c-0.8,0-1.5,0.3-2,0.9c-0.5,0.6-0.8,1.5-0.8,2.8c0,1.3,0.3,2.3,0.8,2.8c0.5,0.6,1.2,0.9,2,0.9c0.6,0,1.2-0.2,1.6-0.6
			C281.2,150.9,281.5,150.3,281.6,149.5z M288.2,151.6l0.2,1.5c-0.5,0.1-0.9,0.1-1.2,0.1c-0.6,0-1.1-0.1-1.4-0.3
			c-0.3-0.2-0.6-0.4-0.7-0.7c-0.1-0.3-0.2-1-0.2-1.9v-5.6h-1.2v-1.3h1.2V141l1.6-1v3.4h1.7v1.3h-1.7v5.7c0,0.5,0,0.8,0.1,0.9
			c0.1,0.1,0.2,0.2,0.3,0.3c0.1,0.1,0.3,0.1,0.6,0.1C287.7,151.6,287.9,151.6,288.2,151.6z M289.8,141.6v-1.9h1.6v1.9H289.8z
			 M289.8,153v-9.7h1.6v9.7H289.8z M293.4,148.2c0-1.8,0.5-3.1,1.5-4c0.8-0.7,1.8-1.1,3-1.1c1.3,0,2.4,0.4,3.3,1.3
			c0.8,0.9,1.3,2.1,1.3,3.6c0,1.2-0.2,2.2-0.6,2.9c-0.4,0.7-0.9,1.3-1.6,1.7c-0.7,0.4-1.5,0.6-2.3,0.6c-1.4,0-2.4-0.4-3.3-1.3
			C293.8,151.1,293.4,149.8,293.4,148.2z M295,148.2c0,1.2,0.3,2.2,0.8,2.8c0.5,0.6,1.2,0.9,2,0.9c0.8,0,1.5-0.3,2-0.9
			c0.5-0.6,0.8-1.6,0.8-2.8c0-1.2-0.3-2.1-0.8-2.7c-0.5-0.6-1.2-0.9-2-0.9c-0.8,0-1.5,0.3-2,0.9C295.3,146,295,146.9,295,148.2z
			 M304.3,153v-9.7h1.5v1.4c0.7-1.1,1.7-1.6,3.1-1.6c0.6,0,1.1,0.1,1.6,0.3c0.5,0.2,0.9,0.5,1.1,0.8c0.3,0.3,0.4,0.7,0.5,1.2
			c0.1,0.3,0.1,0.8,0.1,1.6v6h-1.6v-5.9c0-0.7-0.1-1.2-0.2-1.5c-0.1-0.3-0.3-0.6-0.7-0.8c-0.3-0.2-0.7-0.3-1.1-0.3
			c-0.7,0-1.3,0.2-1.8,0.7c-0.5,0.4-0.8,1.3-0.8,2.5v5.3H304.3z M321,151.8c-0.6,0.5-1.2,0.9-1.8,1.1c-0.6,0.2-1.2,0.3-1.8,0.3
			c-1.1,0-1.9-0.3-2.5-0.8c-0.6-0.5-0.9-1.2-0.9-2c0-0.5,0.1-0.9,0.3-1.3c0.2-0.4,0.5-0.7,0.8-0.9c0.4-0.2,0.8-0.4,1.2-0.5
			c0.3-0.1,0.8-0.2,1.5-0.3c1.3-0.2,2.3-0.3,2.9-0.6c0-0.2,0-0.4,0-0.4c0-0.7-0.2-1.1-0.5-1.4c-0.4-0.4-1-0.5-1.9-0.5
			c-0.8,0-1.3,0.1-1.7,0.4c-0.4,0.3-0.6,0.7-0.8,1.4l-1.6-0.2c0.1-0.7,0.4-1.2,0.7-1.6c0.3-0.4,0.8-0.8,1.5-1s1.4-0.3,2.2-0.3
			c0.8,0,1.5,0.1,2,0.3c0.5,0.2,0.9,0.4,1.1,0.7c0.3,0.3,0.4,0.7,0.5,1.1c0.1,0.3,0.1,0.8,0.1,1.5v2.2c0,1.5,0,2.5,0.1,2.9
			c0.1,0.4,0.2,0.8,0.4,1.2h-1.7C321.2,152.7,321.1,152.3,321,151.8z M320.9,148.2c-0.6,0.3-1.5,0.5-2.7,0.6
			c-0.7,0.1-1.2,0.2-1.4,0.3s-0.5,0.3-0.7,0.5c-0.1,0.2-0.2,0.5-0.2,0.8c0,0.4,0.2,0.8,0.5,1.1c0.3,0.3,0.8,0.4,1.5,0.4
			c0.6,0,1.2-0.1,1.7-0.4c0.5-0.3,0.9-0.7,1.1-1.1c0.2-0.4,0.3-0.9,0.3-1.6V148.2z M325.1,153v-9.7h1.5v1.5c0.4-0.7,0.7-1.1,1-1.4
			c0.3-0.2,0.7-0.3,1.1-0.3c0.6,0,1.1,0.2,1.7,0.5l-0.6,1.5c-0.4-0.2-0.8-0.4-1.2-0.4c-0.4,0-0.7,0.1-1,0.3s-0.5,0.5-0.6,0.9
			c-0.2,0.6-0.3,1.2-0.3,1.9v5.1H325.1z M331.2,156.7l-0.2-1.5c0.4,0.1,0.7,0.1,0.9,0.1c0.4,0,0.7-0.1,0.9-0.2
			c0.2-0.1,0.4-0.3,0.5-0.5c0.1-0.2,0.3-0.6,0.5-1.2c0-0.1,0.1-0.2,0.1-0.4l-3.7-9.7h1.8l2,5.6c0.3,0.7,0.5,1.5,0.7,2.3
			c0.2-0.8,0.4-1.5,0.7-2.2l2.1-5.6h1.6l-3.7,9.8c-0.4,1.1-0.7,1.8-0.9,2.2c-0.3,0.5-0.6,0.9-1,1.2s-0.8,0.4-1.3,0.4
			C332,156.9,331.6,156.9,331.2,156.7z M352.1,151.8c-0.6,0.5-1.2,0.9-1.8,1.1c-0.6,0.2-1.2,0.3-1.8,0.3c-1.1,0-1.9-0.3-2.5-0.8
			c-0.6-0.5-0.9-1.2-0.9-2c0-0.5,0.1-0.9,0.3-1.3c0.2-0.4,0.5-0.7,0.8-0.9c0.4-0.2,0.8-0.4,1.2-0.5c0.3-0.1,0.8-0.2,1.5-0.3
			c1.3-0.2,2.3-0.3,2.9-0.6c0-0.2,0-0.4,0-0.4c0-0.7-0.2-1.1-0.5-1.4c-0.4-0.4-1-0.5-1.9-0.5c-0.8,0-1.3,0.1-1.7,0.4
			c-0.4,0.3-0.6,0.7-0.8,1.4l-1.6-0.2c0.1-0.7,0.4-1.2,0.7-1.6c0.3-0.4,0.8-0.8,1.5-1c0.6-0.2,1.4-0.3,2.2-0.3c0.8,0,1.5,0.1,2,0.3
			c0.5,0.2,0.9,0.4,1.1,0.7c0.3,0.3,0.4,0.7,0.5,1.1c0.1,0.3,0.1,0.8,0.1,1.5v2.2c0,1.5,0,2.5,0.1,2.9c0.1,0.4,0.2,0.8,0.4,1.2h-1.7
			C352.3,152.7,352.2,152.3,352.1,151.8z M352,148.2c-0.6,0.3-1.5,0.5-2.7,0.6c-0.7,0.1-1.2,0.2-1.4,0.3s-0.5,0.3-0.7,0.5
			c-0.1,0.2-0.2,0.5-0.2,0.8c0,0.4,0.2,0.8,0.5,1.1c0.3,0.3,0.8,0.4,1.5,0.4c0.6,0,1.2-0.1,1.7-0.4c0.5-0.3,0.9-0.7,1.1-1.1
			c0.2-0.4,0.3-0.9,0.3-1.6V148.2z M355.5,150.1l1.6-0.3c0.1,0.6,0.3,1.1,0.8,1.5c0.4,0.3,1,0.5,1.8,0.5s1.3-0.2,1.7-0.5
			c0.4-0.3,0.5-0.7,0.5-1.1c0-0.4-0.2-0.7-0.5-0.9c-0.2-0.1-0.8-0.3-1.7-0.5c-1.2-0.3-2-0.6-2.5-0.8c-0.5-0.2-0.8-0.5-1-0.9
			c-0.2-0.4-0.4-0.8-0.4-1.3c0-0.4,0.1-0.8,0.3-1.2c0.2-0.4,0.5-0.7,0.8-0.9c0.3-0.2,0.6-0.3,1-0.5c0.4-0.1,0.9-0.2,1.4-0.2
			c0.8,0,1.4,0.1,2,0.3c0.6,0.2,1,0.5,1.3,0.9c0.3,0.4,0.5,0.9,0.6,1.5l-1.6,0.2c-0.1-0.5-0.3-0.9-0.6-1.2c-0.3-0.3-0.8-0.4-1.5-0.4
			c-0.8,0-1.3,0.1-1.6,0.4c-0.3,0.3-0.5,0.5-0.5,0.9c0,0.2,0.1,0.4,0.2,0.6c0.1,0.2,0.3,0.3,0.6,0.4c0.2,0.1,0.6,0.2,1.4,0.4
			c1.2,0.3,2,0.6,2.4,0.8c0.5,0.2,0.8,0.5,1.1,0.9c0.3,0.4,0.4,0.8,0.4,1.4c0,0.6-0.2,1.1-0.5,1.5c-0.3,0.5-0.8,0.9-1.4,1.1
			c-0.6,0.3-1.3,0.4-2,0.4c-1.3,0-2.2-0.3-2.9-0.8C356.1,151.9,355.7,151.2,355.5,150.1z M364.9,150.1l1.6-0.3
			c0.1,0.6,0.3,1.1,0.7,1.5c0.4,0.3,1,0.5,1.8,0.5s1.3-0.2,1.7-0.5c0.4-0.3,0.5-0.7,0.5-1.1c0-0.4-0.2-0.7-0.5-0.9
			c-0.2-0.1-0.8-0.3-1.7-0.5c-1.2-0.3-2-0.6-2.5-0.8c-0.5-0.2-0.8-0.5-1-0.9c-0.2-0.4-0.4-0.8-0.4-1.3c0-0.4,0.1-0.8,0.3-1.2
			c0.2-0.4,0.5-0.7,0.8-0.9c0.3-0.2,0.6-0.3,1-0.5c0.4-0.1,0.9-0.2,1.4-0.2c0.8,0,1.4,0.1,2,0.3c0.6,0.2,1,0.5,1.3,0.9
			c0.3,0.4,0.5,0.9,0.6,1.5l-1.6,0.2c-0.1-0.5-0.3-0.9-0.6-1.2c-0.3-0.3-0.8-0.4-1.5-0.4c-0.8,0-1.3,0.1-1.6,0.4
			c-0.3,0.3-0.5,0.5-0.5,0.9c0,0.2,0.1,0.4,0.2,0.6c0.1,0.2,0.3,0.3,0.6,0.4c0.2,0.1,0.6,0.2,1.4,0.4c1.2,0.3,2,0.6,2.4,0.8
			c0.5,0.2,0.8,0.5,1.1,0.9c0.3,0.4,0.4,0.8,0.4,1.4c0,0.6-0.2,1.1-0.5,1.5c-0.3,0.5-0.8,0.9-1.4,1.1c-0.6,0.3-1.3,0.4-2,0.4
			c-1.3,0-2.2-0.3-2.9-0.8C365.5,151.9,365,151.2,364.9,150.1z M381.5,149.9l1.7,0.2c-0.3,1-0.8,1.8-1.5,2.3
			c-0.7,0.5-1.6,0.8-2.8,0.8c-1.4,0-2.5-0.4-3.4-1.3c-0.8-0.9-1.2-2.1-1.2-3.7c0-1.6,0.4-2.9,1.3-3.8c0.8-0.9,1.9-1.3,3.3-1.3
			c1.3,0,2.3,0.4,3.2,1.3c0.8,0.9,1.2,2.1,1.2,3.7c0,0.1,0,0.3,0,0.4H376c0.1,1.1,0.4,1.9,0.9,2.5c0.5,0.6,1.2,0.8,2,0.8
			c0.6,0,1.1-0.2,1.5-0.5C380.9,151.1,381.2,150.6,381.5,149.9z M376.1,147.3h5.4c-0.1-0.8-0.3-1.4-0.6-1.8c-0.5-0.6-1.2-1-2-1
			c-0.8,0-1.4,0.3-1.9,0.8C376.4,145.7,376.1,146.4,376.1,147.3z M388.8,151.6l0.2,1.5c-0.5,0.1-0.9,0.1-1.2,0.1
			c-0.6,0-1.1-0.1-1.4-0.3c-0.3-0.2-0.6-0.4-0.7-0.7c-0.1-0.3-0.2-1-0.2-1.9v-5.6h-1.2v-1.3h1.2V141l1.6-1v3.4h1.7v1.3h-1.7v5.7
			c0,0.5,0,0.8,0.1,0.9c0.1,0.1,0.2,0.2,0.3,0.3c0.1,0.1,0.3,0.1,0.6,0.1C388.3,151.6,388.5,151.6,388.8,151.6z M389.7,150.1
			l1.6-0.3c0.1,0.6,0.3,1.1,0.8,1.5c0.4,0.3,1,0.5,1.8,0.5s1.3-0.2,1.7-0.5c0.4-0.3,0.5-0.7,0.5-1.1c0-0.4-0.2-0.7-0.5-0.9
			c-0.2-0.1-0.8-0.3-1.7-0.5c-1.2-0.3-2-0.6-2.5-0.8c-0.5-0.2-0.8-0.5-1-0.9c-0.2-0.4-0.4-0.8-0.4-1.3c0-0.4,0.1-0.8,0.3-1.2
			c0.2-0.4,0.5-0.7,0.8-0.9c0.3-0.2,0.6-0.3,1-0.5c0.4-0.1,0.9-0.2,1.4-0.2c0.8,0,1.4,0.1,2,0.3c0.6,0.2,1,0.5,1.3,0.9
			c0.3,0.4,0.5,0.9,0.6,1.5l-1.6,0.2c-0.1-0.5-0.3-0.9-0.6-1.2c-0.3-0.3-0.8-0.4-1.5-0.4c-0.8,0-1.3,0.1-1.6,0.4
			c-0.3,0.3-0.5,0.5-0.5,0.9c0,0.2,0.1,0.4,0.2,0.6c0.1,0.2,0.3,0.3,0.6,0.4c0.2,0.1,0.6,0.2,1.4,0.4c1.2,0.3,2,0.6,2.4,0.8
			c0.5,0.2,0.8,0.5,1.1,0.9c0.3,0.4,0.4,0.8,0.4,1.4c0,0.6-0.2,1.1-0.5,1.5c-0.3,0.5-0.8,0.9-1.4,1.1c-0.6,0.3-1.3,0.4-2,0.4
			c-1.3,0-2.2-0.3-2.9-0.8C390.3,151.9,389.9,151.2,389.7,150.1z"/>
		<path class="st2" d="M313.3,39.9c0,23.2,3.9,34.7,7.9,46.3c3.9,11.6,7.9,23.2,7.9,46.3"/>
		<path class="st4" d="M313.3,39.9c0,23.2,3.9,34.7,7.9,46.3c2,5.8,3.9,11.6,5.4,18.8c0.7,3.6,1.4,7.6,1.8,12.1
			c0.2,2.3,0.4,4.7,0.5,7.2c0.1,1.3,0.1,2.6,0.1,4l0,0.8"/>
		<path class="st5" d="M329,129.1l-1.1-1.1l1.2,3.1l1.1-3.1L329,129.1z"/>
		<path class="st2" d="M323,75.3h65.2v16.2H323V75.3z"/>
		<path d="M336.7,84.4c0-1,0.3-1.8,0.8-2.3c0.5-0.4,1.1-0.6,1.7-0.6c0.8,0,1.4,0.3,1.9,0.8c0.5,0.5,0.7,1.2,0.7,2.1
			c0,0.7-0.1,1.3-0.3,1.7c-0.2,0.4-0.5,0.7-0.9,1c-0.4,0.2-0.9,0.3-1.3,0.3c-0.8,0-1.4-0.2-1.9-0.7C336.9,86,336.7,85.3,336.7,84.4z
			 M337.7,84.4c0,0.7,0.2,1.2,0.5,1.6s0.7,0.5,1.2,0.5c0.5,0,0.9-0.2,1.2-0.5c0.3-0.4,0.5-0.9,0.5-1.6c0-0.7-0.2-1.2-0.5-1.5
			c-0.3-0.4-0.7-0.5-1.2-0.5c-0.5,0-0.8,0.2-1.2,0.5C337.8,83.1,337.7,83.7,337.7,84.4z M344.5,87.1l-2.1-5.5h1l1.2,3.3
			c0.1,0.4,0.2,0.7,0.4,1.1c0.1-0.3,0.2-0.6,0.3-1l1.2-3.4h1l-2.1,5.5H344.5z M352.1,85.4l1,0.1c-0.2,0.6-0.4,1-0.9,1.3
			c-0.4,0.3-0.9,0.5-1.6,0.5c-0.8,0-1.4-0.3-1.9-0.8c-0.5-0.5-0.7-1.2-0.7-2.1c0-0.9,0.2-1.6,0.7-2.2c0.5-0.5,1.1-0.8,1.9-0.8
			c0.7,0,1.3,0.3,1.8,0.8c0.5,0.5,0.7,1.2,0.7,2.1c0,0.1,0,0.1,0,0.2H349c0,0.6,0.2,1.1,0.5,1.4s0.7,0.5,1.2,0.5
			c0.3,0,0.6-0.1,0.9-0.3C351.7,86,351.9,85.7,352.1,85.4z M349,83.8h3.1c0-0.5-0.2-0.8-0.4-1c-0.3-0.4-0.7-0.5-1.2-0.5
			c-0.4,0-0.8,0.1-1.1,0.4C349.2,83,349,83.4,349,83.8z M354.2,87.1v-5.5h0.8v0.8c0.2-0.4,0.4-0.7,0.6-0.8c0.2-0.1,0.4-0.2,0.6-0.2
			c0.3,0,0.6,0.1,1,0.3l-0.3,0.9c-0.2-0.1-0.5-0.2-0.7-0.2c-0.2,0-0.4,0.1-0.6,0.2c-0.2,0.1-0.3,0.3-0.3,0.5
			c-0.1,0.3-0.2,0.7-0.2,1.1v2.9H354.2z M357.8,87.1v-5.5h0.8v0.8c0.2-0.4,0.4-0.7,0.6-0.8c0.2-0.1,0.4-0.2,0.6-0.2
			c0.3,0,0.6,0.1,1,0.3l-0.3,0.9c-0.2-0.1-0.5-0.2-0.7-0.2c-0.2,0-0.4,0.1-0.6,0.2c-0.2,0.1-0.3,0.3-0.3,0.5
			c-0.1,0.3-0.2,0.7-0.2,1.1v2.9H357.8z M361.3,80.6v-1.1h0.9v1.1H361.3z M361.3,87.1v-5.5h0.9v5.5H361.3z M367.3,87.1v-0.7
			c-0.3,0.6-0.9,0.8-1.5,0.8c-0.4,0-0.8-0.1-1.2-0.4c-0.4-0.3-0.7-0.6-0.9-1c-0.2-0.4-0.3-0.9-0.3-1.5c0-0.6,0.1-1.1,0.3-1.5
			c0.2-0.5,0.5-0.8,0.8-1c0.4-0.2,0.8-0.4,1.2-0.4c0.3,0,0.6,0.1,0.9,0.2c0.3,0.1,0.5,0.3,0.6,0.5v-2.7h0.9v7.6H367.3z M364.3,84.4
			c0,0.7,0.1,1.2,0.4,1.6c0.3,0.4,0.7,0.5,1.1,0.5c0.4,0,0.7-0.2,1-0.5c0.3-0.3,0.4-0.9,0.4-1.5c0-0.8-0.1-1.3-0.4-1.7
			c-0.3-0.4-0.7-0.5-1.1-0.5c-0.4,0-0.8,0.2-1,0.5C364.5,83.1,364.3,83.6,364.3,84.4z M373.4,85.4l1,0.1c-0.2,0.6-0.4,1-0.9,1.3
			c-0.4,0.3-0.9,0.5-1.6,0.5c-0.8,0-1.4-0.3-1.9-0.8c-0.5-0.5-0.7-1.2-0.7-2.1c0-0.9,0.2-1.6,0.7-2.2c0.5-0.5,1.1-0.8,1.9-0.8
			c0.7,0,1.3,0.3,1.8,0.8c0.5,0.5,0.7,1.2,0.7,2.1c0,0.1,0,0.1,0,0.2h-4.1c0,0.6,0.2,1.1,0.5,1.4s0.7,0.5,1.2,0.5
			c0.3,0,0.6-0.1,0.9-0.3C373.1,86,373.3,85.7,373.4,85.4z M370.3,83.8h3.1c0-0.5-0.2-0.8-0.4-1c-0.3-0.4-0.7-0.5-1.2-0.5
			c-0.4,0-0.8,0.1-1.1,0.4C370.5,83,370.4,83.4,370.3,83.8z"/>
		<path class="st7" d="M425.3,59.6H621v43.5H425.3V59.6z"/>
		<path d="M462.1,78.2v-6.9h1v1c0.2-0.3,0.5-0.6,0.9-0.8c0.4-0.2,0.8-0.3,1.2-0.3c0.5,0,0.9,0.1,1.3,0.3s0.6,0.5,0.7,0.9
			c0.6-0.8,1.3-1.2,2.1-1.2c0.7,0,1.2,0.2,1.6,0.6c0.4,0.4,0.6,1,0.6,1.7v4.8h-1.2v-4.4c0-0.5,0-0.8-0.1-1c-0.1-0.2-0.2-0.4-0.4-0.5
			s-0.4-0.2-0.7-0.2c-0.5,0-0.9,0.2-1.2,0.5s-0.5,0.8-0.5,1.5v4h-1.2v-4.5c0-0.5-0.1-0.9-0.3-1.2c-0.2-0.3-0.5-0.4-0.9-0.4
			c-0.3,0-0.6,0.1-0.9,0.3c-0.3,0.2-0.5,0.4-0.6,0.8s-0.2,0.8-0.2,1.5v3.6H462.1z M477.8,77.3c-0.4,0.4-0.9,0.6-1.3,0.8
			c-0.4,0.1-0.8,0.2-1.3,0.2c-0.8,0-1.3-0.2-1.8-0.5c-0.4-0.4-0.6-0.9-0.6-1.4c0-0.3,0.1-0.6,0.2-0.9c0.2-0.3,0.4-0.5,0.6-0.7
			s0.5-0.3,0.8-0.4c0.2-0.1,0.6-0.1,1-0.2c0.9-0.1,1.6-0.3,2.1-0.4c0-0.2,0-0.3,0-0.3c0-0.5-0.1-0.8-0.3-1c-0.3-0.3-0.8-0.4-1.3-0.4
			c-0.5,0-0.9,0.1-1.2,0.3c-0.3,0.2-0.5,0.5-0.6,1l-1.1-0.2c0.1-0.5,0.3-0.9,0.5-1.2s0.6-0.5,1-0.7c0.4-0.2,1-0.3,1.6-0.3
			s1.1,0.1,1.4,0.2c0.4,0.1,0.6,0.3,0.8,0.5c0.2,0.2,0.3,0.5,0.4,0.8c0,0.2,0,0.6,0,1.1v1.6c0,1.1,0,1.8,0.1,2.1s0.2,0.6,0.3,0.8
			H478C477.9,77.9,477.8,77.7,477.8,77.3z M477.7,74.7c-0.4,0.2-1.1,0.3-1.9,0.4c-0.5,0.1-0.8,0.2-1,0.3c-0.2,0.1-0.4,0.2-0.5,0.4
			c-0.1,0.2-0.2,0.3-0.2,0.5c0,0.3,0.1,0.6,0.3,0.8c0.2,0.2,0.6,0.3,1,0.3c0.4,0,0.8-0.1,1.2-0.3s0.6-0.5,0.8-0.8
			c0.1-0.3,0.2-0.7,0.2-1.2V74.7z M480.6,78.2v-9.5h1.2v9.5H480.6z M483.9,78.2v-6h-1v-0.9h1v-0.7c0-0.5,0-0.8,0.1-1
			c0.1-0.3,0.3-0.5,0.6-0.7s0.7-0.3,1.2-0.3c0.3,0,0.7,0,1.1,0.1l-0.2,1c-0.2,0-0.5-0.1-0.7-0.1c-0.4,0-0.6,0.1-0.8,0.2
			c-0.1,0.1-0.2,0.4-0.2,0.8v0.6h1.3v0.9h-1.3v6H483.9z M486.9,74.7c0-1.3,0.4-2.2,1.1-2.8c0.6-0.5,1.3-0.8,2.2-0.8
			c0.9,0,1.7,0.3,2.3,0.9c0.6,0.6,0.9,1.5,0.9,2.6c0,0.9-0.1,1.6-0.4,2.1c-0.3,0.5-0.6,0.9-1.2,1.2s-1.1,0.4-1.7,0.4
			c-1,0-1.8-0.3-2.4-0.9C487.2,76.8,486.9,75.9,486.9,74.7z M488.1,74.7c0,0.9,0.2,1.5,0.6,2c0.4,0.4,0.9,0.7,1.5,0.7
			s1.1-0.2,1.5-0.7c0.4-0.4,0.6-1.1,0.6-2c0-0.9-0.2-1.5-0.6-1.9c-0.4-0.4-0.9-0.7-1.4-0.7c-0.6,0-1.1,0.2-1.5,0.7
			C488.3,73.2,488.1,73.8,488.1,74.7z M494.7,78.2v-6.9h1.1v1c0.3-0.5,0.5-0.8,0.7-1c0.2-0.2,0.5-0.2,0.8-0.2c0.4,0,0.8,0.1,1.2,0.4
			l-0.4,1.1c-0.3-0.2-0.6-0.3-0.9-0.3c-0.3,0-0.5,0.1-0.7,0.2c-0.2,0.2-0.3,0.4-0.4,0.6c-0.1,0.4-0.2,0.9-0.2,1.4v3.6H494.7z
			 M499.2,78.2v-6.9h1v1c0.2-0.3,0.5-0.6,0.9-0.8c0.4-0.2,0.8-0.3,1.2-0.3c0.5,0,0.9,0.1,1.3,0.3s0.6,0.5,0.7,0.9
			c0.6-0.8,1.3-1.2,2.1-1.2c0.7,0,1.2,0.2,1.6,0.6c0.4,0.4,0.6,1,0.6,1.7v4.8h-1.2v-4.4c0-0.5,0-0.8-0.1-1c-0.1-0.2-0.2-0.4-0.4-0.5
			s-0.4-0.2-0.7-0.2c-0.5,0-0.9,0.2-1.2,0.5s-0.5,0.8-0.5,1.5v4h-1.2v-4.5c0-0.5-0.1-0.9-0.3-1.2c-0.2-0.3-0.5-0.4-0.9-0.4
			c-0.3,0-0.6,0.1-0.9,0.3c-0.3,0.2-0.5,0.4-0.6,0.8s-0.2,0.8-0.2,1.5v3.6H499.2z M515,76l1.2,0.1c-0.2,0.7-0.5,1.3-1.1,1.7
			c-0.5,0.4-1.2,0.6-2,0.6c-1,0-1.8-0.3-2.4-0.9s-0.9-1.5-0.9-2.6c0-1.2,0.3-2.1,0.9-2.7c0.6-0.6,1.4-1,2.3-1c0.9,0,1.7,0.3,2.3,0.9
			c0.6,0.6,0.9,1.5,0.9,2.7c0,0.1,0,0.2,0,0.3h-5.2c0,0.8,0.3,1.3,0.6,1.8c0.4,0.4,0.9,0.6,1.4,0.6c0.4,0,0.8-0.1,1.1-0.3
			C514.6,76.8,514.8,76.4,515,76z M511.2,74.1h3.9c-0.1-0.6-0.2-1-0.4-1.3c-0.4-0.5-0.9-0.7-1.5-0.7c-0.5,0-1,0.2-1.4,0.5
			C511.4,73,511.2,73.4,511.2,74.1z M522.2,78.2v-0.9c-0.4,0.7-1.1,1-1.9,1c-0.5,0-1-0.2-1.5-0.5c-0.5-0.3-0.8-0.7-1.1-1.3
			c-0.3-0.6-0.4-1.2-0.4-1.9c0-0.7,0.1-1.3,0.3-1.9c0.2-0.6,0.6-1,1-1.3c0.5-0.3,1-0.5,1.5-0.5c0.4,0,0.8,0.1,1.1,0.3
			c0.3,0.2,0.6,0.4,0.8,0.7v-3.4h1.2v9.5H522.2z M518.5,74.7c0,0.9,0.2,1.5,0.6,2s0.8,0.7,1.3,0.7c0.5,0,0.9-0.2,1.3-0.6
			c0.4-0.4,0.5-1.1,0.5-1.9c0-0.9-0.2-1.6-0.5-2.1c-0.4-0.4-0.8-0.7-1.3-0.7c-0.5,0-1,0.2-1.3,0.6C518.6,73.1,518.5,73.8,518.5,74.7
			z M533.3,78.2v-0.9c-0.4,0.7-1.1,1-1.9,1c-0.5,0-1-0.2-1.5-0.5c-0.5-0.3-0.8-0.7-1.1-1.3c-0.3-0.6-0.4-1.2-0.4-1.9
			c0-0.7,0.1-1.3,0.3-1.9s0.6-1,1-1.3c0.5-0.3,1-0.5,1.5-0.5c0.4,0,0.8,0.1,1.1,0.3c0.3,0.2,0.6,0.4,0.8,0.7v-3.4h1.2v9.5H533.3z
			 M529.6,74.7c0,0.9,0.2,1.5,0.6,2s0.8,0.7,1.3,0.7s0.9-0.2,1.3-0.6s0.5-1.1,0.5-1.9c0-0.9-0.2-1.6-0.5-2.1
			c-0.4-0.4-0.8-0.7-1.3-0.7c-0.5,0-1,0.2-1.3,0.6C529.8,73.1,529.6,73.8,529.6,74.7z M536.2,70v-1.4h1.2V70H536.2z M536.2,78.2
			v-6.9h1.2v6.9H536.2z M543.7,75.6l1.2,0.2c-0.1,0.8-0.4,1.4-1,1.9c-0.5,0.4-1.2,0.7-1.9,0.7c-0.9,0-1.7-0.3-2.3-0.9
			c-0.6-0.6-0.9-1.5-0.9-2.7c0-0.8,0.1-1.4,0.4-2s0.6-1,1.1-1.3c0.5-0.3,1.1-0.4,1.7-0.4c0.8,0,1.4,0.2,1.8,0.6
			c0.5,0.4,0.8,0.9,0.9,1.6l-1.1,0.2c-0.1-0.5-0.3-0.8-0.6-1c-0.3-0.2-0.6-0.4-1-0.4c-0.6,0-1.1,0.2-1.5,0.6c-0.4,0.4-0.5,1.1-0.5,2
			c0,0.9,0.2,1.6,0.5,2c0.4,0.4,0.8,0.6,1.4,0.6c0.5,0,0.8-0.1,1.1-0.4C543.4,76.7,543.6,76.2,543.7,75.6z M548.4,77.1l0.2,1
			c-0.3,0.1-0.6,0.1-0.9,0.1c-0.4,0-0.8-0.1-1-0.2c-0.2-0.1-0.4-0.3-0.5-0.5s-0.1-0.7-0.1-1.4v-4h-0.9v-0.9h0.9v-1.7l1.2-0.7v2.4
			h1.2v0.9h-1.2v4c0,0.3,0,0.5,0,0.6c0,0.1,0.1,0.2,0.2,0.2c0.1,0.1,0.2,0.1,0.4,0.1C548,77.2,548.2,77.2,548.4,77.1z M549.6,70
			v-1.4h1.2V70H549.6z M549.6,78.2v-6.9h1.2v6.9H549.6z M552.1,74.7c0-1.3,0.4-2.2,1.1-2.8c0.6-0.5,1.3-0.8,2.2-0.8
			c0.9,0,1.7,0.3,2.3,0.9c0.6,0.6,0.9,1.5,0.9,2.6c0,0.9-0.1,1.6-0.4,2.1c-0.3,0.5-0.6,0.9-1.2,1.2c-0.5,0.3-1.1,0.4-1.7,0.4
			c-1,0-1.8-0.3-2.4-0.9C552.4,76.8,552.1,75.9,552.1,74.7z M553.3,74.7c0,0.9,0.2,1.5,0.6,2c0.4,0.4,0.9,0.7,1.5,0.7
			c0.6,0,1.1-0.2,1.5-0.7c0.4-0.4,0.6-1.1,0.6-2c0-0.9-0.2-1.5-0.6-1.9c-0.4-0.4-0.9-0.7-1.4-0.7c-0.6,0-1.1,0.2-1.5,0.7
			C553.5,73.2,553.3,73.8,553.3,74.7z M559.9,78.2v-6.9h1.1v1c0.5-0.8,1.2-1.1,2.2-1.1c0.4,0,0.8,0.1,1.2,0.2
			c0.4,0.1,0.6,0.3,0.8,0.6c0.2,0.2,0.3,0.5,0.4,0.9c0,0.2,0.1,0.6,0.1,1.1v4.3h-1.2V74c0-0.5,0-0.8-0.1-1.1
			c-0.1-0.2-0.3-0.4-0.5-0.6c-0.2-0.1-0.5-0.2-0.8-0.2c-0.5,0-0.9,0.2-1.3,0.5c-0.4,0.3-0.5,0.9-0.5,1.8v3.8H559.9z M571.8,77.3
			c-0.4,0.4-0.9,0.6-1.3,0.8c-0.4,0.1-0.8,0.2-1.3,0.2c-0.8,0-1.3-0.2-1.8-0.5c-0.4-0.4-0.6-0.9-0.6-1.4c0-0.3,0.1-0.6,0.2-0.9
			c0.2-0.3,0.4-0.5,0.6-0.7s0.5-0.3,0.8-0.4c0.2-0.1,0.6-0.1,1-0.2c0.9-0.1,1.6-0.3,2.1-0.4c0-0.2,0-0.3,0-0.3c0-0.5-0.1-0.8-0.3-1
			c-0.3-0.3-0.8-0.4-1.3-0.4c-0.5,0-0.9,0.1-1.2,0.3c-0.3,0.2-0.5,0.5-0.6,1l-1.1-0.2c0.1-0.5,0.3-0.9,0.5-1.2
			c0.2-0.3,0.6-0.5,1-0.7c0.4-0.2,1-0.3,1.6-0.3s1.1,0.1,1.4,0.2c0.4,0.1,0.6,0.3,0.8,0.5c0.2,0.2,0.3,0.5,0.4,0.8
			c0,0.2,0,0.6,0,1.1v1.6c0,1.1,0,1.8,0.1,2.1c0.1,0.3,0.2,0.6,0.3,0.8h-1.2C572,77.9,571.9,77.7,571.8,77.3z M571.8,74.7
			c-0.4,0.2-1.1,0.3-1.9,0.4c-0.5,0.1-0.8,0.2-1,0.3c-0.2,0.1-0.4,0.2-0.5,0.4c-0.1,0.2-0.2,0.3-0.2,0.5c0,0.3,0.1,0.6,0.3,0.8
			c0.2,0.2,0.6,0.3,1,0.3c0.4,0,0.8-0.1,1.2-0.3c0.4-0.2,0.6-0.5,0.8-0.8c0.1-0.3,0.2-0.7,0.2-1.2V74.7z M574.7,78.2v-6.9h1.1v1
			c0.3-0.5,0.5-0.8,0.7-1c0.2-0.2,0.5-0.2,0.8-0.2c0.4,0,0.8,0.1,1.2,0.4l-0.4,1.1c-0.3-0.2-0.6-0.3-0.9-0.3c-0.3,0-0.5,0.1-0.7,0.2
			c-0.2,0.2-0.3,0.4-0.4,0.6c-0.1,0.4-0.2,0.9-0.2,1.4v3.6H574.7z M579.1,80.8l-0.1-1.1c0.3,0.1,0.5,0.1,0.7,0.1
			c0.3,0,0.5,0,0.6-0.1c0.2-0.1,0.3-0.2,0.4-0.4c0.1-0.1,0.2-0.4,0.4-0.9c0-0.1,0.1-0.2,0.1-0.3l-2.6-6.9h1.3l1.4,4
			c0.2,0.5,0.4,1,0.5,1.6c0.1-0.5,0.3-1.1,0.5-1.6l1.5-4h1.2l-2.6,7c-0.3,0.8-0.5,1.3-0.7,1.6c-0.2,0.4-0.4,0.7-0.7,0.8
			c-0.3,0.2-0.6,0.3-1,0.3C579.7,81,579.4,80.9,579.1,80.8z"/>
		<path d="M439.3,94.2l-2.1-6.9h1.2l1.1,4l0.4,1.5c0-0.1,0.1-0.5,0.4-1.4l1.1-4h1.2l1,4l0.3,1.3l0.4-1.3l1.2-4h1.1l-2.2,6.9h-1.2
			l-1.1-4.1l-0.3-1.2l-1.4,5.3H439.3z M447.7,86v-1.4h1.2V86H447.7z M447.7,94.2v-6.9h1.2v6.9H447.7z M453.2,93.1l0.2,1
			c-0.3,0.1-0.6,0.1-0.9,0.1c-0.4,0-0.8-0.1-1-0.2c-0.2-0.1-0.4-0.3-0.5-0.5s-0.1-0.7-0.1-1.4v-4H450v-0.9h0.9v-1.7l1.2-0.7v2.4h1.2
			v0.9H452v4c0,0.3,0,0.5,0,0.6c0,0.1,0.1,0.2,0.2,0.2c0.1,0.1,0.2,0.1,0.4,0.1C452.8,93.2,453,93.2,453.2,93.1z M454.3,94.2v-9.5
			h1.2v3.4c0.6-0.6,1.2-0.9,2.1-0.9c0.5,0,1,0.1,1.3,0.3s0.6,0.5,0.8,0.8c0.2,0.4,0.3,0.9,0.3,1.5v4.4h-1.2v-4.4
			c0-0.6-0.1-1-0.4-1.3c-0.3-0.3-0.6-0.4-1.1-0.4c-0.3,0-0.7,0.1-1,0.3c-0.3,0.2-0.5,0.4-0.7,0.7c-0.1,0.3-0.2,0.7-0.2,1.3v3.8
			H454.3z M470.2,92l1.2,0.1c-0.2,0.7-0.5,1.3-1.1,1.7c-0.5,0.4-1.2,0.6-2,0.6c-1,0-1.8-0.3-2.4-0.9s-0.9-1.5-0.9-2.6
			c0-1.2,0.3-2.1,0.9-2.7c0.6-0.6,1.4-1,2.3-1c0.9,0,1.7,0.3,2.3,0.9s0.9,1.5,0.9,2.7c0,0.1,0,0.2,0,0.3h-5.2c0,0.8,0.3,1.3,0.6,1.8
			c0.4,0.4,0.9,0.6,1.4,0.6c0.4,0,0.8-0.1,1.1-0.3C469.8,92.8,470,92.4,470.2,92z M466.3,90.1h3.9c-0.1-0.6-0.2-1-0.4-1.3
			c-0.4-0.5-0.9-0.7-1.5-0.7c-0.5,0-1,0.2-1.4,0.5C466.6,89,466.4,89.4,466.3,90.1z M472.1,94.2l2.5-3.6l-2.3-3.3h1.5l1.1,1.6
			c0.2,0.3,0.4,0.6,0.5,0.8c0.2-0.3,0.4-0.5,0.5-0.8l1.2-1.6h1.4l-2.4,3.3l2.6,3.7h-1.4l-1.4-2.1l-0.4-0.6l-1.8,2.7H472.1z
			 M484.3,92l1.2,0.1c-0.2,0.7-0.5,1.3-1.1,1.7c-0.5,0.4-1.2,0.6-2,0.6c-1,0-1.8-0.3-2.4-0.9s-0.9-1.5-0.9-2.6
			c0-1.2,0.3-2.1,0.9-2.7c0.6-0.6,1.4-1,2.3-1c0.9,0,1.7,0.3,2.3,0.9s0.9,1.5,0.9,2.7c0,0.1,0,0.2,0,0.3h-5.2c0,0.8,0.3,1.3,0.6,1.8
			c0.4,0.4,0.9,0.6,1.4,0.6c0.4,0,0.8-0.1,1.1-0.3C483.8,92.8,484.1,92.4,484.3,92z M480.4,90.1h3.9c-0.1-0.6-0.2-1-0.4-1.3
			c-0.4-0.5-0.9-0.7-1.5-0.7c-0.5,0-1,0.2-1.4,0.5C480.7,89,480.5,89.4,480.4,90.1z M491.5,91.6l1.2,0.2c-0.1,0.8-0.4,1.4-1,1.9
			s-1.2,0.7-1.9,0.7c-0.9,0-1.7-0.3-2.3-0.9c-0.6-0.6-0.9-1.5-0.9-2.7c0-0.8,0.1-1.4,0.4-2s0.6-1,1.1-1.3c0.5-0.3,1.1-0.4,1.7-0.4
			c0.8,0,1.4,0.2,1.8,0.6c0.5,0.4,0.8,0.9,0.9,1.6l-1.1,0.2c-0.1-0.5-0.3-0.8-0.6-1c-0.3-0.2-0.6-0.4-1-0.4c-0.6,0-1.1,0.2-1.5,0.6
			c-0.4,0.4-0.5,1.1-0.5,2c0,0.9,0.2,1.6,0.5,2c0.4,0.4,0.8,0.6,1.4,0.6c0.5,0,0.8-0.1,1.1-0.4C491.2,92.7,491.4,92.2,491.5,91.6z
			 M498.1,94.2v-1c-0.5,0.8-1.3,1.2-2.2,1.2c-0.4,0-0.8-0.1-1.1-0.2s-0.6-0.3-0.8-0.6c-0.2-0.2-0.3-0.5-0.4-0.9
			c0-0.2-0.1-0.6-0.1-1.1v-4.3h1.2v3.8c0,0.6,0,1,0.1,1.2c0.1,0.3,0.2,0.6,0.5,0.7c0.2,0.2,0.5,0.3,0.9,0.3c0.3,0,0.7-0.1,1-0.3
			s0.5-0.4,0.7-0.7s0.2-0.8,0.2-1.3v-3.7h1.2v6.9H498.1z M503.6,93.1l0.2,1c-0.3,0.1-0.6,0.1-0.9,0.1c-0.4,0-0.8-0.1-1-0.2
			c-0.2-0.1-0.4-0.3-0.5-0.5s-0.1-0.7-0.1-1.4v-4h-0.9v-0.9h0.9v-1.7l1.2-0.7v2.4h1.2v0.9h-1.2v4c0,0.3,0,0.5,0,0.6
			c0,0.1,0.1,0.2,0.2,0.2c0.1,0.1,0.2,0.1,0.4,0.1C503.2,93.2,503.4,93.2,503.6,93.1z M509.2,93.3c-0.4,0.4-0.9,0.6-1.3,0.8
			c-0.4,0.1-0.8,0.2-1.3,0.2c-0.8,0-1.3-0.2-1.8-0.5c-0.4-0.4-0.6-0.9-0.6-1.4c0-0.3,0.1-0.6,0.2-0.9c0.2-0.3,0.4-0.5,0.6-0.7
			s0.5-0.3,0.8-0.4c0.2-0.1,0.6-0.1,1-0.2c0.9-0.1,1.6-0.3,2.1-0.4c0-0.2,0-0.3,0-0.3c0-0.5-0.1-0.8-0.3-1c-0.3-0.3-0.8-0.4-1.3-0.4
			c-0.5,0-0.9,0.1-1.2,0.3c-0.3,0.2-0.5,0.5-0.6,1l-1.1-0.2c0.1-0.5,0.3-0.9,0.5-1.2c0.2-0.3,0.6-0.5,1-0.7c0.4-0.2,1-0.3,1.6-0.3
			s1.1,0.1,1.4,0.2c0.4,0.1,0.6,0.3,0.8,0.5c0.2,0.2,0.3,0.5,0.4,0.8c0,0.2,0,0.6,0,1.1v1.6c0,1.1,0,1.8,0.1,2.1
			c0.1,0.3,0.2,0.6,0.3,0.8h-1.2C509.3,93.9,509.3,93.7,509.2,93.3z M509.1,90.7c-0.4,0.2-1.1,0.3-1.9,0.4c-0.5,0.1-0.8,0.2-1,0.3
			c-0.2,0.1-0.4,0.2-0.5,0.4c-0.1,0.2-0.2,0.3-0.2,0.5c0,0.3,0.1,0.6,0.3,0.8c0.2,0.2,0.6,0.3,1,0.3c0.4,0,0.8-0.1,1.2-0.3
			c0.4-0.2,0.6-0.5,0.8-0.8c0.1-0.3,0.2-0.7,0.2-1.2V90.7z M513.2,94.2h-1.1v-9.5h1.2V88c0.5-0.6,1.1-0.9,1.9-0.9
			c0.4,0,0.8,0.1,1.2,0.3c0.4,0.2,0.7,0.4,0.9,0.7c0.3,0.3,0.4,0.7,0.6,1.1c0.1,0.4,0.2,0.9,0.2,1.4c0,1.2-0.3,2.1-0.9,2.8
			c-0.6,0.6-1.3,1-2.1,1c-0.8,0-1.5-0.3-1.9-1V94.2z M513.2,90.7c0,0.8,0.1,1.4,0.3,1.8c0.4,0.6,0.9,0.9,1.5,0.9
			c0.5,0,1-0.2,1.3-0.7c0.4-0.4,0.6-1.1,0.6-2c0-0.9-0.2-1.6-0.5-2c-0.4-0.4-0.8-0.7-1.3-0.7c-0.5,0-1,0.2-1.3,0.7
			C513.4,89.2,513.2,89.8,513.2,90.7z M519.5,94.2v-9.5h1.2v9.5H519.5z M527.2,92l1.2,0.1c-0.2,0.7-0.5,1.3-1.1,1.7
			c-0.5,0.4-1.2,0.6-2,0.6c-1,0-1.8-0.3-2.4-0.9s-0.9-1.5-0.9-2.6c0-1.2,0.3-2.1,0.9-2.7c0.6-0.6,1.4-1,2.3-1c0.9,0,1.7,0.3,2.3,0.9
			s0.9,1.5,0.9,2.7c0,0.1,0,0.2,0,0.3h-5.2c0,0.8,0.3,1.3,0.6,1.8c0.4,0.4,0.9,0.6,1.4,0.6c0.4,0,0.8-0.1,1.1-0.3
			C526.8,92.8,527.1,92.4,527.2,92z M523.4,90.1h3.9c-0.1-0.6-0.2-1-0.4-1.3c-0.4-0.5-0.9-0.7-1.5-0.7c-0.5,0-1,0.2-1.4,0.5
			C523.6,89,523.4,89.4,523.4,90.1z M533.9,94.2v-1.3h1.3v1.3H533.9z M541.8,93.3c-0.4,0.4-0.9,0.6-1.3,0.8
			c-0.4,0.1-0.8,0.2-1.3,0.2c-0.8,0-1.3-0.2-1.8-0.5c-0.4-0.4-0.6-0.9-0.6-1.4c0-0.3,0.1-0.6,0.2-0.9c0.2-0.3,0.4-0.5,0.6-0.7
			s0.5-0.3,0.8-0.4c0.2-0.1,0.6-0.1,1-0.2c0.9-0.1,1.6-0.3,2.1-0.4c0-0.2,0-0.3,0-0.3c0-0.5-0.1-0.8-0.3-1c-0.3-0.3-0.8-0.4-1.3-0.4
			c-0.5,0-0.9,0.1-1.2,0.3c-0.3,0.2-0.5,0.5-0.6,1l-1.1-0.2c0.1-0.5,0.3-0.9,0.5-1.2c0.2-0.3,0.6-0.5,1-0.7c0.4-0.2,1-0.3,1.6-0.3
			s1.1,0.1,1.4,0.2c0.4,0.1,0.6,0.3,0.8,0.5c0.2,0.2,0.3,0.5,0.4,0.8c0,0.2,0,0.6,0,1.1v1.6c0,1.1,0,1.8,0.1,2.1
			c0.1,0.3,0.2,0.6,0.3,0.8h-1.2C541.9,93.9,541.9,93.7,541.8,93.3z M541.7,90.7c-0.4,0.2-1.1,0.3-1.9,0.4c-0.5,0.1-0.8,0.2-1,0.3
			c-0.2,0.1-0.4,0.2-0.5,0.4c-0.1,0.2-0.2,0.3-0.2,0.5c0,0.3,0.1,0.6,0.3,0.8c0.2,0.2,0.6,0.3,1,0.3c0.4,0,0.8-0.1,1.2-0.3
			c0.4-0.2,0.6-0.5,0.8-0.8c0.1-0.3,0.2-0.7,0.2-1.2V90.7z M544.7,96.8v-9.6h1.1v0.9c0.3-0.4,0.5-0.6,0.8-0.8
			c0.3-0.2,0.7-0.3,1.2-0.3c0.6,0,1.1,0.2,1.5,0.5c0.5,0.3,0.8,0.7,1,1.3c0.2,0.6,0.3,1.2,0.3,1.8c0,0.7-0.1,1.3-0.4,1.9
			c-0.3,0.6-0.6,1-1.1,1.3c-0.5,0.3-1,0.5-1.5,0.5c-0.4,0-0.7-0.1-1-0.3s-0.6-0.4-0.8-0.6v3.4H544.7z M545.8,90.8
			c0,0.9,0.2,1.6,0.5,2c0.4,0.4,0.8,0.6,1.3,0.6c0.5,0,1-0.2,1.3-0.7s0.6-1.1,0.6-2c0-0.9-0.2-1.5-0.5-2c-0.4-0.4-0.8-0.7-1.3-0.7
			s-0.9,0.2-1.3,0.7C546,89.2,545.8,89.9,545.8,90.8z M552.1,96.8v-9.6h1.1v0.9c0.3-0.4,0.5-0.6,0.8-0.8c0.3-0.2,0.7-0.3,1.2-0.3
			c0.6,0,1.1,0.2,1.5,0.5c0.5,0.3,0.8,0.7,1,1.3s0.3,1.2,0.3,1.8c0,0.7-0.1,1.3-0.4,1.9c-0.3,0.6-0.6,1-1.1,1.3
			c-0.5,0.3-1,0.5-1.5,0.5c-0.4,0-0.7-0.1-1-0.3s-0.6-0.4-0.8-0.6v3.4H552.1z M553.2,90.8c0,0.9,0.2,1.6,0.5,2
			c0.4,0.4,0.8,0.6,1.3,0.6c0.5,0,1-0.2,1.3-0.7s0.6-1.1,0.6-2c0-0.9-0.2-1.5-0.5-2c-0.4-0.4-0.8-0.7-1.3-0.7s-0.9,0.2-1.3,0.7
			S553.2,89.9,553.2,90.8z M563.3,96.8v-9.6h1.1v0.9c0.3-0.4,0.5-0.6,0.8-0.8c0.3-0.2,0.7-0.3,1.2-0.3c0.6,0,1.1,0.2,1.5,0.5
			c0.5,0.3,0.8,0.7,1,1.3c0.2,0.6,0.3,1.2,0.3,1.8c0,0.7-0.1,1.3-0.4,1.9c-0.3,0.6-0.6,1-1.1,1.3c-0.5,0.3-1,0.5-1.5,0.5
			c-0.4,0-0.7-0.1-1-0.3s-0.6-0.4-0.8-0.6v3.4H563.3z M564.3,90.8c0,0.9,0.2,1.6,0.5,2c0.4,0.4,0.8,0.6,1.3,0.6c0.5,0,1-0.2,1.3-0.7
			s0.6-1.1,0.6-2c0-0.9-0.2-1.5-0.5-2c-0.4-0.4-0.8-0.7-1.3-0.7s-0.9,0.2-1.3,0.7C564.5,89.2,564.3,89.9,564.3,90.8z M575.2,93.3
			c-0.4,0.4-0.9,0.6-1.3,0.8c-0.4,0.1-0.8,0.2-1.3,0.2c-0.8,0-1.3-0.2-1.8-0.5c-0.4-0.4-0.6-0.9-0.6-1.4c0-0.3,0.1-0.6,0.2-0.9
			c0.2-0.3,0.4-0.5,0.6-0.7s0.5-0.3,0.8-0.4c0.2-0.1,0.6-0.1,1-0.2c0.9-0.1,1.6-0.3,2.1-0.4c0-0.2,0-0.3,0-0.3c0-0.5-0.1-0.8-0.3-1
			c-0.3-0.3-0.8-0.4-1.3-0.4c-0.5,0-0.9,0.1-1.2,0.3c-0.3,0.2-0.5,0.5-0.6,1l-1.1-0.2c0.1-0.5,0.3-0.9,0.5-1.2
			c0.2-0.3,0.6-0.5,1-0.7c0.4-0.2,1-0.3,1.6-0.3s1.1,0.1,1.4,0.2c0.4,0.1,0.6,0.3,0.8,0.5c0.2,0.2,0.3,0.5,0.4,0.8
			c0,0.2,0,0.6,0,1.1v1.6c0,1.1,0,1.8,0.1,2.1c0.1,0.3,0.2,0.6,0.3,0.8h-1.2C575.3,93.9,575.2,93.7,575.2,93.3z M575.1,90.7
			c-0.4,0.2-1.1,0.3-1.9,0.4c-0.5,0.1-0.8,0.2-1,0.3c-0.2,0.1-0.4,0.2-0.5,0.4c-0.1,0.2-0.2,0.3-0.2,0.5c0,0.3,0.1,0.6,0.3,0.8
			c0.2,0.2,0.6,0.3,1,0.3c0.4,0,0.8-0.1,1.2-0.3c0.4-0.2,0.6-0.5,0.8-0.8c0.1-0.3,0.2-0.7,0.2-1.2V90.7z M578,96.8l-0.1-1.1
			c0.3,0.1,0.5,0.1,0.7,0.1c0.3,0,0.5,0,0.6-0.1c0.2-0.1,0.3-0.2,0.4-0.4c0.1-0.1,0.2-0.4,0.4-0.9c0-0.1,0.1-0.2,0.1-0.3l-2.6-6.9
			h1.3l1.4,4c0.2,0.5,0.4,1,0.5,1.6c0.1-0.5,0.3-1.1,0.5-1.6l1.5-4h1.2l-2.6,7c-0.3,0.8-0.5,1.3-0.7,1.6c-0.2,0.4-0.4,0.7-0.7,0.8
			c-0.3,0.2-0.6,0.3-1,0.3C578.6,97,578.3,96.9,578,96.8z M584.7,94.2v-9.5h1.2v9.5H584.7z M587.3,90.7c0-1.3,0.4-2.2,1.1-2.8
			c0.6-0.5,1.3-0.8,2.2-0.8c0.9,0,1.7,0.3,2.3,0.9c0.6,0.6,0.9,1.5,0.9,2.6c0,0.9-0.1,1.6-0.4,2.1c-0.3,0.5-0.6,0.9-1.2,1.2
			c-0.5,0.3-1.1,0.4-1.7,0.4c-1,0-1.8-0.3-2.4-0.9C587.6,92.8,587.3,91.9,587.3,90.7z M588.5,90.7c0,0.9,0.2,1.5,0.6,2
			c0.4,0.4,0.9,0.7,1.5,0.7c0.6,0,1.1-0.2,1.5-0.7c0.4-0.4,0.6-1.1,0.6-2c0-0.9-0.2-1.5-0.6-1.9c-0.4-0.4-0.9-0.7-1.4-0.7
			c-0.6,0-1.1,0.2-1.5,0.7C588.7,89.2,588.5,89.8,588.5,90.7z M599.6,93.3c-0.4,0.4-0.9,0.6-1.3,0.8c-0.4,0.1-0.8,0.2-1.3,0.2
			c-0.8,0-1.3-0.2-1.8-0.5c-0.4-0.4-0.6-0.9-0.6-1.4c0-0.3,0.1-0.6,0.2-0.9c0.2-0.3,0.4-0.5,0.6-0.7s0.5-0.3,0.8-0.4
			c0.2-0.1,0.6-0.1,1-0.2c0.9-0.1,1.6-0.3,2.1-0.4c0-0.2,0-0.3,0-0.3c0-0.5-0.1-0.8-0.3-1c-0.3-0.3-0.8-0.4-1.3-0.4
			c-0.5,0-0.9,0.1-1.2,0.3c-0.3,0.2-0.5,0.5-0.6,1l-1.1-0.2c0.1-0.5,0.3-0.9,0.5-1.2s0.6-0.5,1-0.7c0.4-0.2,1-0.3,1.6-0.3
			s1.1,0.1,1.4,0.2c0.4,0.1,0.6,0.3,0.8,0.5c0.2,0.2,0.3,0.5,0.4,0.8c0,0.2,0,0.6,0,1.1v1.6c0,1.1,0,1.8,0.1,2.1s0.2,0.6,0.3,0.8
			h-1.2C599.7,93.9,599.7,93.7,599.6,93.3z M599.5,90.7c-0.4,0.2-1.1,0.3-1.9,0.4c-0.5,0.1-0.8,0.2-1,0.3c-0.2,0.1-0.4,0.2-0.5,0.4
			c-0.1,0.2-0.2,0.3-0.2,0.5c0,0.3,0.1,0.6,0.3,0.8c0.2,0.2,0.6,0.3,1,0.3c0.4,0,0.8-0.1,1.2-0.3s0.6-0.5,0.8-0.8
			c0.1-0.3,0.2-0.7,0.2-1.2V90.7z M607,94.2v-0.9c-0.4,0.7-1.1,1-1.9,1c-0.5,0-1-0.2-1.5-0.5c-0.5-0.3-0.8-0.7-1.1-1.3
			c-0.3-0.6-0.4-1.2-0.4-1.9c0-0.7,0.1-1.3,0.3-1.9c0.2-0.6,0.6-1,1-1.3c0.5-0.3,1-0.5,1.5-0.5c0.4,0,0.8,0.1,1.1,0.3
			c0.3,0.2,0.6,0.4,0.8,0.7v-3.4h1.2v9.5H607z M603.3,90.7c0,0.9,0.2,1.5,0.6,2c0.4,0.4,0.8,0.7,1.3,0.7c0.5,0,0.9-0.2,1.3-0.6
			c0.4-0.4,0.5-1.1,0.5-1.9c0-0.9-0.2-1.6-0.5-2.1c-0.4-0.4-0.8-0.7-1.3-0.7c-0.5,0-1,0.2-1.3,0.6C603.5,89.1,603.3,89.8,603.3,90.7
			z"/>
		<path class="st2" d="M523.1,103.1c0,21.5-56.2,43-112.3,43"/>
		<path class="st4" d="M523.1,103.1c0,10.7-14,21.5-35.1,29.5c-10.5,4-22.8,7.4-36,9.7c-6.6,1.2-13.4,2.1-20.3,2.7
			c-3.5,0.3-6.9,0.6-10.4,0.7c-1.7,0.1-3.5,0.1-5.3,0.2c-0.4,0-0.9,0-1.3,0l-0.5,0"/>
		<path class="st5" d="M414.2,146.1l1.1-1.1l-3.1,1.1l3.1,1.1L414.2,146.1z"/>
		<path class="st2" d="M199.8,280.2h195.7v43.5H199.8V280.2z"/>
		<path d="M217.2,308.9v-13.4h1.8v11.8h6.6v1.6H217.2z M226.9,304.1c0-1.8,0.5-3.1,1.5-4c0.8-0.7,1.8-1.1,3-1.1
			c1.3,0,2.4,0.4,3.3,1.3c0.8,0.9,1.3,2.1,1.3,3.6c0,1.2-0.2,2.2-0.6,2.9c-0.4,0.7-0.9,1.3-1.6,1.7c-0.7,0.4-1.5,0.6-2.3,0.6
			c-1.4,0-2.4-0.4-3.3-1.3C227.3,307,226.9,305.7,226.9,304.1z M228.5,304.1c0,1.2,0.3,2.2,0.8,2.8c0.5,0.6,1.2,0.9,2,0.9
			c0.8,0,1.5-0.3,2-0.9c0.5-0.6,0.8-1.6,0.8-2.8c0-1.2-0.3-2.1-0.8-2.7c-0.5-0.6-1.2-0.9-2-0.9c-0.8,0-1.5,0.3-2,0.9
			C228.8,301.9,228.5,302.8,228.5,304.1z M237.2,304.1c0-1.8,0.5-3.1,1.5-4c0.8-0.7,1.8-1.1,3-1.1c1.3,0,2.4,0.4,3.3,1.3
			c0.8,0.9,1.3,2.1,1.3,3.6c0,1.2-0.2,2.2-0.6,2.9c-0.4,0.7-0.9,1.3-1.6,1.7c-0.7,0.4-1.5,0.6-2.3,0.6c-1.4,0-2.4-0.4-3.3-1.3
			C237.7,307,237.2,305.7,237.2,304.1z M238.9,304.1c0,1.2,0.3,2.2,0.8,2.8c0.5,0.6,1.2,0.9,2,0.9c0.8,0,1.5-0.3,2-0.9
			c0.5-0.6,0.8-1.6,0.8-2.8c0-1.2-0.3-2.1-0.8-2.7c-0.5-0.6-1.2-0.9-2-0.9c-0.8,0-1.5,0.3-2,0.9
			C239.2,301.9,238.9,302.8,238.9,304.1z M248.2,308.9v-13.4h1.6v7.6l3.9-3.9h2.1l-3.7,3.6l4.1,6.1h-2l-3.2-5l-1.2,1.1v3.8H248.2z
			 M263.9,308.9v-1.4c-0.7,1.1-1.8,1.6-3.1,1.6c-0.6,0-1.1-0.1-1.6-0.3c-0.5-0.2-0.9-0.5-1.1-0.8c-0.2-0.3-0.4-0.7-0.5-1.2
			c-0.1-0.3-0.1-0.8-0.1-1.5v-6h1.6v5.4c0,0.9,0,1.4,0.1,1.7c0.1,0.4,0.3,0.8,0.7,1c0.3,0.3,0.7,0.4,1.2,0.4c0.5,0,0.9-0.1,1.4-0.4
			c0.4-0.3,0.7-0.6,0.9-1c0.2-0.4,0.3-1.1,0.3-1.9v-5.2h1.6v9.7H263.9z M267.9,312.6v-13.4h1.5v1.3c0.4-0.5,0.8-0.9,1.2-1.1
			c0.4-0.3,1-0.4,1.6-0.4c0.8,0,1.5,0.2,2.2,0.6c0.6,0.4,1.1,1,1.4,1.8c0.3,0.8,0.5,1.6,0.5,2.5c0,1-0.2,1.9-0.5,2.7
			c-0.4,0.8-0.9,1.4-1.5,1.8c-0.7,0.4-1.4,0.6-2.1,0.6c-0.5,0-1-0.1-1.5-0.3c-0.4-0.2-0.8-0.5-1.1-0.9v4.7H267.9z M269.4,304.1
			c0,1.2,0.3,2.2,0.8,2.8c0.5,0.6,1.1,0.9,1.8,0.9c0.7,0,1.4-0.3,1.9-0.9c0.5-0.6,0.8-1.6,0.8-2.9c0-1.2-0.3-2.2-0.8-2.8
			c-0.5-0.6-1.1-0.9-1.8-0.9c-0.7,0-1.3,0.3-1.9,1C269.7,301.9,269.4,302.9,269.4,304.1z M282.3,308.9l-5.2-13.4h1.9l3.5,9.7
			c0.3,0.8,0.5,1.5,0.7,2.2c0.2-0.7,0.4-1.5,0.7-2.2l3.6-9.7h1.8l-5.2,13.4H282.3z M290.4,297.4v-1.9h1.6v1.9H290.4z M290.4,308.9
			v-9.7h1.6v9.7H290.4z M301.2,305.8l1.7,0.2c-0.3,1-0.8,1.8-1.5,2.3c-0.7,0.5-1.6,0.8-2.8,0.8c-1.4,0-2.5-0.4-3.4-1.3
			c-0.8-0.9-1.2-2.1-1.2-3.7c0-1.6,0.4-2.9,1.3-3.8c0.8-0.9,1.9-1.3,3.3-1.3c1.3,0,2.3,0.4,3.2,1.3c0.8,0.9,1.2,2.1,1.2,3.7
			c0,0.1,0,0.3,0,0.4h-7.2c0.1,1.1,0.4,1.9,0.9,2.5c0.5,0.6,1.2,0.8,2,0.8c0.6,0,1.1-0.2,1.5-0.5C300.6,307,300.9,306.5,301.2,305.8
			z M295.8,303.1h5.4c-0.1-0.8-0.3-1.4-0.6-1.8c-0.5-0.6-1.2-1-2-1c-0.8,0-1.4,0.3-1.9,0.8C296.1,301.6,295.8,302.3,295.8,303.1z
			 M306.7,308.9l-3-9.7h1.7l1.5,5.6l0.6,2.1c0-0.1,0.2-0.8,0.5-2l1.5-5.7h1.7l1.4,5.6l0.5,1.8l0.6-1.9l1.7-5.6h1.6l-3,9.7h-1.7
			l-1.5-5.8l-0.4-1.6l-2,7.4H306.7z M318,304.6l1.7-0.1c0.1,0.7,0.3,1.2,0.5,1.6c0.3,0.4,0.7,0.8,1.3,1c0.6,0.3,1.3,0.4,2.1,0.4
			c0.7,0,1.3-0.1,1.8-0.3c0.5-0.2,0.9-0.5,1.2-0.8c0.3-0.4,0.4-0.7,0.4-1.2c0-0.4-0.1-0.8-0.4-1.1c-0.2-0.3-0.6-0.6-1.2-0.8
			c-0.4-0.1-1.2-0.3-2.4-0.6c-1.2-0.3-2.1-0.6-2.6-0.8c-0.6-0.3-1.1-0.7-1.4-1.2c-0.3-0.5-0.5-1.1-0.5-1.7c0-0.7,0.2-1.3,0.6-1.9
			c0.4-0.6,0.9-1,1.7-1.3c0.7-0.3,1.6-0.5,2.5-0.5c1,0,1.9,0.2,2.6,0.5c0.8,0.3,1.3,0.8,1.8,1.4c0.4,0.6,0.6,1.3,0.7,2.1l-1.7,0.1
			c-0.1-0.8-0.4-1.5-0.9-1.9c-0.5-0.4-1.3-0.7-2.3-0.7c-1.1,0-1.9,0.2-2.3,0.6c-0.5,0.4-0.7,0.9-0.7,1.4c0,0.5,0.2,0.9,0.5,1.2
			c0.3,0.3,1.2,0.6,2.7,1c1.4,0.3,2.4,0.6,3,0.8c0.8,0.4,1.4,0.8,1.7,1.4c0.4,0.6,0.6,1.2,0.6,1.9c0,0.7-0.2,1.4-0.6,2
			c-0.4,0.6-1,1.1-1.8,1.5c-0.8,0.3-1.6,0.5-2.6,0.5c-1.2,0-2.2-0.2-3-0.5c-0.8-0.4-1.5-0.9-1.9-1.6
			C318.3,306.3,318,305.5,318,304.6z M337.5,305.8l1.7,0.2c-0.3,1-0.8,1.8-1.5,2.3c-0.7,0.5-1.6,0.8-2.8,0.8c-1.4,0-2.5-0.4-3.4-1.3
			c-0.8-0.9-1.2-2.1-1.2-3.7c0-1.6,0.4-2.9,1.3-3.8c0.8-0.9,1.9-1.3,3.3-1.3c1.3,0,2.3,0.4,3.2,1.3c0.8,0.9,1.2,2.1,1.2,3.7
			c0,0.1,0,0.3,0,0.4H332c0.1,1.1,0.4,1.9,0.9,2.5c0.5,0.6,1.2,0.8,2,0.8c0.6,0,1.1-0.2,1.5-0.5C336.9,307,337.2,306.5,337.5,305.8z
			 M332.1,303.1h5.4c-0.1-0.8-0.3-1.4-0.6-1.8c-0.5-0.6-1.2-1-2-1c-0.8,0-1.4,0.3-1.9,0.8C332.4,301.6,332.1,302.3,332.1,303.1z
			 M341.2,308.9v-9.7h1.5v1.5c0.4-0.7,0.7-1.1,1-1.4c0.3-0.2,0.7-0.3,1.1-0.3c0.6,0,1.1,0.2,1.7,0.5l-0.6,1.5
			c-0.4-0.2-0.8-0.4-1.2-0.4c-0.4,0-0.7,0.1-1,0.3c-0.3,0.2-0.5,0.5-0.6,0.9c-0.2,0.6-0.3,1.2-0.3,1.9v5.1H341.2z M350.1,308.9
			l-3.7-9.7h1.7l2.1,5.8c0.2,0.6,0.4,1.3,0.6,1.9c0.1-0.5,0.3-1.1,0.6-1.8l2.1-5.9h1.7l-3.7,9.7H350.1z M356.8,297.4v-1.9h1.6v1.9
			H356.8z M356.8,308.9v-9.7h1.6v9.7H356.8z M367.2,305.4l1.6,0.2c-0.2,1.1-0.6,2-1.4,2.6c-0.7,0.6-1.6,0.9-2.7,0.9
			c-1.3,0-2.4-0.4-3.2-1.3c-0.8-0.9-1.2-2.1-1.2-3.7c0-1.1,0.2-2,0.5-2.8s0.9-1.4,1.6-1.8c0.7-0.4,1.5-0.6,2.3-0.6
			c1.1,0,1.9,0.3,2.6,0.8s1.1,1.3,1.3,2.3l-1.6,0.2c-0.2-0.6-0.4-1.1-0.8-1.5c-0.4-0.3-0.8-0.5-1.4-0.5c-0.8,0-1.5,0.3-2,0.9
			c-0.5,0.6-0.8,1.5-0.8,2.8c0,1.3,0.3,2.3,0.8,2.8c0.5,0.6,1.2,0.9,2,0.9c0.6,0,1.2-0.2,1.6-0.6
			C366.8,306.8,367.1,306.2,367.2,305.4z M376.9,305.8l1.7,0.2c-0.3,1-0.8,1.8-1.5,2.3c-0.7,0.5-1.6,0.8-2.8,0.8
			c-1.4,0-2.5-0.4-3.4-1.3c-0.8-0.9-1.2-2.1-1.2-3.7c0-1.6,0.4-2.9,1.3-3.8c0.8-0.9,1.9-1.3,3.3-1.3c1.3,0,2.3,0.4,3.2,1.3
			c0.8,0.9,1.2,2.1,1.2,3.7c0,0.1,0,0.3,0,0.4h-7.2c0.1,1.1,0.4,1.9,0.9,2.5c0.5,0.6,1.2,0.8,2,0.8c0.6,0,1.1-0.2,1.5-0.5
			C376.3,307,376.6,306.5,376.9,305.8z M371.5,303.1h5.4c-0.1-0.8-0.3-1.4-0.6-1.8c-0.5-0.6-1.2-1-2-1c-0.8,0-1.4,0.3-1.9,0.8
			C371.8,301.6,371.5,302.3,371.5,303.1z"/>
		<path class="st2" d="M107.9,231c0,35.5,45.9,71,91.8,71"/>
		<path class="st4" d="M107.9,231c0,17.7,11.5,35.5,28.7,48.8c8.6,6.7,18.6,12.2,29.4,16.1c5.4,1.9,10.9,3.5,16.6,4.5
			c2.8,0.5,5.7,0.9,8.5,1.2c1.4,0.1,2.9,0.2,4.3,0.3l0.9,0"/>
		<path class="st5" d="M196.3,301.9l-1.1,1.1l3.1-1.1l-3.1-1.2L196.3,301.9z"/>
		<path class="st2" d="M53.2,276.2h65.2v16.2H53.2V276.2z"/>
		<path d="M70.8,288v-7.6h0.9v7.6H70.8z M72.8,285.2c0-1,0.3-1.8,0.8-2.3c0.5-0.4,1.1-0.6,1.7-0.6c0.8,0,1.4,0.3,1.9,0.8
			c0.5,0.5,0.7,1.2,0.7,2.1c0,0.7-0.1,1.3-0.3,1.7c-0.2,0.4-0.5,0.7-0.9,1c-0.4,0.2-0.9,0.3-1.3,0.3c-0.8,0-1.4-0.2-1.9-0.7
			C73.1,286.9,72.8,286.2,72.8,285.2z M73.8,285.2c0,0.7,0.2,1.2,0.5,1.6s0.7,0.5,1.2,0.5c0.5,0,0.9-0.2,1.2-0.5
			c0.3-0.4,0.5-0.9,0.5-1.6c0-0.7-0.2-1.2-0.5-1.5c-0.3-0.4-0.7-0.5-1.2-0.5c-0.5,0-0.8,0.2-1.2,0.5C73.9,284,73.8,284.5,73.8,285.2
			z M78.7,285.2c0-1,0.3-1.8,0.8-2.3c0.5-0.4,1.1-0.6,1.7-0.6c0.8,0,1.4,0.3,1.9,0.8c0.5,0.5,0.7,1.2,0.7,2.1c0,0.7-0.1,1.3-0.3,1.7
			c-0.2,0.4-0.5,0.7-0.9,1c-0.4,0.2-0.9,0.3-1.3,0.3c-0.8,0-1.4-0.2-1.9-0.7C79,286.9,78.7,286.2,78.7,285.2z M79.7,285.2
			c0,0.7,0.2,1.2,0.5,1.6s0.7,0.5,1.2,0.5c0.5,0,0.9-0.2,1.2-0.5c0.3-0.4,0.5-0.9,0.5-1.6c0-0.7-0.2-1.2-0.5-1.5
			c-0.3-0.4-0.7-0.5-1.2-0.5c-0.5,0-0.8,0.2-1.2,0.5C79.9,284,79.7,284.5,79.7,285.2z M85,288v-7.6H86v4.3l2.2-2.3h1.2l-2.1,2.1
			l2.3,3.5h-1.2l-1.8-2.8l-0.7,0.6v2.2H85z M94,288v-0.8c-0.4,0.6-1,0.9-1.8,0.9c-0.3,0-0.6-0.1-0.9-0.2c-0.3-0.1-0.5-0.3-0.6-0.5
			c-0.1-0.2-0.2-0.4-0.3-0.7c0-0.2,0-0.5,0-0.9v-3.4h0.9v3.1c0,0.5,0,0.8,0,1c0.1,0.2,0.2,0.4,0.4,0.6c0.2,0.1,0.4,0.2,0.7,0.2
			c0.3,0,0.5-0.1,0.8-0.2c0.2-0.1,0.4-0.3,0.5-0.6c0.1-0.3,0.2-0.6,0.2-1.1v-3h0.9v5.5H94z M96.3,290.1v-7.7h0.9v0.7
			c0.2-0.3,0.4-0.5,0.7-0.6c0.3-0.1,0.6-0.2,0.9-0.2c0.5,0,0.9,0.1,1.3,0.4c0.4,0.2,0.6,0.6,0.8,1c0.2,0.4,0.3,0.9,0.3,1.5
			c0,0.6-0.1,1.1-0.3,1.5c-0.2,0.4-0.5,0.8-0.9,1c-0.4,0.2-0.8,0.4-1.2,0.4c-0.3,0-0.6-0.1-0.8-0.2c-0.3-0.1-0.5-0.3-0.6-0.5v2.7
			H96.3z M97.1,285.3c0,0.7,0.1,1.2,0.4,1.6c0.3,0.3,0.6,0.5,1,0.5c0.4,0,0.8-0.2,1.1-0.5c0.3-0.4,0.5-0.9,0.5-1.6
			c0-0.7-0.1-1.2-0.4-1.6c-0.3-0.4-0.6-0.5-1-0.5c-0.4,0-0.8,0.2-1.1,0.6C97.3,284,97.1,284.6,97.1,285.3z"/>
		<path class="st2" d="M297.6,280.2c0-30.2,7.9-45.2,15.7-60.3c7.9-15.1,15.7-30.1,15.7-60.3"/>
		<path class="st4" d="M297.7,276.8l0-0.7c0-0.4,0-0.9,0-1.3c0.1-1.8,0.1-3.5,0.3-5.1c0.2-3.3,0.6-6.4,1-9.4
			c0.9-5.9,2.1-11.1,3.6-15.8c2.9-9.4,6.9-17,10.8-24.5c7.9-15.1,15.7-30.1,15.7-60.3"/>
		<path class="st5" d="M297.7,276.8l-1.1-1.1l1.1,3.1l1.2-3.1L297.7,276.8z"/>
		<path class="st2" d="M217.9,208.9h79.7V231h-79.7V208.9z"/>
		<path d="M228.5,222l0.9-0.1c0.1,0.4,0.2,0.7,0.4,0.9c0.2,0.2,0.6,0.3,1,0.3c0.4,0,0.7-0.1,1-0.3c0.2-0.2,0.3-0.4,0.3-0.6
			c0-0.2-0.1-0.4-0.3-0.5c-0.1-0.1-0.4-0.2-1-0.3c-0.7-0.2-1.2-0.3-1.4-0.5c-0.3-0.1-0.5-0.3-0.6-0.5c-0.1-0.2-0.2-0.5-0.2-0.8
			c0-0.2,0.1-0.5,0.2-0.7c0.1-0.2,0.3-0.4,0.5-0.5c0.1-0.1,0.3-0.2,0.6-0.3c0.3-0.1,0.5-0.1,0.8-0.1c0.4,0,0.8,0.1,1.1,0.2
			c0.3,0.1,0.6,0.3,0.7,0.5c0.2,0.2,0.3,0.5,0.3,0.9l-0.9,0.1c0-0.3-0.2-0.5-0.4-0.7c-0.2-0.2-0.5-0.2-0.8-0.2
			c-0.4,0-0.8,0.1-0.9,0.2c-0.2,0.1-0.3,0.3-0.3,0.5c0,0.1,0,0.2,0.1,0.3c0.1,0.1,0.2,0.2,0.4,0.3c0.1,0,0.4,0.1,0.8,0.3
			c0.7,0.2,1.1,0.3,1.4,0.4c0.3,0.1,0.5,0.3,0.6,0.5c0.2,0.2,0.2,0.5,0.2,0.8c0,0.3-0.1,0.6-0.3,0.9c-0.2,0.3-0.4,0.5-0.8,0.6
			c-0.3,0.1-0.7,0.2-1.2,0.2c-0.7,0-1.3-0.1-1.6-0.4C228.8,223.1,228.6,222.6,228.5,222z M236.2,222.8l0.1,0.8
			c-0.3,0.1-0.5,0.1-0.7,0.1c-0.3,0-0.6-0.1-0.8-0.2c-0.2-0.1-0.3-0.3-0.4-0.4c-0.1-0.2-0.1-0.5-0.1-1.1v-3.2h-0.7v-0.7h0.7v-1.4
			l0.9-0.6v1.9h0.9v0.7h-0.9v3.2c0,0.3,0,0.4,0,0.5c0,0.1,0.1,0.1,0.2,0.2c0.1,0,0.2,0.1,0.3,0.1C235.9,222.9,236,222.9,236.2,222.8
			z M240.7,223c-0.4,0.3-0.7,0.5-1,0.6c-0.3,0.1-0.7,0.2-1,0.2c-0.6,0-1.1-0.1-1.4-0.4c-0.3-0.3-0.5-0.7-0.5-1.1
			c0-0.3,0.1-0.5,0.2-0.7c0.1-0.2,0.3-0.4,0.5-0.5c0.2-0.1,0.4-0.2,0.7-0.3c0.2,0,0.5-0.1,0.8-0.1c0.8-0.1,1.3-0.2,1.7-0.3
			c0-0.1,0-0.2,0-0.3c0-0.4-0.1-0.7-0.3-0.8c-0.2-0.2-0.6-0.3-1.1-0.3c-0.4,0-0.8,0.1-1,0.2c-0.2,0.2-0.4,0.4-0.5,0.8l-0.9-0.1
			c0.1-0.4,0.2-0.7,0.4-0.9c0.2-0.3,0.5-0.4,0.8-0.6c0.4-0.1,0.8-0.2,1.3-0.2c0.5,0,0.9,0.1,1.2,0.2c0.3,0.1,0.5,0.3,0.6,0.4
			c0.1,0.2,0.2,0.4,0.3,0.6c0,0.2,0,0.4,0,0.9v1.3c0,0.9,0,1.4,0.1,1.7c0,0.2,0.1,0.4,0.2,0.7h-1C240.8,223.5,240.8,223.2,240.7,223
			z M240.7,220.9c-0.3,0.1-0.9,0.3-1.5,0.3c-0.4,0.1-0.7,0.1-0.8,0.2c-0.2,0.1-0.3,0.2-0.4,0.3c-0.1,0.1-0.1,0.3-0.1,0.4
			c0,0.3,0.1,0.5,0.3,0.6c0.2,0.2,0.5,0.3,0.8,0.3c0.4,0,0.7-0.1,1-0.2s0.5-0.4,0.6-0.7c0.1-0.2,0.2-0.5,0.2-0.9V220.9z
			 M242.9,224.1l0.9,0.1c0,0.3,0.2,0.5,0.3,0.6c0.2,0.2,0.5,0.3,0.9,0.3c0.4,0,0.8-0.1,1-0.3c0.2-0.2,0.4-0.4,0.5-0.7
			c0.1-0.2,0.1-0.6,0.1-1.2c-0.4,0.5-0.9,0.7-1.5,0.7c-0.8,0-1.3-0.3-1.8-0.8c-0.4-0.6-0.6-1.2-0.6-2c0-0.5,0.1-1,0.3-1.5
			c0.2-0.4,0.5-0.8,0.8-1c0.4-0.3,0.8-0.4,1.3-0.4c0.7,0,1.2,0.3,1.6,0.8v-0.7h0.9v4.8c0,0.9-0.1,1.5-0.3,1.8
			c-0.2,0.4-0.5,0.7-0.8,0.9c-0.4,0.2-0.8,0.3-1.4,0.3c-0.7,0-1.2-0.2-1.6-0.5C243.1,225.2,242.9,224.7,242.9,224.1z M243.7,220.8
			c0,0.7,0.1,1.2,0.4,1.6c0.3,0.3,0.7,0.5,1.1,0.5c0.4,0,0.8-0.2,1.1-0.5c0.3-0.3,0.4-0.9,0.4-1.6c0-0.7-0.2-1.2-0.5-1.5
			c-0.3-0.3-0.7-0.5-1.1-0.5c-0.4,0-0.8,0.2-1,0.5C243.8,219.6,243.7,220.1,243.7,220.8z M252.8,221.9l1,0.1c-0.2,0.6-0.4,1-0.9,1.3
			c-0.4,0.3-0.9,0.5-1.6,0.5c-0.8,0-1.4-0.3-1.9-0.8c-0.5-0.5-0.7-1.2-0.7-2.1c0-0.9,0.2-1.6,0.7-2.2c0.5-0.5,1.1-0.8,1.9-0.8
			c0.7,0,1.3,0.3,1.8,0.8c0.5,0.5,0.7,1.2,0.7,2.1c0,0.1,0,0.1,0,0.2h-4.1c0,0.6,0.2,1.1,0.5,1.4c0.3,0.3,0.7,0.5,1.2,0.5
			c0.3,0,0.6-0.1,0.9-0.3C252.4,222.6,252.6,222.3,252.8,221.9z M249.7,220.4h3.1c0-0.5-0.2-0.8-0.4-1c-0.3-0.4-0.7-0.5-1.2-0.5
			c-0.4,0-0.8,0.1-1.1,0.4C249.9,219.5,249.7,219.9,249.7,220.4z M261.1,223.7h-0.9v-6c-0.2,0.2-0.5,0.4-0.9,0.7
			c-0.4,0.2-0.7,0.4-1,0.5v-0.9c0.5-0.2,1-0.5,1.4-0.9c0.4-0.4,0.7-0.7,0.8-1h0.6V223.7z M266.1,223.7l3-4l-2.6-3.7h1.2l1.4,2
			c0.3,0.4,0.5,0.7,0.6,0.9c0.2-0.3,0.4-0.6,0.6-0.9l1.5-2h1.1l-2.7,3.6l2.9,4h-1.3l-1.9-2.7c-0.1-0.2-0.2-0.3-0.3-0.5
			c-0.2,0.3-0.3,0.5-0.4,0.6l-1.9,2.7H266.1z M273.6,221.2l1-0.1c0,0.4,0.1,0.7,0.3,0.9c0.2,0.2,0.4,0.4,0.8,0.6
			c0.3,0.1,0.7,0.2,1.2,0.2c0.4,0,0.7-0.1,1-0.2c0.3-0.1,0.5-0.3,0.7-0.5c0.1-0.2,0.2-0.4,0.2-0.7c0-0.2-0.1-0.4-0.2-0.6
			c-0.1-0.2-0.4-0.3-0.7-0.4c-0.2-0.1-0.7-0.2-1.4-0.4c-0.7-0.2-1.2-0.3-1.5-0.5c-0.4-0.2-0.6-0.4-0.8-0.7c-0.2-0.3-0.3-0.6-0.3-1
			c0-0.4,0.1-0.7,0.3-1.1c0.2-0.3,0.5-0.6,1-0.8c0.4-0.2,0.9-0.3,1.4-0.3c0.6,0,1.1,0.1,1.5,0.3c0.4,0.2,0.8,0.4,1,0.8
			c0.2,0.4,0.4,0.8,0.4,1.2l-1,0.1c-0.1-0.5-0.2-0.8-0.5-1.1c-0.3-0.3-0.7-0.4-1.3-0.4c-0.6,0-1.1,0.1-1.3,0.3
			c-0.3,0.2-0.4,0.5-0.4,0.8c0,0.3,0.1,0.5,0.3,0.7c0.2,0.2,0.7,0.4,1.5,0.5c0.8,0.2,1.4,0.3,1.7,0.5c0.4,0.2,0.8,0.5,1,0.8
			c0.2,0.3,0.3,0.7,0.3,1.1s-0.1,0.8-0.3,1.2c-0.2,0.4-0.6,0.6-1,0.8c-0.4,0.2-0.9,0.3-1.5,0.3c-0.7,0-1.3-0.1-1.8-0.3
			c-0.5-0.2-0.8-0.5-1.1-0.9C273.8,222.2,273.7,221.7,273.6,221.2z M280.8,221.2l1-0.1c0,0.4,0.1,0.7,0.3,0.9
			c0.2,0.2,0.4,0.4,0.8,0.6c0.3,0.1,0.7,0.2,1.2,0.2c0.4,0,0.7-0.1,1-0.2c0.3-0.1,0.5-0.3,0.7-0.5c0.1-0.2,0.2-0.4,0.2-0.7
			c0-0.2-0.1-0.4-0.2-0.6c-0.1-0.2-0.4-0.3-0.7-0.4c-0.2-0.1-0.7-0.2-1.4-0.4c-0.7-0.2-1.2-0.3-1.5-0.5c-0.4-0.2-0.6-0.4-0.8-0.7
			c-0.2-0.3-0.3-0.6-0.3-1c0-0.4,0.1-0.7,0.3-1.1c0.2-0.3,0.5-0.6,1-0.8c0.4-0.2,0.9-0.3,1.4-0.3c0.6,0,1.1,0.1,1.5,0.3
			c0.4,0.2,0.8,0.4,1,0.8c0.2,0.4,0.4,0.8,0.4,1.2l-1,0.1c-0.1-0.5-0.2-0.8-0.5-1.1s-0.7-0.4-1.3-0.4c-0.6,0-1.1,0.1-1.3,0.3
			c-0.3,0.2-0.4,0.5-0.4,0.8c0,0.3,0.1,0.5,0.3,0.7c0.2,0.2,0.7,0.4,1.5,0.5s1.4,0.3,1.7,0.5c0.4,0.2,0.8,0.5,1,0.8s0.3,0.7,0.3,1.1
			s-0.1,0.8-0.3,1.2c-0.2,0.4-0.6,0.6-1,0.8c-0.4,0.2-0.9,0.3-1.5,0.3c-0.7,0-1.3-0.1-1.8-0.3c-0.5-0.2-0.8-0.5-1.1-0.9
			C280.9,222.2,280.8,221.7,280.8,221.2z"/>
		<path class="st2" d="M466.3,270.6h149v43.5h-149V270.6z"/>
		<path d="M483.3,299.3v-13.4h4.6c1,0,1.8,0.1,2.4,0.2c0.8,0.2,1.4,0.5,2,1c0.7,0.6,1.2,1.4,1.6,2.3c0.4,0.9,0.5,2,0.5,3.2
			c0,1-0.1,1.9-0.4,2.7c-0.2,0.8-0.5,1.4-0.9,1.9c-0.4,0.5-0.8,0.9-1.2,1.2c-0.4,0.3-1,0.5-1.6,0.7c-0.6,0.1-1.3,0.2-2.1,0.2H483.3z
			 M485.1,297.7h2.9c0.9,0,1.6-0.1,2.1-0.2c0.5-0.2,0.9-0.4,1.2-0.7c0.4-0.4,0.7-1,1-1.7c0.2-0.7,0.4-1.6,0.4-2.6
			c0-1.4-0.2-2.5-0.7-3.2c-0.5-0.7-1-1.2-1.7-1.5c-0.5-0.2-1.2-0.3-2.3-0.3h-2.8V297.7z M496.6,287.8v-1.9h1.6v1.9H496.6z
			 M496.6,299.3v-9.7h1.6v9.7H496.6z M507.1,295.8l1.6,0.2c-0.2,1.1-0.6,2-1.4,2.6c-0.7,0.6-1.6,0.9-2.7,0.9c-1.3,0-2.4-0.4-3.2-1.3
			c-0.8-0.9-1.2-2.1-1.2-3.7c0-1.1,0.2-2,0.5-2.8c0.3-0.8,0.9-1.4,1.6-1.8c0.7-0.4,1.5-0.6,2.3-0.6c1.1,0,1.9,0.3,2.6,0.8
			c0.7,0.5,1.1,1.3,1.3,2.3l-1.6,0.2c-0.2-0.6-0.4-1.1-0.8-1.5c-0.4-0.3-0.8-0.5-1.4-0.5c-0.8,0-1.5,0.3-2,0.9
			c-0.5,0.6-0.8,1.5-0.8,2.8c0,1.3,0.3,2.3,0.8,2.8c0.5,0.6,1.2,0.9,2,0.9c0.6,0,1.2-0.2,1.6-0.6C506.7,297.2,507,296.6,507.1,295.8
			z M513.7,297.8l0.2,1.5c-0.5,0.1-0.9,0.1-1.2,0.1c-0.6,0-1.1-0.1-1.4-0.3c-0.3-0.2-0.6-0.4-0.7-0.7c-0.1-0.3-0.2-1-0.2-1.9v-5.6
			h-1.2v-1.3h1.2v-2.4l1.6-1v3.4h1.7v1.3H512v5.7c0,0.5,0,0.8,0.1,0.9c0.1,0.1,0.2,0.2,0.3,0.3c0.1,0.1,0.3,0.1,0.6,0.1
			C513.1,297.9,513.4,297.9,513.7,297.8z M515.3,287.8v-1.9h1.6v1.9H515.3z M515.3,299.3v-9.7h1.6v9.7H515.3z M518.8,294.5
			c0-1.8,0.5-3.1,1.5-4c0.8-0.7,1.8-1.1,3-1.1c1.3,0,2.4,0.4,3.3,1.3c0.8,0.9,1.3,2.1,1.3,3.6c0,1.2-0.2,2.2-0.6,2.9
			c-0.4,0.7-0.9,1.3-1.6,1.7c-0.7,0.4-1.5,0.6-2.3,0.6c-1.4,0-2.4-0.4-3.3-1.3C519.2,297.3,518.8,296.1,518.8,294.5z M520.5,294.5
			c0,1.2,0.3,2.2,0.8,2.8c0.5,0.6,1.2,0.9,2,0.9c0.8,0,1.5-0.3,2-0.9c0.5-0.6,0.8-1.6,0.8-2.8c0-1.2-0.3-2.1-0.8-2.7
			c-0.5-0.6-1.2-0.9-2-0.9c-0.8,0-1.5,0.3-2,0.9C520.8,292.3,520.5,293.2,520.5,294.5z M529.8,299.3v-9.7h1.5v1.4
			c0.7-1.1,1.7-1.6,3.1-1.6c0.6,0,1.1,0.1,1.6,0.3c0.5,0.2,0.9,0.5,1.1,0.8c0.3,0.3,0.4,0.7,0.5,1.2c0.1,0.3,0.1,0.8,0.1,1.6v6H536
			v-5.9c0-0.7-0.1-1.2-0.2-1.5c-0.1-0.3-0.3-0.6-0.7-0.8c-0.3-0.2-0.7-0.3-1.1-0.3c-0.7,0-1.3,0.2-1.8,0.7c-0.5,0.4-0.8,1.3-0.8,2.5
			v5.3H529.8z M546.5,298.1c-0.6,0.5-1.2,0.9-1.8,1.1c-0.6,0.2-1.2,0.3-1.8,0.3c-1.1,0-1.9-0.3-2.5-0.8c-0.6-0.5-0.9-1.2-0.9-2
			c0-0.5,0.1-0.9,0.3-1.3c0.2-0.4,0.5-0.7,0.8-0.9c0.4-0.2,0.8-0.4,1.2-0.5c0.3-0.1,0.8-0.2,1.5-0.3c1.3-0.2,2.3-0.3,2.9-0.6
			c0-0.2,0-0.4,0-0.4c0-0.7-0.2-1.1-0.5-1.4c-0.4-0.4-1-0.5-1.9-0.5c-0.8,0-1.3,0.1-1.7,0.4c-0.4,0.3-0.6,0.7-0.8,1.4l-1.6-0.2
			c0.1-0.7,0.4-1.2,0.7-1.6c0.3-0.4,0.8-0.8,1.5-1c0.6-0.2,1.4-0.3,2.2-0.3c0.8,0,1.5,0.1,2,0.3c0.5,0.2,0.9,0.4,1.1,0.7
			c0.3,0.3,0.4,0.7,0.5,1.1c0.1,0.3,0.1,0.8,0.1,1.5v2.2c0,1.5,0,2.5,0.1,2.9c0.1,0.4,0.2,0.8,0.4,1.2h-1.7
			C546.6,299,546.5,298.6,546.5,298.1z M546.3,294.4c-0.6,0.3-1.5,0.5-2.7,0.6c-0.7,0.1-1.2,0.2-1.4,0.3c-0.3,0.1-0.5,0.3-0.7,0.5
			c-0.1,0.2-0.2,0.5-0.2,0.8c0,0.4,0.2,0.8,0.5,1.1c0.3,0.3,0.8,0.4,1.5,0.4c0.6,0,1.2-0.1,1.7-0.4c0.5-0.3,0.9-0.7,1.1-1.1
			c0.2-0.4,0.3-0.9,0.3-1.6V294.4z M550.5,299.3v-9.7h1.5v1.5c0.4-0.7,0.7-1.1,1-1.4c0.3-0.2,0.7-0.3,1.1-0.3c0.6,0,1.1,0.2,1.7,0.5
			l-0.6,1.5c-0.4-0.2-0.8-0.4-1.2-0.4c-0.4,0-0.7,0.1-1,0.3c-0.3,0.2-0.5,0.5-0.6,0.9c-0.2,0.6-0.3,1.2-0.3,1.9v5.1H550.5z
			 M556.7,303l-0.2-1.5c0.4,0.1,0.7,0.1,0.9,0.1c0.4,0,0.7-0.1,0.9-0.2c0.2-0.1,0.4-0.3,0.5-0.5c0.1-0.2,0.3-0.6,0.5-1.2
			c0-0.1,0.1-0.2,0.1-0.4l-3.7-9.7h1.8l2,5.6c0.3,0.7,0.5,1.5,0.7,2.3c0.2-0.7,0.4-1.5,0.7-2.2l2.1-5.6h1.6l-3.7,9.8
			c-0.4,1.1-0.7,1.8-0.9,2.2c-0.3,0.5-0.6,0.9-1,1.2c-0.4,0.3-0.8,0.4-1.3,0.4C557.4,303.2,557.1,303.2,556.7,303z M565.1,299.3
			v-1.9h1.9v1.9H565.1z M576.2,298.1c-0.6,0.5-1.2,0.9-1.8,1.1c-0.6,0.2-1.2,0.3-1.8,0.3c-1.1,0-1.9-0.3-2.5-0.8
			c-0.6-0.5-0.9-1.2-0.9-2c0-0.5,0.1-0.9,0.3-1.3c0.2-0.4,0.5-0.7,0.8-0.9c0.4-0.2,0.8-0.4,1.2-0.5c0.3-0.1,0.8-0.2,1.5-0.3
			c1.3-0.2,2.3-0.3,2.9-0.6c0-0.2,0-0.4,0-0.4c0-0.7-0.2-1.1-0.5-1.4c-0.4-0.4-1-0.5-1.9-0.5c-0.8,0-1.3,0.1-1.7,0.4
			c-0.4,0.3-0.6,0.7-0.8,1.4l-1.6-0.2c0.1-0.7,0.4-1.2,0.7-1.6c0.3-0.4,0.8-0.8,1.5-1c0.6-0.2,1.4-0.3,2.2-0.3c0.8,0,1.5,0.1,2,0.3
			c0.5,0.2,0.9,0.4,1.1,0.7c0.3,0.3,0.4,0.7,0.5,1.1c0.1,0.3,0.1,0.8,0.1,1.5v2.2c0,1.5,0,2.5,0.1,2.9c0.1,0.4,0.2,0.8,0.4,1.2h-1.7
			C576.3,299,576.2,298.6,576.2,298.1z M576.1,294.4c-0.6,0.3-1.5,0.5-2.7,0.6c-0.7,0.1-1.2,0.2-1.4,0.3c-0.3,0.1-0.5,0.3-0.7,0.5
			c-0.1,0.2-0.2,0.5-0.2,0.8c0,0.4,0.2,0.8,0.5,1.1c0.3,0.3,0.8,0.4,1.5,0.4c0.6,0,1.2-0.1,1.7-0.4c0.5-0.3,0.9-0.7,1.1-1.1
			c0.2-0.4,0.3-0.9,0.3-1.6V294.4z M580.3,303v-13.4h1.5v1.3c0.4-0.5,0.7-0.9,1.2-1.1c0.4-0.2,1-0.4,1.6-0.4c0.8,0,1.5,0.2,2.2,0.6
			c0.6,0.4,1.1,1,1.4,1.8c0.3,0.8,0.5,1.6,0.5,2.5c0,1-0.2,1.9-0.5,2.7c-0.4,0.8-0.9,1.4-1.5,1.8c-0.7,0.4-1.4,0.6-2.1,0.6
			c-0.5,0-1-0.1-1.5-0.3c-0.4-0.2-0.8-0.5-1.1-0.9v4.7H580.3z M581.7,294.5c0,1.2,0.2,2.2,0.8,2.8c0.5,0.6,1.1,0.9,1.8,0.9
			c0.7,0,1.4-0.3,1.9-0.9c0.5-0.6,0.8-1.6,0.8-2.9c0-1.2-0.3-2.2-0.8-2.8c-0.5-0.6-1.1-0.9-1.8-0.9c-0.7,0-1.3,0.3-1.9,1
			C582,292.3,581.7,293.3,581.7,294.5z M590.6,303v-13.4h1.5v1.3c0.4-0.5,0.8-0.9,1.2-1.1c0.4-0.2,1-0.4,1.6-0.4
			c0.8,0,1.5,0.2,2.2,0.6c0.6,0.4,1.1,1,1.4,1.8c0.3,0.8,0.5,1.6,0.5,2.5c0,1-0.2,1.9-0.5,2.7c-0.4,0.8-0.9,1.4-1.5,1.8
			c-0.7,0.4-1.4,0.6-2.1,0.6c-0.5,0-1-0.1-1.5-0.3c-0.4-0.2-0.8-0.5-1.1-0.9v4.7H590.6z M592.1,294.5c0,1.2,0.3,2.2,0.8,2.8
			c0.5,0.6,1.1,0.9,1.8,0.9c0.7,0,1.4-0.3,1.9-0.9c0.5-0.6,0.8-1.6,0.8-2.9c0-1.2-0.3-2.2-0.8-2.8c-0.5-0.6-1.1-0.9-1.8-0.9
			c-0.7,0-1.3,0.3-1.9,1C592.4,292.3,592.1,293.3,592.1,294.5z"/>
		<path class="st2" d="M395.5,302c17.7,0,26.6-2.4,35.4-4.8c8.9-2.4,17.7-4.8,35.4-4.8"/>
		<path class="st4" d="M395.5,302c17.7,0,26.6-2.4,35.4-4.8c4.4-1.2,8.9-2.4,14.4-3.3c2.8-0.5,5.8-0.8,9.3-1.1
			c1.7-0.1,3.6-0.2,5.5-0.3c0.5,0,1,0,1.5,0l1.3,0"/>
		<path class="st5" d="M462.9,292.4l-1.1,1.1l3.1-1.2l-3.1-1.1L462.9,292.4z"/>
		<path class="st2" d="M389.6,314.1h68.2v30.1h-68.2V314.1z"/>
		<path d="M418.8,318.8h1v4.4c0,0.8-0.1,1.4-0.3,1.8c-0.2,0.4-0.5,0.8-1,1.1c-0.4,0.3-1,0.4-1.8,0.4c-0.7,0-1.3-0.1-1.8-0.4
			c-0.4-0.3-0.8-0.6-1-1.1c-0.2-0.5-0.3-1.1-0.3-1.9v-4.4h1v4.4c0,0.7,0.1,1.1,0.2,1.5s0.3,0.6,0.6,0.7c0.3,0.2,0.7,0.3,1.1,0.3
			c0.7,0,1.3-0.2,1.6-0.5c0.3-0.3,0.5-1,0.5-1.9V318.8z M421.5,326.4v-7.6h3.4c0.7,0,1.2,0.1,1.5,0.2c0.4,0.1,0.6,0.4,0.8,0.7
			c0.2,0.3,0.3,0.7,0.3,1.1c0,0.5-0.2,1-0.5,1.4c-0.3,0.4-0.9,0.6-1.6,0.7c0.3,0.1,0.5,0.3,0.6,0.4c0.3,0.3,0.6,0.6,0.8,1l1.3,2.1
			H427l-1-1.6c-0.3-0.5-0.5-0.8-0.7-1c-0.2-0.2-0.4-0.4-0.5-0.5c-0.1-0.1-0.3-0.2-0.5-0.2c-0.1,0-0.3,0-0.6,0h-1.2v3.4H421.5z
			 M422.5,322.2h2.2c0.5,0,0.8,0,1.1-0.1c0.3-0.1,0.5-0.2,0.6-0.5c0.1-0.2,0.2-0.4,0.2-0.7c0-0.4-0.1-0.7-0.4-0.9
			c-0.3-0.2-0.7-0.3-1.2-0.3h-2.4V322.2z M429.2,326.4v-7.6h1v6.7h3.8v0.9H429.2z"/>
		<path d="M400.1,339.4v-5.5h0.8v0.8c0.4-0.6,1-0.9,1.8-0.9c0.3,0,0.6,0.1,0.9,0.2c0.3,0.1,0.5,0.3,0.6,0.5c0.1,0.2,0.2,0.4,0.3,0.7
			c0,0.2,0,0.5,0,0.9v3.4h-0.9v-3.4c0-0.4,0-0.7-0.1-0.9c-0.1-0.2-0.2-0.3-0.4-0.5c-0.2-0.1-0.4-0.2-0.6-0.2c-0.4,0-0.7,0.1-1,0.4
			c-0.3,0.3-0.4,0.7-0.4,1.4v3H400.1z M409.6,338.8c-0.4,0.3-0.7,0.5-1,0.6c-0.3,0.1-0.7,0.2-1,0.2c-0.6,0-1.1-0.1-1.4-0.4
			c-0.3-0.3-0.5-0.7-0.5-1.1c0-0.3,0.1-0.5,0.2-0.7c0.1-0.2,0.3-0.4,0.5-0.5c0.2-0.1,0.4-0.2,0.7-0.3c0.2,0,0.5-0.1,0.8-0.1
			c0.8-0.1,1.3-0.2,1.7-0.3c0-0.1,0-0.2,0-0.3c0-0.4-0.1-0.7-0.3-0.8c-0.2-0.2-0.6-0.3-1.1-0.3c-0.4,0-0.8,0.1-1,0.2
			c-0.2,0.2-0.4,0.4-0.5,0.8l-0.9-0.1c0.1-0.4,0.2-0.7,0.4-0.9c0.2-0.3,0.5-0.4,0.8-0.6c0.4-0.1,0.8-0.2,1.3-0.2
			c0.5,0,0.9,0.1,1.2,0.2c0.3,0.1,0.5,0.3,0.6,0.4c0.1,0.2,0.2,0.4,0.3,0.6c0,0.2,0,0.4,0,0.9v1.3c0,0.9,0,1.4,0.1,1.7
			c0,0.2,0.1,0.4,0.2,0.7h-1C409.7,339.2,409.6,339,409.6,338.8z M409.5,336.7c-0.3,0.1-0.9,0.3-1.5,0.3c-0.4,0.1-0.7,0.1-0.8,0.2
			c-0.2,0.1-0.3,0.2-0.4,0.3c-0.1,0.1-0.1,0.3-0.1,0.4c0,0.3,0.1,0.5,0.3,0.6c0.2,0.2,0.5,0.3,0.8,0.3c0.4,0,0.7-0.1,1-0.2
			s0.5-0.4,0.6-0.7c0.1-0.2,0.2-0.5,0.2-0.9V336.7z M413.5,339.4l-2.1-5.5h1l1.2,3.3c0.1,0.4,0.2,0.7,0.4,1.1c0.1-0.3,0.2-0.6,0.3-1
			l1.2-3.4h1l-2.1,5.5H413.5z M417.3,332.9v-1.1h0.9v1.1H417.3z M417.3,339.4v-5.5h0.9v5.5H417.3z M419.5,339.9l0.9,0.1
			c0,0.3,0.2,0.5,0.3,0.6c0.2,0.2,0.5,0.3,0.9,0.3c0.4,0,0.8-0.1,1-0.3c0.2-0.2,0.4-0.4,0.5-0.7c0.1-0.2,0.1-0.6,0.1-1.2
			c-0.4,0.5-0.9,0.7-1.5,0.7c-0.8,0-1.3-0.3-1.8-0.8c-0.4-0.6-0.6-1.2-0.6-2c0-0.5,0.1-1,0.3-1.5c0.2-0.4,0.5-0.8,0.8-1
			c0.4-0.3,0.8-0.4,1.3-0.4c0.7,0,1.2,0.3,1.6,0.8v-0.7h0.9v4.8c0,0.9-0.1,1.5-0.3,1.8c-0.2,0.4-0.5,0.7-0.8,0.9
			c-0.4,0.2-0.8,0.3-1.4,0.3c-0.7,0-1.2-0.2-1.6-0.5C419.6,340.9,419.4,340.5,419.5,339.9z M420.2,336.6c0,0.7,0.1,1.2,0.4,1.6
			c0.3,0.3,0.7,0.5,1.1,0.5c0.4,0,0.8-0.2,1.1-0.5c0.3-0.3,0.4-0.9,0.4-1.6c0-0.7-0.2-1.2-0.5-1.5s-0.7-0.5-1.1-0.5
			c-0.4,0-0.8,0.2-1,0.5C420.4,335.4,420.2,335.9,420.2,336.6z M429.2,338.8c-0.4,0.3-0.7,0.5-1,0.6c-0.3,0.1-0.7,0.2-1,0.2
			c-0.6,0-1.1-0.1-1.4-0.4c-0.3-0.3-0.5-0.7-0.5-1.1c0-0.3,0.1-0.5,0.2-0.7c0.1-0.2,0.3-0.4,0.5-0.5c0.2-0.1,0.4-0.2,0.7-0.3
			c0.2,0,0.5-0.1,0.8-0.1c0.8-0.1,1.3-0.2,1.7-0.3c0-0.1,0-0.2,0-0.3c0-0.4-0.1-0.7-0.3-0.8c-0.2-0.2-0.6-0.3-1.1-0.3
			c-0.4,0-0.8,0.1-1,0.2c-0.2,0.2-0.4,0.4-0.5,0.8l-0.9-0.1c0.1-0.4,0.2-0.7,0.4-0.9c0.2-0.3,0.5-0.4,0.8-0.6
			c0.4-0.1,0.8-0.2,1.3-0.2c0.5,0,0.9,0.1,1.2,0.2c0.3,0.1,0.5,0.3,0.6,0.4c0.1,0.2,0.2,0.4,0.3,0.6c0,0.2,0,0.4,0,0.9v1.3
			c0,0.9,0,1.4,0.1,1.7c0,0.2,0.1,0.4,0.2,0.7h-1C429.2,339.2,429.2,339,429.2,338.8z M429.1,336.7c-0.3,0.1-0.9,0.3-1.5,0.3
			c-0.4,0.1-0.7,0.1-0.8,0.2c-0.2,0.1-0.3,0.2-0.4,0.3c-0.1,0.1-0.1,0.3-0.1,0.4c0,0.3,0.1,0.5,0.3,0.6c0.2,0.2,0.5,0.3,0.8,0.3
			c0.4,0,0.7-0.1,1-0.2s0.5-0.4,0.6-0.7c0.1-0.2,0.2-0.5,0.2-0.9V336.7z M433.5,338.6l0.1,0.8c-0.3,0.1-0.5,0.1-0.7,0.1
			c-0.3,0-0.6-0.1-0.8-0.2c-0.2-0.1-0.3-0.3-0.4-0.4c-0.1-0.2-0.1-0.5-0.1-1.1v-3.2H431v-0.7h0.7v-1.4l0.9-0.6v1.9h0.9v0.7h-0.9v3.2
			c0,0.3,0,0.4,0,0.5c0,0.1,0.1,0.1,0.2,0.2c0.1,0,0.2,0.1,0.3,0.1C433.2,338.6,433.4,338.6,433.5,338.6z M434.4,332.9v-1.1h0.9v1.1
			H434.4z M434.4,339.4v-5.5h0.9v5.5H434.4z M436.5,336.7c0-1,0.3-1.8,0.8-2.3c0.5-0.4,1.1-0.6,1.7-0.6c0.8,0,1.4,0.3,1.9,0.8
			c0.5,0.5,0.7,1.2,0.7,2.1c0,0.7-0.1,1.3-0.3,1.7c-0.2,0.4-0.5,0.7-0.9,1c-0.4,0.2-0.9,0.3-1.3,0.3c-0.8,0-1.4-0.2-1.9-0.7
			C436.7,338.3,436.5,337.6,436.5,336.7z M437.4,336.7c0,0.7,0.2,1.2,0.5,1.6c0.3,0.4,0.7,0.5,1.2,0.5c0.5,0,0.9-0.2,1.2-0.5
			c0.3-0.4,0.5-0.9,0.5-1.6c0-0.7-0.2-1.2-0.5-1.5c-0.3-0.4-0.7-0.5-1.2-0.5c-0.5,0-0.8,0.2-1.2,0.5
			C437.6,335.4,437.4,336,437.4,336.7z M442.7,339.4v-5.5h0.8v0.8c0.4-0.6,1-0.9,1.8-0.9c0.3,0,0.6,0.1,0.9,0.2
			c0.3,0.1,0.5,0.3,0.6,0.5c0.1,0.2,0.2,0.4,0.3,0.7c0,0.2,0,0.5,0,0.9v3.4h-0.9v-3.4c0-0.4,0-0.7-0.1-0.9c-0.1-0.2-0.2-0.3-0.4-0.5
			c-0.2-0.1-0.4-0.2-0.6-0.2c-0.4,0-0.7,0.1-1,0.4c-0.3,0.3-0.4,0.7-0.4,1.4v3H442.7z"/>
		<path class="st2" d="M329,159.6c0,27.8,53,41.6,105.9,55.5s105.9,27.7,105.9,55.5"/>
		<path class="st4" d="M329,159.6c0,27.8,53,41.6,105.9,55.5c26.5,6.9,53,13.9,72.8,22.5c9.9,4.3,18.2,9.1,24,14.5
			c2.9,2.7,5.2,5.6,6.7,8.6c0.8,1.5,1.4,3.1,1.8,4.7c0.1,0.4,0.2,0.8,0.3,1.2c0,0.1,0,0.2,0.1,0.3l0,0.1"/>
		<path class="st5" d="M540.6,267.2l-1.2-1l1.4,3l0.9-3.2L540.6,267.2z"/>
		<path class="st2" d="M429.3,186.7H509v22.1h-79.7V186.7z"/>
		<path d="M439.8,199.8l0.9-0.1c0.1,0.4,0.2,0.7,0.4,0.9c0.2,0.2,0.6,0.3,1,0.3s0.7-0.1,1-0.3c0.2-0.2,0.3-0.4,0.3-0.6
			c0-0.2-0.1-0.4-0.3-0.5c-0.1-0.1-0.4-0.2-1-0.3c-0.7-0.2-1.2-0.3-1.4-0.5c-0.3-0.1-0.5-0.3-0.6-0.5c-0.1-0.2-0.2-0.5-0.2-0.8
			c0-0.2,0.1-0.5,0.2-0.7c0.1-0.2,0.3-0.4,0.5-0.5c0.1-0.1,0.3-0.2,0.6-0.3c0.3-0.1,0.5-0.1,0.8-0.1c0.4,0,0.8,0.1,1.1,0.2
			c0.3,0.1,0.6,0.3,0.7,0.5c0.2,0.2,0.3,0.5,0.3,0.9l-0.9,0.1c0-0.3-0.2-0.5-0.4-0.7c-0.2-0.2-0.5-0.2-0.8-0.2
			c-0.4,0-0.8,0.1-0.9,0.2c-0.2,0.1-0.3,0.3-0.3,0.5c0,0.1,0,0.2,0.1,0.3c0.1,0.1,0.2,0.2,0.4,0.3c0.1,0,0.4,0.1,0.8,0.3
			c0.7,0.2,1.1,0.3,1.4,0.4c0.3,0.1,0.5,0.3,0.6,0.5c0.2,0.2,0.2,0.5,0.2,0.8c0,0.3-0.1,0.6-0.3,0.9c-0.2,0.3-0.4,0.5-0.8,0.6
			c-0.3,0.1-0.7,0.2-1.2,0.2c-0.7,0-1.3-0.1-1.6-0.4C440.2,200.9,440,200.4,439.8,199.8z M447.6,200.7l0.1,0.8
			c-0.3,0.1-0.5,0.1-0.7,0.1c-0.3,0-0.6-0.1-0.8-0.2c-0.2-0.1-0.3-0.3-0.4-0.4c-0.1-0.2-0.1-0.5-0.1-1.1v-3.2H445V196h0.7v-1.4
			l0.9-0.6v1.9h0.9v0.7h-0.9v3.2c0,0.3,0,0.4,0,0.5c0,0.1,0.1,0.1,0.2,0.2c0.1,0,0.2,0.1,0.3,0.1
			C447.3,200.7,447.4,200.7,447.6,200.7z M452.1,200.8c-0.4,0.3-0.7,0.5-1,0.6c-0.3,0.1-0.7,0.2-1,0.2c-0.6,0-1.1-0.1-1.4-0.4
			c-0.3-0.3-0.5-0.7-0.5-1.1c0-0.3,0.1-0.5,0.2-0.7c0.1-0.2,0.3-0.4,0.5-0.5c0.2-0.1,0.4-0.2,0.7-0.3c0.2,0,0.5-0.1,0.8-0.1
			c0.8-0.1,1.3-0.2,1.7-0.3c0-0.1,0-0.2,0-0.3c0-0.4-0.1-0.7-0.3-0.8c-0.2-0.2-0.6-0.3-1.1-0.3c-0.4,0-0.8,0.1-1,0.2
			c-0.2,0.2-0.4,0.4-0.5,0.8l-0.9-0.1c0.1-0.4,0.2-0.7,0.4-0.9c0.2-0.3,0.5-0.4,0.8-0.6c0.4-0.1,0.8-0.2,1.3-0.2
			c0.5,0,0.9,0.1,1.2,0.2c0.3,0.1,0.5,0.3,0.6,0.4c0.1,0.2,0.2,0.4,0.3,0.6c0,0.2,0,0.4,0,0.9v1.3c0,0.9,0,1.4,0.1,1.7
			c0,0.2,0.1,0.4,0.2,0.7h-1C452.2,201.3,452.1,201.1,452.1,200.8z M452,198.7c-0.3,0.1-0.9,0.3-1.5,0.3c-0.4,0.1-0.7,0.1-0.8,0.2
			c-0.2,0.1-0.3,0.2-0.4,0.3c-0.1,0.1-0.1,0.3-0.1,0.4c0,0.3,0.1,0.5,0.3,0.6c0.2,0.2,0.5,0.3,0.8,0.3c0.4,0,0.7-0.1,1-0.2
			s0.5-0.4,0.6-0.7c0.1-0.2,0.2-0.5,0.2-0.9V198.7z M454.3,201.9l0.9,0.1c0,0.3,0.2,0.5,0.3,0.6c0.2,0.2,0.5,0.3,0.9,0.3
			c0.4,0,0.8-0.1,1-0.3c0.2-0.2,0.4-0.4,0.5-0.7c0.1-0.2,0.1-0.6,0.1-1.2c-0.4,0.5-0.9,0.7-1.5,0.7c-0.8,0-1.3-0.3-1.8-0.8
			c-0.4-0.6-0.6-1.2-0.6-2c0-0.5,0.1-1,0.3-1.5c0.2-0.4,0.5-0.8,0.8-1c0.4-0.3,0.8-0.4,1.3-0.4c0.7,0,1.2,0.3,1.6,0.8V196h0.9v4.8
			c0,0.9-0.1,1.5-0.3,1.8c-0.2,0.4-0.5,0.7-0.8,0.9c-0.4,0.2-0.8,0.3-1.4,0.3c-0.7,0-1.2-0.2-1.6-0.5
			C454.5,203,454.3,202.6,454.3,201.9z M455,198.6c0,0.7,0.1,1.2,0.4,1.6c0.3,0.3,0.7,0.5,1.1,0.5c0.4,0,0.8-0.2,1.1-0.5
			c0.3-0.3,0.4-0.9,0.4-1.6c0-0.7-0.2-1.2-0.5-1.5c-0.3-0.3-0.7-0.5-1.1-0.5c-0.4,0-0.8,0.2-1,0.5C455.2,197.5,455,198,455,198.6z
			 M464.1,199.7l1,0.1c-0.2,0.6-0.4,1-0.9,1.3c-0.4,0.3-0.9,0.5-1.6,0.5c-0.8,0-1.4-0.3-1.9-0.8c-0.5-0.5-0.7-1.2-0.7-2.1
			c0-0.9,0.2-1.6,0.7-2.2c0.5-0.5,1.1-0.8,1.9-0.8c0.7,0,1.3,0.3,1.8,0.8c0.5,0.5,0.7,1.2,0.7,2.1c0,0.1,0,0.1,0,0.2H461
			c0,0.6,0.2,1.1,0.5,1.4c0.3,0.3,0.7,0.5,1.2,0.5c0.3,0,0.6-0.1,0.9-0.3C463.8,200.4,464,200.1,464.1,199.7z M461.1,198.2h3.1
			c0-0.5-0.2-0.8-0.4-1c-0.3-0.4-0.7-0.5-1.2-0.5c-0.4,0-0.8,0.1-1.1,0.4C461.3,197.3,461.1,197.7,461.1,198.2z M473.9,200.6v0.9h-5
			c0-0.2,0-0.4,0.1-0.7c0.1-0.3,0.3-0.7,0.6-1c0.3-0.3,0.7-0.7,1.2-1.1c0.8-0.7,1.4-1.2,1.7-1.6c0.3-0.4,0.4-0.8,0.4-1.1
			c0-0.4-0.1-0.7-0.4-0.9c-0.3-0.3-0.6-0.4-1-0.4c-0.4,0-0.8,0.1-1.1,0.4c-0.3,0.3-0.4,0.6-0.4,1.1l-1-0.1c0.1-0.7,0.3-1.3,0.7-1.6
			c0.4-0.4,1-0.6,1.7-0.6c0.7,0,1.3,0.2,1.8,0.6s0.6,0.9,0.6,1.5c0,0.3-0.1,0.6-0.2,0.9c-0.1,0.3-0.3,0.6-0.6,0.9
			c-0.3,0.3-0.8,0.8-1.5,1.3c-0.6,0.5-0.9,0.8-1.1,1c-0.2,0.2-0.3,0.3-0.4,0.5H473.9z M477.5,201.5l3-4l-2.6-3.7h1.2l1.4,2
			c0.3,0.4,0.5,0.7,0.6,0.9c0.2-0.3,0.4-0.6,0.6-0.9l1.5-2h1.1l-2.7,3.6l2.9,4h-1.3l-1.9-2.7c-0.1-0.2-0.2-0.3-0.3-0.5
			c-0.2,0.3-0.3,0.5-0.4,0.6l-1.9,2.7H477.5z M485,199l1-0.1c0,0.4,0.1,0.7,0.3,0.9c0.2,0.2,0.4,0.4,0.8,0.6
			c0.3,0.1,0.7,0.2,1.2,0.2c0.4,0,0.7-0.1,1-0.2c0.3-0.1,0.5-0.3,0.7-0.5c0.1-0.2,0.2-0.4,0.2-0.7c0-0.2-0.1-0.4-0.2-0.6
			c-0.1-0.2-0.4-0.3-0.7-0.4c-0.2-0.1-0.7-0.2-1.4-0.4c-0.7-0.2-1.2-0.3-1.5-0.5c-0.4-0.2-0.6-0.4-0.8-0.7c-0.2-0.3-0.3-0.6-0.3-1
			c0-0.4,0.1-0.7,0.3-1.1c0.2-0.3,0.5-0.6,1-0.8c0.4-0.2,0.9-0.3,1.4-0.3c0.6,0,1.1,0.1,1.5,0.3c0.4,0.2,0.8,0.4,1,0.8
			c0.2,0.4,0.4,0.8,0.4,1.2l-1,0.1c-0.1-0.5-0.2-0.8-0.5-1.1s-0.7-0.4-1.3-0.4c-0.6,0-1.1,0.1-1.3,0.3c-0.3,0.2-0.4,0.5-0.4,0.8
			c0,0.3,0.1,0.5,0.3,0.7c0.2,0.2,0.7,0.4,1.5,0.5s1.4,0.3,1.7,0.5c0.4,0.2,0.8,0.5,1,0.8s0.3,0.7,0.3,1.1s-0.1,0.8-0.3,1.2
			c-0.2,0.4-0.6,0.6-1,0.8c-0.4,0.2-0.9,0.3-1.5,0.3c-0.7,0-1.3-0.1-1.8-0.3c-0.5-0.2-0.8-0.5-1.1-0.9C485.2,200,485,199.6,485,199z
			 M492.1,199l1-0.1c0,0.4,0.1,0.7,0.3,0.9c0.2,0.2,0.4,0.4,0.8,0.6c0.3,0.1,0.7,0.2,1.2,0.2c0.4,0,0.7-0.1,1-0.2
			c0.3-0.1,0.5-0.3,0.7-0.5c0.1-0.2,0.2-0.4,0.2-0.7c0-0.2-0.1-0.4-0.2-0.6c-0.1-0.2-0.4-0.3-0.7-0.4c-0.2-0.1-0.7-0.2-1.4-0.4
			c-0.7-0.2-1.2-0.3-1.5-0.5c-0.4-0.2-0.6-0.4-0.8-0.7c-0.2-0.3-0.3-0.6-0.3-1c0-0.4,0.1-0.7,0.3-1.1c0.2-0.3,0.5-0.6,1-0.8
			c0.4-0.2,0.9-0.3,1.4-0.3c0.6,0,1.1,0.1,1.5,0.3c0.4,0.2,0.8,0.4,1,0.8c0.2,0.4,0.4,0.8,0.4,1.2l-1,0.1c-0.1-0.5-0.2-0.8-0.5-1.1
			s-0.7-0.4-1.3-0.4c-0.6,0-1.1,0.1-1.3,0.3c-0.3,0.2-0.4,0.5-0.4,0.8c0,0.3,0.1,0.5,0.3,0.7c0.2,0.2,0.7,0.4,1.5,0.5
			s1.4,0.3,1.7,0.5c0.4,0.2,0.8,0.5,1,0.8s0.3,0.7,0.3,1.1s-0.1,0.8-0.3,1.2c-0.2,0.4-0.6,0.6-1,0.8c-0.4,0.2-0.9,0.3-1.5,0.3
			c-0.7,0-1.3-0.1-1.8-0.3c-0.5-0.2-0.8-0.5-1.1-0.9C492.3,200,492.1,199.6,492.1,199z"/>
		<path class="st2" d="M615.3,292.4c24.6,0,48.4-52.7,49.1-105.5S642.7,81.4,621,81.4"/>
		<path class="st4" d="M615.3,292.4c24.6,0,48.4-52.7,49.1-105.5c0.4-26.4-5.1-52.7-13.3-72.5c-4.1-9.9-8.9-18.1-14.1-23.9
			c-2.6-2.9-5.2-5.2-7.9-6.7c-1.3-0.8-2.7-1.4-4.1-1.8c-0.2,0-0.3-0.1-0.5-0.1l-0.2,0"/>
		<path class="st5" d="M624.4,81.8l1.3-1l-3.2,0.7l2.9,1.5L624.4,81.8z"/>
		<path class="st2" d="M677.7,142.5h82.5v73.7h-82.5V142.5z"/>
		<path class="st3" d="M704.8,155.3l1,0.1c-0.2,0.6-0.4,1-0.9,1.3c-0.4,0.3-0.9,0.5-1.6,0.5c-0.8,0-1.4-0.3-1.9-0.8
			c-0.5-0.5-0.7-1.2-0.7-2.1c0-0.9,0.2-1.6,0.7-2.2c0.5-0.5,1.1-0.8,1.9-0.8c0.7,0,1.3,0.3,1.8,0.8c0.5,0.5,0.7,1.2,0.7,2.1
			c0,0.1,0,0.1,0,0.2h-4.1c0,0.6,0.2,1.1,0.5,1.4s0.7,0.5,1.2,0.5c0.3,0,0.6-0.1,0.9-0.3C704.5,156,704.7,155.7,704.8,155.3z
			 M701.7,153.8h3.1c0-0.5-0.2-0.8-0.4-1c-0.3-0.4-0.7-0.5-1.2-0.5c-0.4,0-0.8,0.1-1.1,0.4C701.9,153,701.8,153.3,701.7,153.8z
			 M706.3,157.1l2-2.9l-1.9-2.7h1.2l0.8,1.3c0.2,0.3,0.3,0.5,0.4,0.6c0.1-0.2,0.3-0.4,0.4-0.6l0.9-1.3h1.1l-1.9,2.6l2.1,2.9h-1.2
			l-1.1-1.7l-0.3-0.5l-1.5,2.2H706.3z M716.1,155.3l1,0.1c-0.2,0.6-0.4,1-0.9,1.3c-0.4,0.3-0.9,0.5-1.6,0.5c-0.8,0-1.4-0.3-1.9-0.8
			c-0.5-0.5-0.7-1.2-0.7-2.1c0-0.9,0.2-1.6,0.7-2.2c0.5-0.5,1.1-0.8,1.9-0.8c0.7,0,1.3,0.3,1.8,0.8c0.5,0.5,0.7,1.2,0.7,2.1
			c0,0.1,0,0.1,0,0.2H713c0,0.6,0.2,1.1,0.5,1.4s0.7,0.5,1.2,0.5c0.3,0,0.6-0.1,0.9-0.3C715.7,156,715.9,155.7,716.1,155.3z
			 M713,153.8h3.1c0-0.5-0.2-0.8-0.4-1c-0.3-0.4-0.7-0.5-1.2-0.5c-0.4,0-0.8,0.1-1.1,0.4C713.2,153,713,153.3,713,153.8z
			 M721.8,155.1l0.9,0.1c-0.1,0.6-0.4,1.1-0.8,1.5c-0.4,0.4-0.9,0.5-1.5,0.5c-0.8,0-1.4-0.2-1.8-0.7c-0.5-0.5-0.7-1.2-0.7-2.1
			c0-0.6,0.1-1.1,0.3-1.6c0.2-0.4,0.5-0.8,0.9-1c0.4-0.2,0.8-0.3,1.3-0.3c0.6,0,1.1,0.2,1.5,0.5c0.4,0.3,0.6,0.7,0.7,1.3l-0.9,0.1
			c-0.1-0.4-0.3-0.6-0.5-0.8s-0.5-0.3-0.8-0.3c-0.5,0-0.9,0.2-1.2,0.5c-0.3,0.3-0.4,0.9-0.4,1.6c0,0.7,0.1,1.3,0.4,1.6
			c0.3,0.3,0.7,0.5,1.1,0.5c0.4,0,0.7-0.1,0.9-0.3C721.6,155.9,721.8,155.5,721.8,155.1z M727.2,157.1v-0.8c-0.4,0.6-1,0.9-1.8,0.9
			c-0.3,0-0.6-0.1-0.9-0.2s-0.5-0.3-0.6-0.5c-0.1-0.2-0.2-0.4-0.3-0.7c0-0.2,0-0.5,0-0.9v-3.4h0.9v3.1c0,0.5,0,0.8,0,1
			c0.1,0.2,0.2,0.4,0.4,0.6c0.2,0.1,0.4,0.2,0.7,0.2c0.3,0,0.5-0.1,0.8-0.2c0.3-0.1,0.4-0.3,0.5-0.6c0.1-0.3,0.2-0.6,0.2-1.1v-3h0.9
			v5.5H727.2z M731.5,156.3l0.1,0.8c-0.3,0.1-0.5,0.1-0.7,0.1c-0.3,0-0.6-0.1-0.8-0.2c-0.2-0.1-0.3-0.3-0.4-0.4
			c-0.1-0.2-0.1-0.5-0.1-1.1v-3.2H729v-0.7h0.7v-1.4l0.9-0.6v1.9h0.9v0.7h-0.9v3.2c0,0.3,0,0.4,0,0.5c0,0.1,0.1,0.1,0.2,0.2
			c0.1,0,0.2,0.1,0.3,0.1C731.2,156.3,731.4,156.3,731.5,156.3z M736.2,155.3l1,0.1c-0.2,0.6-0.4,1-0.9,1.3
			c-0.4,0.3-0.9,0.5-1.6,0.5c-0.8,0-1.4-0.3-1.9-0.8c-0.5-0.5-0.7-1.2-0.7-2.1c0-0.9,0.2-1.6,0.7-2.2c0.5-0.5,1.1-0.8,1.9-0.8
			c0.7,0,1.3,0.3,1.8,0.8c0.5,0.5,0.7,1.2,0.7,2.1c0,0.1,0,0.1,0,0.2h-4.1c0,0.6,0.2,1.1,0.5,1.4c0.3,0.3,0.7,0.5,1.2,0.5
			c0.3,0,0.6-0.1,0.9-0.3C735.9,156,736.1,155.7,736.2,155.3z M733.1,153.8h3.1c0-0.5-0.2-0.8-0.4-1c-0.3-0.4-0.7-0.5-1.2-0.5
			c-0.4,0-0.8,0.1-1.1,0.4C733.3,153,733.2,153.3,733.1,153.8z"/>
		<path class="st3" d="M696.6,163.6v-1.1h0.9v1.1H696.6z M696.6,170.1v-5.5h0.9v5.5H696.6z M699,170.1v-5.5h0.8v0.8
			c0.2-0.3,0.4-0.5,0.7-0.7c0.3-0.2,0.6-0.3,1-0.3c0.4,0,0.7,0.1,1,0.3c0.3,0.2,0.4,0.4,0.6,0.7c0.4-0.6,1-1,1.7-1
			c0.6,0,1,0.2,1.3,0.5c0.3,0.3,0.4,0.8,0.4,1.4v3.8h-0.9v-3.5c0-0.4,0-0.6-0.1-0.8c-0.1-0.2-0.2-0.3-0.3-0.4
			c-0.2-0.1-0.3-0.2-0.5-0.2c-0.4,0-0.7,0.1-1,0.4c-0.3,0.3-0.4,0.7-0.4,1.3v3.2h-0.9v-3.6c0-0.4-0.1-0.7-0.2-0.9
			c-0.1-0.2-0.4-0.3-0.8-0.3c-0.3,0-0.5,0.1-0.7,0.2c-0.2,0.1-0.4,0.3-0.5,0.6c-0.1,0.3-0.1,0.6-0.1,1.2v2.9H699z M707.8,172.2v-7.7
			h0.9v0.7c0.2-0.3,0.4-0.5,0.7-0.6c0.3-0.1,0.6-0.2,0.9-0.2c0.5,0,0.9,0.1,1.3,0.4c0.4,0.2,0.6,0.6,0.8,1c0.2,0.4,0.3,0.9,0.3,1.5
			c0,0.6-0.1,1.1-0.3,1.5c-0.2,0.4-0.5,0.8-0.9,1s-0.8,0.4-1.2,0.4c-0.3,0-0.6-0.1-0.8-0.2c-0.3-0.1-0.5-0.3-0.6-0.5v2.7H707.8z
			 M708.7,167.4c0,0.7,0.1,1.2,0.4,1.6s0.6,0.5,1,0.5c0.4,0,0.8-0.2,1.1-0.5c0.3-0.4,0.5-0.9,0.5-1.6c0-0.7-0.1-1.2-0.4-1.6
			s-0.6-0.5-1-0.5c-0.4,0-0.8,0.2-1.1,0.6C708.8,166.1,708.7,166.7,708.7,167.4z M713.8,170.1v-7.6h0.9v7.6H713.8z M719.8,169.4
			c-0.4,0.3-0.7,0.5-1,0.6c-0.3,0.1-0.7,0.2-1,0.2c-0.6,0-1.1-0.1-1.4-0.4c-0.3-0.3-0.5-0.7-0.5-1.1c0-0.3,0.1-0.5,0.2-0.7
			c0.1-0.2,0.3-0.4,0.5-0.5c0.2-0.1,0.4-0.2,0.7-0.3c0.2,0,0.5-0.1,0.8-0.1c0.8-0.1,1.3-0.2,1.7-0.3c0-0.1,0-0.2,0-0.3
			c0-0.4-0.1-0.7-0.3-0.8c-0.2-0.2-0.6-0.3-1.1-0.3c-0.4,0-0.8,0.1-1,0.2c-0.2,0.2-0.4,0.4-0.5,0.8l-0.9-0.1
			c0.1-0.4,0.2-0.7,0.4-0.9c0.2-0.3,0.5-0.4,0.8-0.6c0.4-0.1,0.8-0.2,1.3-0.2c0.5,0,0.9,0.1,1.2,0.2s0.5,0.3,0.6,0.4
			c0.1,0.2,0.2,0.4,0.3,0.6c0,0.2,0,0.4,0,0.9v1.3c0,0.9,0,1.4,0.1,1.7c0,0.2,0.1,0.4,0.2,0.7h-1
			C719.8,169.9,719.8,169.7,719.8,169.4z M719.7,167.3c-0.3,0.1-0.9,0.3-1.5,0.3c-0.4,0.1-0.7,0.1-0.8,0.2c-0.2,0.1-0.3,0.2-0.4,0.3
			c-0.1,0.1-0.1,0.3-0.1,0.4c0,0.3,0.1,0.5,0.3,0.6s0.5,0.3,0.8,0.3c0.4,0,0.7-0.1,1-0.2s0.5-0.4,0.6-0.7c0.1-0.2,0.2-0.5,0.2-0.9
			V167.3z M722.1,170.1v-5.5h0.8v0.8c0.4-0.6,1-0.9,1.8-0.9c0.3,0,0.6,0.1,0.9,0.2c0.3,0.1,0.5,0.3,0.6,0.5c0.1,0.2,0.2,0.4,0.3,0.7
			c0,0.2,0,0.5,0,0.9v3.4h-0.9v-3.4c0-0.4,0-0.7-0.1-0.9s-0.2-0.3-0.4-0.5c-0.2-0.1-0.4-0.2-0.6-0.2c-0.4,0-0.7,0.1-1,0.4
			c-0.3,0.3-0.4,0.7-0.4,1.4v3H722.1z M730,169.3l0.1,0.8c-0.3,0.1-0.5,0.1-0.7,0.1c-0.3,0-0.6-0.1-0.8-0.2
			c-0.2-0.1-0.3-0.3-0.4-0.4c-0.1-0.2-0.1-0.5-0.1-1.1v-3.2h-0.7v-0.7h0.7v-1.4l0.9-0.6v1.9h0.9v0.7h-0.9v3.2c0,0.3,0,0.4,0,0.5
			c0,0.1,0.1,0.1,0.2,0.2c0.1,0,0.2,0.1,0.3,0.1C729.7,169.3,729.9,169.3,730,169.3z M734.7,168.3l1,0.1c-0.2,0.6-0.4,1-0.9,1.3
			c-0.4,0.3-0.9,0.5-1.6,0.5c-0.8,0-1.4-0.3-1.9-0.8c-0.5-0.5-0.7-1.2-0.7-2.1c0-0.9,0.2-1.6,0.7-2.2c0.5-0.5,1.1-0.8,1.9-0.8
			c0.7,0,1.3,0.3,1.8,0.8c0.5,0.5,0.7,1.2,0.7,2.1c0,0.1,0,0.1,0,0.2h-4.1c0,0.6,0.2,1.1,0.5,1.4s0.7,0.5,1.2,0.5
			c0.3,0,0.6-0.1,0.9-0.3C734.4,169,734.6,168.7,734.7,168.3z M731.7,166.8h3.1c0-0.5-0.2-0.8-0.4-1c-0.3-0.4-0.7-0.5-1.2-0.5
			c-0.4,0-0.8,0.1-1.1,0.4C731.9,166,731.7,166.3,731.7,166.8z M740.5,170.1v-0.7c-0.3,0.6-0.9,0.8-1.5,0.8c-0.4,0-0.8-0.1-1.2-0.4
			c-0.4-0.3-0.7-0.6-0.9-1c-0.2-0.4-0.3-0.9-0.3-1.5c0-0.6,0.1-1.1,0.3-1.5c0.2-0.5,0.5-0.8,0.8-1c0.4-0.2,0.8-0.4,1.2-0.4
			c0.3,0,0.6,0.1,0.9,0.2c0.3,0.1,0.5,0.3,0.6,0.5v-2.7h0.9v7.6H740.5z M737.5,167.4c0,0.7,0.1,1.2,0.4,1.6c0.3,0.4,0.7,0.5,1.1,0.5
			s0.8-0.2,1-0.5c0.3-0.3,0.4-0.9,0.4-1.5c0-0.8-0.1-1.3-0.4-1.7c-0.3-0.4-0.7-0.5-1.1-0.5c-0.4,0-0.8,0.2-1,0.5
			C737.6,166.1,737.5,166.6,737.5,167.4z"/>
		<path class="st3" d="M692.1,183.1V182h1.1v1.1H692.1z M698.4,182.4c-0.4,0.3-0.7,0.5-1,0.6c-0.3,0.1-0.7,0.2-1,0.2
			c-0.6,0-1.1-0.1-1.4-0.4c-0.3-0.3-0.5-0.7-0.5-1.1c0-0.3,0.1-0.5,0.2-0.7c0.1-0.2,0.3-0.4,0.5-0.5c0.2-0.1,0.4-0.2,0.7-0.3
			c0.2,0,0.5-0.1,0.8-0.1c0.8-0.1,1.3-0.2,1.7-0.3c0-0.1,0-0.2,0-0.3c0-0.4-0.1-0.7-0.3-0.8c-0.2-0.2-0.6-0.3-1.1-0.3
			c-0.4,0-0.8,0.1-1,0.2c-0.2,0.2-0.4,0.4-0.5,0.8l-0.9-0.1c0.1-0.4,0.2-0.7,0.4-0.9c0.2-0.3,0.5-0.4,0.8-0.6
			c0.4-0.1,0.8-0.2,1.3-0.2c0.5,0,0.9,0.1,1.2,0.2c0.3,0.1,0.5,0.3,0.6,0.4c0.1,0.2,0.2,0.4,0.3,0.6c0,0.2,0,0.4,0,0.9v1.3
			c0,0.9,0,1.4,0.1,1.7c0,0.2,0.1,0.4,0.2,0.7h-1C698.5,182.9,698.4,182.7,698.4,182.4z M698.3,180.3c-0.3,0.1-0.9,0.3-1.5,0.3
			c-0.4,0.1-0.7,0.1-0.8,0.2c-0.2,0.1-0.3,0.2-0.4,0.3c-0.1,0.1-0.1,0.3-0.1,0.4c0,0.3,0.1,0.5,0.3,0.6s0.5,0.3,0.8,0.3
			c0.4,0,0.7-0.1,1-0.2s0.5-0.4,0.6-0.7c0.1-0.2,0.2-0.5,0.2-0.9V180.3z M700.7,185.2v-7.7h0.9v0.7c0.2-0.3,0.4-0.5,0.7-0.6
			c0.3-0.1,0.6-0.2,0.9-0.2c0.5,0,0.9,0.1,1.3,0.4c0.4,0.2,0.6,0.6,0.8,1c0.2,0.4,0.3,0.9,0.3,1.5c0,0.6-0.1,1.1-0.3,1.5
			c-0.2,0.4-0.5,0.8-0.9,1c-0.4,0.2-0.8,0.4-1.2,0.4c-0.3,0-0.6-0.1-0.8-0.2c-0.3-0.1-0.5-0.3-0.6-0.5v2.7H700.7z M701.6,180.4
			c0,0.7,0.1,1.2,0.4,1.6c0.3,0.3,0.6,0.5,1,0.5c0.4,0,0.8-0.2,1.1-0.5c0.3-0.4,0.5-0.9,0.5-1.6c0-0.7-0.1-1.2-0.4-1.6
			c-0.3-0.4-0.6-0.5-1-0.5c-0.4,0-0.8,0.2-1.1,0.6C701.7,179.1,701.6,179.7,701.6,180.4z M706.7,185.2v-7.7h0.9v0.7
			c0.2-0.3,0.4-0.5,0.7-0.6c0.3-0.1,0.6-0.2,0.9-0.2c0.5,0,0.9,0.1,1.3,0.4c0.4,0.2,0.6,0.6,0.8,1c0.2,0.4,0.3,0.9,0.3,1.5
			c0,0.6-0.1,1.1-0.3,1.5c-0.2,0.4-0.5,0.8-0.9,1c-0.4,0.2-0.8,0.4-1.2,0.4c-0.3,0-0.6-0.1-0.8-0.2c-0.2-0.1-0.5-0.3-0.6-0.5v2.7
			H706.7z M707.5,180.4c0,0.7,0.1,1.2,0.4,1.6c0.3,0.3,0.6,0.5,1,0.5c0.4,0,0.8-0.2,1.1-0.5c0.3-0.4,0.5-0.9,0.5-1.6
			c0-0.7-0.1-1.2-0.4-1.6c-0.3-0.4-0.6-0.5-1-0.5c-0.4,0-0.7,0.2-1.1,0.6C707.7,179.1,707.5,179.7,707.5,180.4z M716.4,183.1h-0.9
			v-7.6h0.9v2.7c0.4-0.5,0.9-0.8,1.5-0.8c0.3,0,0.7,0.1,1,0.2c0.3,0.1,0.6,0.3,0.8,0.6c0.2,0.2,0.3,0.5,0.5,0.9
			c0.1,0.4,0.2,0.7,0.2,1.1c0,0.9-0.2,1.7-0.7,2.2c-0.5,0.5-1,0.8-1.7,0.8c-0.6,0-1.2-0.3-1.5-0.8V183.1z M716.4,180.3
			c0,0.7,0.1,1.1,0.3,1.4c0.3,0.5,0.7,0.7,1.2,0.7c0.4,0,0.8-0.2,1.1-0.5c0.3-0.4,0.5-0.9,0.5-1.6c0-0.7-0.1-1.3-0.4-1.6
			c-0.3-0.3-0.6-0.5-1-0.5s-0.8,0.2-1.1,0.5C716.6,179.1,716.4,179.6,716.4,180.3z M725.1,183.1v-0.8c-0.4,0.6-1,0.9-1.8,0.9
			c-0.3,0-0.6-0.1-0.9-0.2s-0.5-0.3-0.6-0.5c-0.1-0.2-0.2-0.4-0.3-0.7c0-0.2,0-0.5,0-0.9v-3.4h0.9v3.1c0,0.5,0,0.8,0,1
			c0.1,0.2,0.2,0.4,0.4,0.6c0.2,0.1,0.4,0.2,0.7,0.2c0.3,0,0.5-0.1,0.8-0.2c0.3-0.1,0.4-0.3,0.5-0.6c0.1-0.3,0.2-0.6,0.2-1.1v-3h0.9
			v5.5H725.1z M727.4,183.1v-5.5h0.8v0.8c0.4-0.6,1-0.9,1.8-0.9c0.3,0,0.6,0.1,0.9,0.2c0.3,0.1,0.5,0.3,0.6,0.5
			c0.1,0.2,0.2,0.4,0.3,0.7c0,0.2,0,0.5,0,0.9v3.4H731v-3.4c0-0.4,0-0.7-0.1-0.9c-0.1-0.2-0.2-0.3-0.4-0.5c-0.2-0.1-0.4-0.2-0.6-0.2
			c-0.4,0-0.7,0.1-1,0.4c-0.3,0.3-0.4,0.7-0.4,1.4v3H727.4z M736.9,183.1v-0.7c-0.3,0.6-0.9,0.8-1.5,0.8c-0.4,0-0.8-0.1-1.2-0.4
			c-0.4-0.3-0.7-0.6-0.9-1c-0.2-0.4-0.3-0.9-0.3-1.5c0-0.6,0.1-1.1,0.3-1.5c0.2-0.5,0.5-0.8,0.8-1c0.4-0.2,0.8-0.4,1.2-0.4
			c0.3,0,0.6,0.1,0.9,0.2c0.3,0.1,0.5,0.3,0.6,0.5v-2.7h0.9v7.6H736.9z M734,180.4c0,0.7,0.1,1.2,0.4,1.6c0.3,0.4,0.7,0.5,1.1,0.5
			s0.8-0.2,1-0.5c0.3-0.3,0.4-0.9,0.4-1.5c0-0.8-0.1-1.3-0.4-1.7c-0.3-0.4-0.7-0.5-1.1-0.5c-0.4,0-0.8,0.2-1,0.5
			C734.1,179.1,734,179.6,734,180.4z M739.2,183.1v-7.6h0.9v7.6H739.2z M745.4,181.3l1,0.1c-0.2,0.6-0.4,1-0.9,1.3
			c-0.4,0.3-0.9,0.5-1.6,0.5c-0.8,0-1.4-0.3-1.9-0.8c-0.5-0.5-0.7-1.2-0.7-2.1c0-0.9,0.2-1.6,0.7-2.2c0.5-0.5,1.1-0.8,1.9-0.8
			c0.7,0,1.3,0.3,1.8,0.8c0.5,0.5,0.7,1.2,0.7,2.1c0,0.1,0,0.1,0,0.2h-4.1c0,0.6,0.2,1.1,0.5,1.4s0.7,0.5,1.2,0.5
			c0.3,0,0.6-0.1,0.9-0.3C745.1,182,745.3,181.7,745.4,181.3z M742.3,179.8h3.1c0-0.5-0.2-0.8-0.4-1c-0.3-0.4-0.7-0.5-1.2-0.5
			c-0.4,0-0.8,0.1-1.1,0.4C742.5,179,742.4,179.3,742.3,179.8z"/>
		<path class="st3" d="M693.3,193.3c0-1,0.3-1.8,0.8-2.3c0.5-0.4,1.1-0.6,1.7-0.6c0.8,0,1.4,0.3,1.9,0.8c0.5,0.5,0.7,1.2,0.7,2.1
			c0,0.7-0.1,1.3-0.3,1.7c-0.2,0.4-0.5,0.7-0.9,1c-0.4,0.2-0.9,0.3-1.3,0.3c-0.8,0-1.4-0.2-1.9-0.7
			C693.5,195,693.3,194.3,693.3,193.3z M694.2,193.3c0,0.7,0.2,1.2,0.5,1.6c0.3,0.4,0.7,0.5,1.2,0.5c0.5,0,0.9-0.2,1.2-0.5
			c0.3-0.4,0.5-0.9,0.5-1.6c0-0.7-0.2-1.2-0.5-1.5c-0.3-0.4-0.7-0.5-1.2-0.5c-0.5,0-0.8,0.2-1.2,0.5
			C694.4,192.1,694.2,192.6,694.2,193.3z M703.2,196.1v-0.8c-0.4,0.6-1,0.9-1.8,0.9c-0.3,0-0.6-0.1-0.9-0.2
			c-0.3-0.1-0.5-0.3-0.6-0.5c-0.1-0.2-0.2-0.4-0.3-0.7c0-0.2,0-0.5,0-0.9v-3.4h0.9v3.1c0,0.5,0,0.8,0,1c0.1,0.2,0.2,0.4,0.4,0.6
			c0.2,0.1,0.4,0.2,0.7,0.2c0.3,0,0.5-0.1,0.8-0.2c0.3-0.1,0.4-0.3,0.5-0.6c0.1-0.3,0.2-0.6,0.2-1.1v-3h0.9v5.5H703.2z M707.5,195.3
			l0.1,0.8c-0.3,0.1-0.5,0.1-0.7,0.1c-0.3,0-0.6-0.1-0.8-0.2c-0.2-0.1-0.3-0.3-0.4-0.4c-0.1-0.2-0.1-0.5-0.1-1.1v-3.2H705v-0.7h0.7
			v-1.4l0.9-0.6v1.9h0.9v0.7h-0.9v3.2c0,0.3,0,0.4,0,0.5c0,0.1,0.1,0.1,0.2,0.2c0.1,0,0.2,0.1,0.3,0.1
			C707.2,195.3,707.4,195.3,707.5,195.3z M708.1,194.5l0.9-0.1c0.1,0.4,0.2,0.7,0.4,0.9c0.2,0.2,0.6,0.3,1,0.3c0.4,0,0.7-0.1,1-0.3
			c0.2-0.2,0.3-0.4,0.3-0.6c0-0.2-0.1-0.4-0.3-0.5c-0.1-0.1-0.4-0.2-1-0.3c-0.7-0.2-1.2-0.3-1.4-0.5c-0.3-0.1-0.5-0.3-0.6-0.5
			c-0.1-0.2-0.2-0.5-0.2-0.8c0-0.2,0.1-0.5,0.2-0.7c0.1-0.2,0.3-0.4,0.5-0.5c0.1-0.1,0.3-0.2,0.6-0.3c0.3-0.1,0.5-0.1,0.8-0.1
			c0.4,0,0.8,0.1,1.1,0.2c0.3,0.1,0.6,0.3,0.7,0.5c0.2,0.2,0.3,0.5,0.3,0.9l-0.9,0.1c0-0.3-0.2-0.5-0.4-0.7
			c-0.2-0.2-0.5-0.2-0.8-0.2c-0.4,0-0.8,0.1-0.9,0.2c-0.2,0.1-0.3,0.3-0.3,0.5c0,0.1,0,0.2,0.1,0.3c0.1,0.1,0.2,0.2,0.4,0.3
			c0.1,0,0.4,0.1,0.8,0.3c0.7,0.2,1.1,0.3,1.4,0.4c0.3,0.1,0.5,0.3,0.6,0.5c0.2,0.2,0.2,0.5,0.2,0.8c0,0.3-0.1,0.6-0.3,0.9
			c-0.2,0.3-0.4,0.5-0.8,0.6c-0.3,0.1-0.7,0.2-1.2,0.2c-0.7,0-1.3-0.1-1.6-0.4C708.4,195.5,708.2,195,708.1,194.5z M713.8,189.6
			v-1.1h0.9v1.1H713.8z M713.8,196.1v-5.5h0.9v5.5H713.8z M719.7,196.1v-0.7c-0.3,0.6-0.9,0.8-1.5,0.8c-0.4,0-0.8-0.1-1.2-0.4
			c-0.4-0.3-0.7-0.6-0.9-1c-0.2-0.4-0.3-0.9-0.3-1.5c0-0.6,0.1-1.1,0.3-1.5c0.2-0.5,0.5-0.8,0.8-1c0.4-0.2,0.8-0.4,1.2-0.4
			c0.3,0,0.6,0.1,0.9,0.2c0.3,0.1,0.5,0.3,0.6,0.5v-2.7h0.9v7.6H719.7z M716.8,193.4c0,0.7,0.1,1.2,0.4,1.6c0.3,0.4,0.7,0.5,1.1,0.5
			s0.8-0.2,1-0.5c0.3-0.3,0.4-0.9,0.4-1.5c0-0.8-0.1-1.3-0.4-1.7c-0.3-0.4-0.7-0.5-1.1-0.5c-0.4,0-0.8,0.2-1,0.5
			C716.9,192.1,716.8,192.6,716.8,193.4z M725.9,194.3l1,0.1c-0.2,0.6-0.4,1-0.9,1.3c-0.4,0.3-0.9,0.5-1.6,0.5
			c-0.8,0-1.4-0.3-1.9-0.8c-0.5-0.5-0.7-1.2-0.7-2.1c0-0.9,0.2-1.6,0.7-2.2c0.5-0.5,1.1-0.8,1.9-0.8c0.7,0,1.3,0.3,1.8,0.8
			c0.5,0.5,0.7,1.2,0.7,2.1c0,0.1,0,0.1,0,0.2h-4.1c0,0.6,0.2,1.1,0.5,1.4s0.7,0.5,1.2,0.5c0.3,0,0.6-0.1,0.9-0.3
			C725.5,195,725.7,194.7,725.9,194.3z M722.8,192.8h3.1c0-0.5-0.2-0.8-0.4-1c-0.3-0.4-0.7-0.5-1.2-0.5c-0.4,0-0.8,0.1-1.1,0.4
			C723,192,722.8,192.3,722.8,192.8z M733,195.3l0.1,0.8c-0.3,0.1-0.5,0.1-0.7,0.1c-0.3,0-0.6-0.1-0.8-0.2c-0.2-0.1-0.3-0.3-0.4-0.4
			c-0.1-0.2-0.1-0.5-0.1-1.1v-3.2h-0.7v-0.7h0.7v-1.4l0.9-0.6v1.9h0.9v0.7h-0.9v3.2c0,0.3,0,0.4,0,0.5c0,0.1,0.1,0.1,0.2,0.2
			c0.1,0,0.2,0.1,0.3,0.1C732.7,195.3,732.8,195.3,733,195.3z M733.9,196.1v-7.6h0.9v2.7c0.4-0.5,1-0.8,1.7-0.8
			c0.4,0,0.8,0.1,1.1,0.3c0.3,0.2,0.5,0.4,0.6,0.7c0.1,0.3,0.2,0.7,0.2,1.2v3.5h-0.9v-3.5c0-0.5-0.1-0.8-0.3-1
			c-0.2-0.2-0.5-0.3-0.9-0.3c-0.3,0-0.5,0.1-0.8,0.2c-0.2,0.1-0.4,0.3-0.5,0.6c-0.1,0.2-0.2,0.6-0.2,1v3H733.9z M743.6,194.3l1,0.1
			c-0.2,0.6-0.4,1-0.9,1.3c-0.4,0.3-0.9,0.5-1.6,0.5c-0.8,0-1.4-0.3-1.9-0.8c-0.5-0.5-0.7-1.2-0.7-2.1c0-0.9,0.2-1.6,0.7-2.2
			c0.5-0.5,1.1-0.8,1.9-0.8c0.7,0,1.3,0.3,1.8,0.8c0.5,0.5,0.7,1.2,0.7,2.1c0,0.1,0,0.1,0,0.2h-4.1c0,0.6,0.2,1.1,0.5,1.4
			s0.7,0.5,1.2,0.5c0.3,0,0.6-0.1,0.9-0.3C743.3,195,743.5,194.7,743.6,194.3z M740.6,192.8h3.1c0-0.5-0.2-0.8-0.4-1
			c-0.3-0.4-0.7-0.5-1.2-0.5c-0.4,0-0.8,0.1-1.1,0.4C740.7,192,740.6,192.3,740.6,192.8z"/>
		<path class="st3" d="M699.2,207.5l0.9-0.1c0.1,0.4,0.2,0.7,0.4,0.9c0.2,0.2,0.6,0.3,1,0.3c0.4,0,0.7-0.1,1-0.3
			c0.2-0.2,0.3-0.4,0.3-0.6c0-0.2-0.1-0.4-0.3-0.5c-0.1-0.1-0.4-0.2-1-0.3c-0.7-0.2-1.2-0.3-1.4-0.5c-0.3-0.1-0.5-0.3-0.6-0.5
			c-0.1-0.2-0.2-0.5-0.2-0.8c0-0.2,0.1-0.5,0.2-0.7c0.1-0.2,0.3-0.4,0.5-0.5c0.1-0.1,0.3-0.2,0.6-0.3c0.3-0.1,0.5-0.1,0.8-0.1
			c0.4,0,0.8,0.1,1.1,0.2c0.3,0.1,0.6,0.3,0.7,0.5c0.2,0.2,0.3,0.5,0.3,0.9l-0.9,0.1c0-0.3-0.2-0.5-0.4-0.7
			c-0.2-0.2-0.5-0.2-0.8-0.2c-0.4,0-0.8,0.1-0.9,0.2c-0.2,0.1-0.3,0.3-0.3,0.5c0,0.1,0,0.2,0.1,0.3c0.1,0.1,0.2,0.2,0.4,0.3
			c0.1,0,0.4,0.1,0.8,0.3c0.7,0.2,1.1,0.3,1.4,0.4c0.3,0.1,0.5,0.3,0.6,0.5c0.2,0.2,0.2,0.5,0.2,0.8c0,0.3-0.1,0.6-0.3,0.9
			c-0.2,0.3-0.4,0.5-0.8,0.6c-0.3,0.1-0.7,0.2-1.2,0.2c-0.7,0-1.3-0.1-1.6-0.4C699.5,208.5,699.3,208,699.2,207.5z M708.5,208.4
			c-0.4,0.3-0.7,0.5-1,0.6c-0.3,0.1-0.7,0.2-1,0.2c-0.6,0-1.1-0.1-1.4-0.4c-0.3-0.3-0.5-0.7-0.5-1.1c0-0.3,0.1-0.5,0.2-0.7
			c0.1-0.2,0.3-0.4,0.5-0.5c0.2-0.1,0.4-0.2,0.7-0.3c0.2,0,0.5-0.1,0.8-0.1c0.8-0.1,1.3-0.2,1.7-0.3c0-0.1,0-0.2,0-0.3
			c0-0.4-0.1-0.7-0.3-0.8c-0.2-0.2-0.6-0.3-1.1-0.3c-0.4,0-0.8,0.1-1,0.2c-0.2,0.2-0.4,0.4-0.5,0.8l-0.9-0.1
			c0.1-0.4,0.2-0.7,0.4-0.9c0.2-0.3,0.5-0.4,0.8-0.6c0.4-0.1,0.8-0.2,1.3-0.2c0.5,0,0.9,0.1,1.2,0.2c0.3,0.1,0.5,0.3,0.6,0.4
			c0.1,0.2,0.2,0.4,0.3,0.6c0,0.2,0,0.4,0,0.9v1.3c0,0.9,0,1.4,0.1,1.7c0,0.2,0.1,0.4,0.2,0.7h-1
			C708.6,208.9,708.5,208.7,708.5,208.4z M708.4,206.3c-0.3,0.1-0.9,0.3-1.5,0.3c-0.4,0.1-0.7,0.1-0.8,0.2c-0.2,0.1-0.3,0.2-0.4,0.3
			c-0.1,0.1-0.1,0.3-0.1,0.4c0,0.3,0.1,0.5,0.3,0.6s0.5,0.3,0.8,0.3c0.4,0,0.7-0.1,1-0.2s0.5-0.4,0.6-0.7c0.1-0.2,0.2-0.5,0.2-0.9
			V206.3z M710.8,209.1v-5.5h0.8v0.8c0.4-0.6,1-0.9,1.8-0.9c0.3,0,0.6,0.1,0.9,0.2c0.3,0.1,0.5,0.3,0.6,0.5c0.1,0.2,0.2,0.4,0.3,0.7
			c0,0.2,0,0.5,0,0.9v3.4h-0.9v-3.4c0-0.4,0-0.7-0.1-0.9c-0.1-0.2-0.2-0.3-0.4-0.5c-0.2-0.1-0.4-0.2-0.6-0.2c-0.4,0-0.7,0.1-1,0.4
			c-0.3,0.3-0.4,0.7-0.4,1.4v3H710.8z M720.3,209.1v-0.7c-0.3,0.6-0.9,0.8-1.5,0.8c-0.4,0-0.8-0.1-1.2-0.4c-0.4-0.3-0.7-0.6-0.9-1
			c-0.2-0.4-0.3-0.9-0.3-1.5c0-0.6,0.1-1.1,0.3-1.5c0.2-0.5,0.5-0.8,0.8-1c0.4-0.2,0.8-0.4,1.2-0.4c0.3,0,0.6,0.1,0.9,0.2
			c0.3,0.1,0.5,0.3,0.6,0.5v-2.7h0.9v7.6H720.3z M717.4,206.4c0,0.7,0.1,1.2,0.4,1.6c0.3,0.4,0.7,0.5,1.1,0.5c0.4,0,0.7-0.2,1-0.5
			c0.3-0.3,0.4-0.9,0.4-1.5c0-0.8-0.1-1.3-0.4-1.7c-0.3-0.4-0.7-0.5-1.1-0.5c-0.4,0-0.8,0.2-1,0.5
			C717.5,205.1,717.4,205.6,717.4,206.4z M723.5,209.1h-0.9v-7.6h0.9v2.7c0.4-0.5,0.9-0.8,1.5-0.8c0.3,0,0.7,0.1,1,0.2
			c0.3,0.1,0.6,0.3,0.8,0.6c0.2,0.2,0.3,0.5,0.5,0.9c0.1,0.4,0.2,0.7,0.2,1.1c0,0.9-0.2,1.7-0.7,2.2c-0.5,0.5-1,0.8-1.7,0.8
			c-0.6,0-1.2-0.3-1.5-0.8V209.1z M723.5,206.3c0,0.7,0.1,1.1,0.3,1.4c0.3,0.5,0.7,0.7,1.2,0.7c0.4,0,0.8-0.2,1.1-0.5
			c0.3-0.4,0.5-0.9,0.5-1.6c0-0.7-0.1-1.3-0.4-1.6c-0.3-0.3-0.6-0.5-1-0.5c-0.4,0-0.8,0.2-1.1,0.5
			C723.7,205.1,723.5,205.6,723.5,206.3z M728.3,206.3c0-1,0.3-1.8,0.8-2.3c0.5-0.4,1.1-0.6,1.7-0.6c0.8,0,1.4,0.3,1.9,0.8
			c0.5,0.5,0.7,1.2,0.7,2.1c0,0.7-0.1,1.3-0.3,1.7c-0.2,0.4-0.5,0.7-0.9,1c-0.4,0.2-0.9,0.3-1.3,0.3c-0.8,0-1.4-0.2-1.9-0.7
			C728.5,208,728.3,207.3,728.3,206.3z M729.2,206.3c0,0.7,0.2,1.2,0.5,1.6c0.3,0.4,0.7,0.5,1.2,0.5c0.5,0,0.9-0.2,1.2-0.5
			c0.3-0.4,0.5-0.9,0.5-1.6c0-0.7-0.2-1.2-0.5-1.5c-0.3-0.4-0.7-0.5-1.2-0.5c-0.5,0-0.8,0.2-1.2,0.5
			C729.4,205.1,729.2,205.6,729.2,206.3z M733.9,209.1l2-2.9l-1.9-2.7h1.2l0.8,1.3c0.2,0.3,0.3,0.5,0.4,0.6c0.1-0.2,0.3-0.4,0.4-0.6
			l0.9-1.3h1.1l-1.9,2.6l2.1,2.9h-1.2l-1.1-1.7l-0.3-0.5l-1.5,2.2H733.9z"/>
	</g>
</g>
</svg>
